<svg version="1.1" id="Layer_1" xmlns="http://www.w3.org/2000/svg" xmlns:xlink="http://www.w3.org/1999/xlink" x="0px" y="0px"
	 width="5rem" viewBox="0 0 1800 1200" enable-background="new 0 0 1800 1200" xml:space="preserve">

<path fill="#FFFFFF" opacity="1.000000" stroke="none" 
	d="
M1075.920166,734.074829 
	C1074.734253,735.836792 1070.570923,737.134644 1067.946411,736.423645 
	C1065.961060,735.885803 1065.279175,736.901123 1063.658203,738.026794 
	C1056.300171,743.136963 1059.829346,750.072266 1059.713379,756.141663 
	C1059.532227,765.612366 1058.398193,767.105042 1048.386719,769.121704 
	C1044.413818,769.922058 1038.750732,769.432068 1038.811646,776.286804 
	C1038.817139,776.910156 1036.788818,777.551514 1035.387573,778.369995 
	C1035.119263,776.774719 1034.914185,775.554749 1034.604736,773.714661 
	C1033.694946,775.846558 1033.020996,777.425964 1032.362061,778.970276 
	C1027.122803,777.808777 1018.656738,781.983521 1014.815247,786.730347 
	C1013.811157,787.971130 1010.803101,787.768127 1008.695374,787.893921 
	C1005.922729,788.059448 1003.009155,787.377319 1000.375122,787.994324 
	C996.528809,788.895203 992.877136,790.627075 988.578613,792.212830 
	C990.251831,792.946167 991.159790,793.344055 992.518555,793.939575 
	C991.648254,794.509766 991.298584,794.933105 990.928101,794.952209 
	C986.198059,795.196228 981.293091,794.010559 977.377747,798.511780 
	C976.576599,799.432800 972.794250,797.760681 970.287354,797.264343 
	C971.726074,800.365112 973.302795,803.461487 969.736694,806.182678 
	C972.664185,808.608582 969.620361,810.320374 969.029236,812.347168 
	C968.275635,814.931641 967.964172,817.706177 966.814331,820.085693 
	C966.312500,821.124207 964.201294,821.859497 962.822449,821.857117 
	C961.612244,821.855042 960.404175,820.630188 958.705200,819.667847 
	C956.014282,821.642761 947.936707,818.968750 947.198120,815.064880 
	C942.648682,820.258484 940.345215,820.393799 934.681641,816.326233 
	C933.708862,815.627563 931.938232,815.991150 930.533691,815.952698 
	C927.805054,815.877930 924.791016,816.596375 922.406311,815.670288 
	C917.948059,813.938904 913.806580,814.442810 912.317627,817.882690 
	C909.173950,817.882690 906.075500,817.882690 901.740479,817.882690 
	C901.383423,818.141052 899.853027,819.248474 898.133057,820.493103 
	C895.964111,816.917175 894.057739,813.774170 891.845947,810.127563 
	C887.421082,811.090454 882.319519,811.435486 879.445129,807.060669 
	C874.030823,807.998047 869.159180,809.352783 864.267212,809.430420 
	C862.376892,809.460388 859.622131,806.968201 858.705200,804.964417 
	C857.077820,801.407593 854.038391,800.331360 851.182800,798.522644 
	C848.811646,797.020752 847.023376,794.613586 844.913818,792.676086 
	C844.102783,791.931152 843.081238,790.784180 842.217468,790.836853 
	C838.403687,791.069336 836.903198,788.547241 835.247559,785.863281 
	C834.723267,785.013245 833.405273,784.652893 832.003845,783.794983 
	C832.981140,782.650574 833.854431,781.627869 835.072205,780.201782 
	C830.948120,778.494080 827.939026,775.874207 829.229797,770.298401 
	C828.732666,770.488892 828.235596,770.679321 827.738525,770.869812 
	C827.306030,771.910034 826.873474,772.950195 826.351135,774.206543 
	C823.771790,771.717163 821.302979,769.334473 817.913208,766.062927 
	C818.377991,764.904053 819.329712,762.531433 820.493896,759.628906 
	C820.029114,758.311401 819.902710,755.320862 818.377808,754.147034 
	C814.504517,751.165100 813.981506,746.140747 810.615540,743.023621 
	C810.194519,742.633728 809.169617,742.562561 809.085144,742.192871 
	C807.854004,736.803040 802.014404,737.184082 799.277771,733.715881 
	C794.882874,738.561951 796.618103,746.438538 789.725220,750.215332 
	C790.616211,751.677063 791.686401,753.432922 792.826477,755.303345 
	C789.199951,762.571716 782.168030,765.076355 774.752014,767.017700 
	C773.998779,767.214844 773.056396,767.437561 772.622375,767.983032 
	C770.003418,771.274292 767.934204,776.991028 764.883545,777.550903 
	C757.791077,778.852478 764.614929,785.470947 760.073303,787.091064 
	C758.913757,787.504700 758.274719,789.377197 757.591370,790.312622 
	C757.940552,791.060791 758.330078,791.895447 758.719666,792.730042 
	C754.876953,793.662720 751.034180,794.595337 746.419495,795.715393 
	C746.103210,802.817261 740.952148,796.437439 738.686401,795.854736 
	C733.550842,794.533997 733.466309,794.200256 732.635559,799.720764 
	C732.330078,801.750793 731.267090,803.666870 730.492920,805.790344 
	C730.039551,805.088257 729.746521,804.634460 729.446594,804.170105 
	C727.531982,805.584900 727.126404,810.640747 722.675964,807.292908 
	C723.888977,808.243164 725.101990,809.193359 726.464233,810.260498 
	C726.709839,816.616333 722.014404,820.942810 717.907776,824.516296 
	C716.165039,826.032715 710.662048,823.227783 706.868042,822.386780 
	C706.865906,821.768005 706.863770,821.149231 706.861572,820.530457 
	C703.273315,822.505310 699.685059,824.480225 696.005005,826.505615 
	C697.424500,828.403992 698.425659,829.742920 699.190613,830.765991 
	C694.619873,831.194946 690.447693,831.804504 686.270813,831.838501 
	C685.097656,831.848022 683.910828,830.165955 683.485840,829.839783 
	C680.765259,832.607544 678.533020,835.414124 675.777283,837.542725 
	C672.520020,840.058838 668.977722,838.926208 665.381775,836.519836 
	C665.049011,841.437805 662.612793,842.879089 658.239441,842.330566 
	C654.672363,841.883179 651.004578,842.239563 647.098755,842.239563 
	C648.513000,842.977600 649.712280,843.603516 650.911560,844.229370 
	C650.897888,844.794678 650.884155,845.360046 650.870483,845.925354 
	C648.243225,845.925354 645.607910,845.807739 642.993042,845.987671 
	C642.045410,846.052856 640.356995,846.807495 640.343445,847.285583 
	C640.114014,855.377258 633.675232,855.006348 628.208496,856.455017 
	C627.948364,856.523926 628.384827,858.541504 628.110962,859.575500 
	C627.877502,860.457092 627.088928,861.884766 626.544067,861.885559 
	C619.690735,861.895630 612.829224,861.842590 605.986328,861.486877 
	C601.364624,861.246704 596.704407,860.798462 592.199402,859.812622 
	C590.754761,859.496521 589.751404,857.163818 588.310486,855.478149 
	C586.572754,856.470581 584.591492,858.184326 582.333313,858.711182 
	C580.463623,859.147461 578.267151,858.183350 576.215515,857.839722 
	C576.124146,857.202637 576.032776,856.565552 575.941345,855.928528 
	C574.921936,857.445984 573.902527,858.963501 573.661377,859.322449 
	C566.537231,858.227783 560.629150,857.319946 554.721130,856.412170 
	C554.603516,856.906860 554.485962,857.401611 554.368408,857.896301 
	C553.919128,857.283325 553.230530,856.730164 553.059631,856.047424 
	C552.004700,851.832336 552.313660,847.307495 545.010620,848.609985 
	C540.988159,849.327332 538.603455,844.168884 536.993591,840.239258 
	C536.094299,838.043884 535.175476,835.849792 534.109924,833.733459 
	C533.789062,833.096191 532.863647,832.224182 532.354614,832.307800 
	C528.935059,832.869873 529.229492,831.081177 529.726196,828.735596 
	C531.085754,822.314819 530.197632,821.264587 523.684082,819.933960 
	C521.245483,819.435791 518.952148,818.226807 517.242798,817.585876 
	C516.191040,815.125671 515.160706,812.897156 514.305420,810.603455 
	C514.050293,809.919189 514.285828,809.052063 514.296631,808.268677 
	C515.016479,808.370056 515.736206,808.471436 515.863708,808.489380 
	C516.727600,804.156250 517.597046,799.683594 518.514709,795.220886 
	C519.641418,789.741516 516.013977,784.797913 510.681671,780.487122 
	C508.495392,778.719666 504.676514,775.043457 506.923859,770.377930 
	C509.935181,764.126404 510.156219,756.700623 514.968994,751.194641 
	C515.166016,750.969177 515.082825,750.448975 515.295776,750.294373 
	C520.996887,746.157593 519.417908,739.100830 521.790039,733.622498 
	C522.208557,732.656006 520.395752,729.778076 518.999939,729.153198 
	C515.215332,727.459106 514.067871,724.519897 516.918457,721.613037 
	C521.269165,717.176453 524.808044,712.205688 526.991638,706.400818 
	C527.512634,705.015930 526.586121,703.131836 526.961670,701.637207 
	C527.667786,698.827026 528.837463,696.133423 529.588501,694.025574 
	C524.651306,694.025574 519.551147,694.025574 514.089844,694.025574 
	C513.373718,689.141479 512.926514,684.403992 511.920349,679.788391 
	C511.179504,676.389893 509.437286,673.213684 508.648651,669.820435 
	C508.029724,667.157410 508.112213,664.316284 508.019653,661.549744 
	C507.911438,658.315735 508.433685,654.875366 503.783539,654.163879 
	C502.993561,654.042969 501.899628,652.922729 501.747070,652.113220 
	C500.844421,647.324219 497.153564,645.668579 493.381531,643.642334 
	C489.019623,641.299316 491.387207,637.370972 492.953308,634.850647 
	C494.958740,631.623230 497.034637,628.233765 499.450073,625.411194 
	C502.661713,621.658325 507.243774,619.083069 511.210693,615.968262 
	C512.231812,615.166382 513.154114,614.238464 514.339111,613.173035 
	C513.430359,612.027954 512.650024,611.044739 511.686310,609.830444 
	C512.918335,608.845825 513.978455,607.998535 514.733521,607.395081 
	C513.754028,606.222168 512.284058,605.266357 512.100891,604.107300 
	C511.171204,598.223938 515.095703,594.817383 520.901001,595.954346 
	C522.629089,596.292725 524.538391,595.631104 526.304321,595.871155 
	C528.305237,596.143188 530.238281,596.913513 531.845764,597.367004 
	C533.018127,594.877747 533.914490,592.974548 534.810913,591.071350 
	C535.380859,591.530701 535.950745,591.989990 537.318848,593.092529 
	C536.949219,590.196472 536.173767,587.841492 536.524963,585.668640 
	C536.795532,583.995178 538.348022,582.432739 539.575134,581.035828 
	C540.910034,579.516296 542.449768,578.145935 544.044800,576.894836 
	C545.479370,575.769592 547.171631,574.976196 548.630981,573.877991 
	C549.533142,573.199097 550.935486,572.151184 550.859436,571.395142 
	C550.606567,568.881958 549.786316,566.425903 549.175720,563.915405 
	C555.710266,560.426086 556.497986,556.756470 552.779236,550.056152 
	C551.951172,548.564209 552.949463,546.058594 553.550537,544.446289 
	C554.165161,545.947693 554.336182,547.022583 554.507202,548.097412 
	C555.139526,547.898438 555.771851,547.699402 556.404175,547.500427 
	C555.857727,546.135864 555.311218,544.771362 554.764771,543.406799 
	C556.540955,540.875488 558.317017,538.344177 560.093140,535.812805 
	C560.272156,536.257874 560.451172,536.703003 560.630188,537.148071 
	C563.281799,536.958923 565.933411,536.769714 568.585083,536.580566 
	C568.608215,536.132324 568.631287,535.684021 568.654419,535.235779 
	C566.947388,534.672852 565.240295,534.109924 563.207275,533.439514 
	C564.101074,530.299805 565.596191,527.022522 565.818054,523.661133 
	C566.004883,520.829712 564.774170,517.885132 564.060181,515.018311 
	C562.866943,510.227631 561.585205,505.459015 560.205017,500.160248 
	C562.657959,500.051544 564.091858,499.988037 565.474182,499.926788 
	C564.833008,498.952484 564.188843,497.973785 563.544739,496.995056 
	C564.889893,496.995056 566.235046,496.995056 567.876953,496.995056 
	C567.926941,496.549835 568.045837,495.491150 568.055481,495.405457 
	C571.326965,493.162842 574.055847,491.292236 576.721680,489.464844 
	C575.250793,485.173828 573.955688,481.395386 572.545471,477.281281 
	C573.209290,477.163452 574.395447,476.952911 575.679260,476.725037 
	C575.958130,475.375488 576.245056,473.986816 576.580750,472.362335 
	C575.898376,472.132690 574.930725,471.807007 573.401978,471.292511 
	C574.802795,470.244568 575.749695,469.536194 575.812073,469.489563 
	C574.864563,466.874756 574.057861,464.896484 573.430542,462.862885 
	C572.299011,459.195160 572.700684,456.532715 577.560425,456.969238 
	C578.333496,457.038635 579.362061,456.967865 579.900635,456.517365 
	C584.336975,452.806488 588.685425,448.990692 593.955994,444.432220 
	C591.968994,444.721069 590.970947,445.144287 590.171082,444.905029 
	C589.354126,444.660614 588.418640,443.881348 588.136108,443.114685 
	C587.953857,442.620361 588.788818,441.676453 589.288574,441.026825 
	C589.773865,440.396027 590.413086,439.883636 590.984741,439.319336 
	C590.207703,439.147644 589.408936,439.038849 588.661743,438.780792 
	C588.210754,438.625000 587.710632,438.324066 587.452698,437.940369 
	C584.366882,433.349335 581.322327,428.730591 578.266907,424.119080 
	C578.833313,423.670197 579.399719,423.221313 579.966125,422.772430 
	C581.121765,424.122253 582.277344,425.472076 583.802002,427.252960 
	C583.902466,426.027832 584.104614,425.482391 583.958069,425.057159 
	C582.150330,419.813324 582.133545,419.843201 587.236206,420.579559 
	C587.677368,420.643219 588.442139,420.183472 588.634766,419.770233 
	C588.829773,419.351990 588.527405,418.682922 588.395752,418.135071 
	C588.071411,416.784668 587.064453,415.163391 587.495972,414.143463 
	C589.144409,410.247101 591.252380,406.545227 593.290710,402.571899 
	C586.866333,401.551514 589.736328,396.537659 589.150513,393.290436 
	C588.513306,389.758667 591.904175,389.757355 594.365295,388.934357 
	C598.794495,387.453308 604.477539,388.129669 606.468018,382.240601 
	C600.324158,377.687958 600.522888,371.769379 606.937866,366.489380 
	C609.208984,364.620087 610.576477,362.637787 609.148926,358.933594 
	C606.098267,351.017670 605.999939,342.364594 607.720215,334.313477 
	C608.542297,330.466034 613.554077,327.579224 616.441162,324.070587 
	C617.396973,322.909027 617.515686,321.096893 618.244629,319.701080 
	C619.246155,317.783325 620.464233,315.978638 621.749512,313.862061 
	C620.613525,313.462067 619.431824,313.045959 617.531433,312.376740 
	C618.098816,309.747406 618.625000,306.945648 619.329163,304.189331 
	C619.718079,302.667236 620.401733,301.220001 620.959351,299.741608 
	C621.302429,298.831879 621.658325,297.926941 622.008423,297.019836 
	C622.678284,297.652222 623.283569,298.380219 624.037170,298.888428 
	C624.707886,299.340729 625.542664,299.549500 626.305054,299.865784 
	C626.261475,299.043793 626.217957,298.221802 626.121948,296.409821 
	C629.046631,297.995239 631.481384,299.315063 633.916199,300.634918 
	C633.213745,299.254883 639.909790,301.116760 636.541809,296.625763 
	C640.787476,296.091614 638.909119,291.413940 640.864197,289.982574 
	C643.030579,288.396545 646.288269,288.298401 649.072693,287.559906 
	C652.526978,286.643799 655.983398,285.735535 659.359924,284.844727 
	C662.616577,291.381012 667.743835,292.727509 672.990356,288.401947 
	C675.834106,286.057343 677.886353,286.814453 680.008362,289.098450 
	C681.950317,291.188660 683.820068,293.348114 685.813110,295.387604 
	C686.486450,296.076660 687.455688,296.980988 688.263123,296.955170 
	C694.954590,296.741364 695.347778,301.541504 695.677612,306.218506 
	C695.968872,310.348663 695.920654,314.503540 695.995300,318.647980 
	C696.050964,321.738953 697.254700,323.373169 700.079773,325.417084 
	C703.317444,327.759521 704.703552,332.666748 706.816101,336.502655 
	C706.845764,336.556549 705.860962,337.169220 705.334106,337.531830 
	C712.531677,339.026367 713.945190,343.950897 709.295410,350.299377 
	C707.329773,352.982971 705.959534,356.102539 704.292542,359.070496 
	C706.222290,359.472809 707.095764,359.654907 707.969238,359.837036 
	C706.822388,361.486816 705.675598,363.136627 703.898682,365.692932 
	C703.882629,369.396149 702.135620,375.374268 709.448364,378.101807 
	C708.149109,381.020233 706.905273,383.467987 705.998047,386.034668 
	C705.667236,386.970428 706.169189,388.187317 706.234497,389.279358 
	C706.337341,390.998657 706.392151,392.720795 705.776672,394.485168 
	C706.115967,396.802460 710.264648,399.771698 703.678223,400.221863 
	C702.442139,400.306335 701.300049,401.765289 701.201843,401.833618 
	C700.549866,405.024506 700.086487,407.292419 699.623108,409.560333 
	C699.590332,409.540222 699.557556,409.520111 699.524841,409.500000 
	C698.586914,414.424286 697.648987,419.348572 696.568909,425.019379 
	C698.459106,427.207489 703.865601,427.318176 703.277649,433.558563 
	C702.803040,438.595917 700.171265,441.411194 698.158813,443.454285 
	C697.892883,447.978027 697.690857,451.415375 697.488647,454.854980 
	C697.908386,454.756836 699.267090,454.439148 700.462402,454.159668 
	C701.042786,456.763763 701.614807,459.330444 702.253723,462.197144 
	C697.168823,465.825439 691.348389,469.151489 689.581360,476.650604 
	C688.391113,481.701782 687.804321,487.063507 684.266113,491.565582 
	C683.006042,493.168823 683.542358,496.709259 684.143921,499.146942 
	C685.665588,505.312653 684.891052,507.477325 679.286011,509.971741 
	C678.864868,510.159119 678.444763,510.348816 677.937439,510.576324 
	C680.304138,514.359741 683.318298,517.808167 684.561768,521.807190 
	C685.095886,523.524963 682.476990,527.569397 680.379822,528.496460 
	C674.968018,530.888733 671.510986,534.826416 669.236023,539.846802 
	C668.805298,540.797363 670.696106,543.470032 672.130249,544.429443 
	C674.010498,545.687195 676.679871,546.934448 678.682251,546.536804 
	C681.040771,546.068298 683.286804,542.395813 685.152893,542.704407 
	C687.945862,543.166382 690.364990,545.888977 692.796631,547.550110 
	C696.681580,543.070068 700.765137,538.312439 704.922546,533.620300 
	C705.531006,532.933594 706.491516,532.558838 707.289062,532.039734 
	C707.626587,533.154114 707.964111,534.268555 708.416199,535.761230 
	C714.943909,536.356262 726.385498,544.360657 727.569702,550.532166 
	C727.898376,548.974548 728.051331,548.249939 728.308716,547.030090 
	C730.915894,550.586670 733.559387,552.622070 735.895142,545.980774 
	C740.167419,549.055969 744.052307,551.852295 748.463562,555.027466 
	C750.202087,547.268250 758.083130,550.069214 763.380249,546.860168 
	C765.879211,553.091736 770.550293,555.595520 777.051086,553.736572 
	C779.821838,560.351013 785.828247,563.799072 792.612915,563.145386 
	C793.409607,563.068665 794.762085,563.810913 795.060181,564.512207 
	C795.732727,566.094788 795.906372,567.889404 796.356934,569.933167 
	C802.744263,566.998352 805.265198,573.549011 809.540771,576.876038 
	C811.048218,578.049133 813.416321,578.116150 814.810059,578.519775 
	C816.130310,579.834473 817.401245,580.876709 818.377808,582.145508 
	C819.113831,583.101807 819.679382,584.298279 819.964722,585.474243 
	C821.449768,591.593689 822.820801,597.740784 824.353577,604.409363 
	C826.359924,602.538940 827.542542,601.436340 828.718628,600.339905 
	C824.598938,597.090576 824.667725,590.164490 828.764526,586.895386 
	C829.537842,586.278198 829.919373,584.389221 829.612427,583.341736 
	C828.581238,579.822510 830.219482,577.507080 831.491089,574.346985 
	C833.491028,569.376770 838.624695,569.382935 840.828369,565.662354 
	C841.716797,564.162354 843.645203,563.180969 841.649109,560.831787 
	C841.011780,560.081665 842.269287,557.443604 843.023865,555.840759 
	C845.265015,551.080017 843.720581,546.117371 844.134705,541.272400 
	C844.228821,540.171753 845.617188,539.181763 846.409851,538.140808 
	C846.746643,538.368347 847.083374,538.595886 847.420166,538.823425 
	C847.420166,536.371338 847.420166,533.919312 847.420166,531.892212 
	C845.945679,530.568420 843.810913,529.472900 843.283691,527.853882 
	C842.992615,526.960022 845.162415,524.816711 846.633423,523.884399 
	C850.465820,521.455383 854.524719,519.383728 857.205017,517.888306 
	C857.816589,515.438904 858.259033,513.666748 858.864685,511.241180 
	C860.882996,512.604492 862.030640,513.379639 862.762451,513.874023 
	C864.644836,511.427734 866.348816,509.213196 868.438660,506.497253 
	C868.284729,505.744812 867.539490,503.829376 867.749939,502.025391 
	C867.809326,501.516083 870.665833,501.333099 872.712036,500.900574 
	C873.198792,500.357635 874.453979,499.253662 875.328003,497.903076 
	C876.285095,496.424042 876.880920,494.712738 877.653137,493.111847 
	C877.992065,492.409363 878.249512,491.250244 878.761963,491.113007 
	C884.232788,489.648102 885.953613,487.648376 883.668335,481.899414 
	C882.144775,478.066711 884.907715,477.884583 886.193481,476.339691 
	C887.351501,474.948242 888.676758,473.617523 890.160889,472.599060 
	C891.505432,471.676392 893.164062,471.211426 895.033691,470.391388 
	C895.033691,468.865387 895.033691,467.068176 895.033691,464.973328 
	C896.729309,465.085724 898.115417,465.177612 898.997070,465.236053 
	C900.328308,462.048248 901.243713,458.428833 903.208252,455.517303 
	C905.601624,451.970276 908.863098,452.543304 913.707764,456.886719 
	C914.094604,453.486755 915.705200,452.008698 918.971497,450.644073 
	C922.135925,449.321991 926.501526,447.497803 927.087341,442.547058 
	C927.387451,440.011017 928.353027,438.431305 932.065308,438.731293 
	C936.803223,439.114166 941.170959,436.883270 945.105408,433.599823 
	C949.323608,430.079620 952.484009,431.533722 953.302734,437.027191 
	C954.506531,434.823700 955.519409,432.969543 956.541687,431.098236 
	C959.526733,431.790619 962.596924,432.166565 965.349792,433.307892 
	C966.440796,433.760193 966.459656,434.147186 967.674561,433.344757 
	C968.675110,432.683899 971.324890,432.983276 972.171875,433.875122 
	C977.837341,439.840118 983.137512,436.347931 988.675476,433.793518 
	C993.413269,431.608185 997.997131,429.223022 1003.715088,429.809784 
	C1007.172180,430.164490 1010.817810,428.622070 1014.387390,427.979889 
	C1015.348328,427.806976 1016.365417,427.919189 1017.313171,427.706268 
	C1018.942932,427.340179 1020.621033,427.006653 1022.132751,426.332062 
	C1026.687866,424.299408 1031.172607,422.109100 1036.641724,419.528717 
	C1037.673340,413.566711 1044.059814,417.647644 1047.905762,415.836334 
	C1053.520630,413.191956 1056.931763,417.434784 1061.232544,418.953461 
	C1064.229492,410.891479 1071.941284,417.533569 1076.784668,412.950928 
	C1077.033813,416.436737 1077.206543,418.852875 1077.329712,420.574799 
	C1078.790161,422.078796 1079.804932,423.784393 1081.287598,424.453552 
	C1082.605957,425.048492 1084.959473,425.141602 1085.964478,424.339294 
	C1091.233643,420.132904 1095.819824,421.406464 1100.263184,426.656464 
	C1102.446777,429.236511 1107.217163,429.627228 1110.816895,431.008728 
	C1111.131470,430.641754 1111.446045,430.274780 1111.760620,429.907837 
	C1112.210938,432.402313 1112.575439,434.916199 1113.133789,437.386261 
	C1113.788086,440.279816 1116.984863,441.022675 1119.613647,440.090912 
	C1122.384277,439.109009 1125.579834,439.326477 1128.929932,438.985229 
	C1129.135864,441.851990 1129.320679,444.423157 1129.518311,447.173584 
	C1130.340210,447.403412 1131.738281,447.794312 1133.722656,448.349182 
	C1132.230591,450.119324 1131.297119,451.226776 1130.809326,451.805542 
	C1132.812500,454.211243 1134.701782,456.480255 1136.847290,459.056885 
	C1138.577393,455.767395 1140.301025,452.490356 1142.245605,448.793274 
	C1146.159302,448.012634 1151.141846,446.510406 1156.194946,446.215424 
	C1158.912109,446.056824 1161.888428,447.695038 1164.502197,449.010590 
	C1168.694824,451.120880 1173.487793,452.896240 1176.524414,456.195892 
	C1179.365356,459.282837 1180.533203,464.077698 1181.882080,468.298340 
	C1182.558716,470.415314 1182.215454,472.954163 1181.926514,475.251038 
	C1181.723511,476.865723 1180.833984,478.394043 1180.250977,479.960938 
	C1178.986572,479.242523 1177.665039,478.605225 1176.479858,477.773621 
	C1175.824341,477.313660 1175.397095,476.528320 1174.822266,475.835846 
	C1173.786865,478.853760 1173.226196,481.724945 1171.855957,484.136047 
	C1170.471802,486.571503 1168.285522,488.550964 1165.856567,491.435791 
	C1168.195923,491.836792 1169.385376,492.040710 1171.741211,492.444550 
	C1170.051147,496.240143 1169.379150,500.937408 1166.679932,503.074768 
	C1162.478394,506.401886 1164.311646,509.181641 1165.617310,513.758484 
	C1165.926025,511.425659 1166.076538,510.288940 1166.226929,509.152222 
	C1166.619751,509.005249 1167.012695,508.858276 1167.405518,508.711334 
	C1168.401733,510.887390 1169.397949,513.063416 1170.885986,516.313660 
	C1168.588867,515.655090 1167.518188,515.348145 1165.915161,514.888550 
	C1166.540283,519.180786 1167.099121,523.018677 1167.691772,527.088013 
	C1163.797485,527.113037 1163.648071,531.522339 1162.194946,534.643127 
	C1161.060791,537.079346 1161.102051,540.132141 1159.740845,542.377380 
	C1157.625610,545.866638 1158.562744,547.610840 1161.289795,550.318787 
	C1162.563232,551.583313 1161.403931,555.632629 1160.808105,558.299377 
	C1160.522949,559.576111 1158.982910,560.572632 1157.776978,561.967163 
	C1162.597656,566.075745 1161.488770,570.352966 1158.528442,575.227234 
	C1156.804199,578.066284 1156.466064,581.747192 1155.368774,585.514587 
	C1162.253418,582.146423 1157.727295,590.017517 1161.156738,589.484253 
	C1157.760742,595.683838 1152.944702,601.011902 1158.401855,608.313843 
	C1159.602539,609.920532 1158.153564,613.483398 1157.984497,616.149231 
	C1157.910889,617.307251 1157.673950,618.591309 1158.054199,619.616821 
	C1159.318237,623.027222 1158.990845,625.821594 1156.224121,628.494080 
	C1155.476929,629.215759 1155.666260,631.355042 1156.025024,632.681458 
	C1156.801636,635.553101 1158.407104,638.255310 1158.831543,641.150269 
	C1159.168823,643.451050 1159.050537,646.591003 1157.725708,648.195129 
	C1155.295166,651.138245 1157.952148,652.371521 1158.781128,654.212158 
	C1159.615601,656.065552 1161.285400,657.718201 1161.569580,659.611877 
	C1162.526123,665.985291 1166.771851,670.713440 1171.437988,671.740051 
	C1172.286621,671.926819 1173.319214,671.254700 1174.177368,671.426453 
	C1175.430664,671.677185 1176.602905,672.332703 1178.562744,673.116943 
	C1182.577637,670.658752 1187.612549,667.575928 1192.800293,664.399597 
	C1193.424072,664.971191 1194.388916,665.855347 1194.487549,665.945618 
	C1198.199219,663.697021 1201.505371,661.721802 1204.776489,659.690186 
	C1205.469849,659.259460 1206.166626,658.055115 1206.639771,658.164795 
	C1214.709595,660.037415 1214.063965,653.190552 1216.001099,648.940369 
	C1216.390625,648.085388 1216.613037,647.075134 1217.214844,646.409851 
	C1219.656250,643.710754 1222.215820,641.118286 1224.696045,638.523804 
	C1222.378540,636.571960 1221.200073,635.579468 1220.396484,634.902649 
	C1221.765625,632.868164 1222.653931,630.823792 1224.160400,629.464478 
	C1227.066406,626.842102 1230.360596,624.655212 1233.417480,622.192871 
	C1235.322632,620.658325 1237.668823,619.274536 1238.797485,617.253601 
	C1241.327637,612.722839 1242.768555,607.547424 1245.543701,603.203491 
	C1247.212036,600.592285 1250.295898,598.337769 1253.233521,597.268005 
	C1255.368042,596.490601 1256.046387,596.133179 1256.127075,593.906921 
	C1256.171387,592.683167 1257.864380,590.376709 1258.190063,590.482361 
	C1261.438965,591.536499 1263.623291,588.377686 1263.627808,587.263428 
	C1263.640015,584.304016 1262.193726,581.338562 1261.116577,577.653687 
	C1260.935059,577.798767 1261.781982,577.122192 1261.659790,577.219727 
	C1260.853149,573.654114 1260.164673,570.611328 1259.439087,567.404480 
	C1261.584961,567.700745 1263.004517,567.896790 1264.424072,568.092773 
	C1264.561890,567.819275 1264.699707,567.545776 1264.837524,567.272339 
	C1263.275269,566.245911 1261.713013,565.219543 1259.469116,563.745361 
	C1262.739258,562.513367 1265.708740,561.394714 1268.854736,560.209595 
	C1268.841919,560.351379 1269.025635,559.879517 1268.877930,559.725403 
	C1264.552002,555.212097 1264.563721,555.236877 1269.651489,550.864685 
	C1273.586060,547.483521 1277.792236,544.318054 1281.117676,540.409912 
	C1281.812500,539.593384 1279.284546,535.879517 1278.010498,533.631714 
	C1277.596558,532.901489 1275.763184,532.596313 1275.757568,532.083618 
	C1275.738525,530.381348 1275.699585,527.687439 1276.666138,527.141968 
	C1280.351685,525.062256 1282.151978,521.758789 1284.527100,518.563599 
	C1286.184204,516.334595 1286.924805,515.055420 1286.102539,512.529114 
	C1285.832397,511.698944 1286.710083,510.495209 1287.062866,509.462311 
	C1287.885864,509.830292 1288.708740,510.198273 1289.644897,510.616913 
	C1290.705078,508.926910 1291.866699,507.075287 1292.953369,505.343048 
	C1288.866333,499.243469 1284.371826,493.601837 1283.892822,485.849609 
	C1283.645996,481.854675 1280.674927,479.204102 1277.421997,476.942810 
	C1275.418823,475.550354 1273.978027,473.326965 1271.939331,472.012238 
	C1268.474243,469.777527 1264.736328,467.966003 1261.114014,465.974792 
	C1260.727539,465.762238 1260.348267,465.536499 1260.116821,465.403656 
	C1260.853882,459.300629 1261.565430,453.408600 1262.331543,447.065918 
	C1261.059937,446.493500 1259.233398,445.916138 1257.673950,444.920258 
	C1253.965088,442.551666 1256.722290,439.645020 1257.936523,437.820190 
	C1261.821411,431.982361 1266.281616,426.525330 1270.572266,420.961853 
	C1271.161987,420.197174 1271.951538,419.444153 1272.815186,419.056976 
	C1277.366211,417.016571 1280.372925,413.445007 1282.962036,409.355621 
	C1286.876709,403.172485 1293.670166,403.294250 1299.393188,411.021606 
	C1302.154419,407.595764 1304.470459,404.073334 1307.497314,401.337585 
	C1308.484985,400.444946 1312.587769,400.936401 1313.112793,401.931244 
	C1316.369019,408.101196 1321.584595,405.783630 1326.487671,406.004608 
	C1331.111572,406.212982 1336.321045,405.824554 1339.643799,410.256042 
	C1340.220459,411.025208 1339.934204,412.441498 1340.069580,413.788055 
	C1341.388794,414.035919 1343.371826,414.408539 1345.916748,414.886749 
	C1347.414307,411.020874 1351.228027,407.812378 1346.590088,402.537262 
	C1344.784424,400.483612 1346.294800,395.514313 1346.294800,391.670319 
	C1347.531128,391.013885 1349.034668,390.215576 1350.584717,389.392578 
	C1350.877808,390.175720 1351.231445,391.121063 1351.588867,392.076202 
	C1352.184692,391.835052 1352.670776,391.779266 1352.726074,391.594360 
	C1353.392456,389.371124 1353.693481,387.840118 1357.131958,387.612488 
	C1360.857544,387.365845 1364.446045,384.710083 1368.033203,382.978424 
	C1368.828003,382.594727 1369.334229,381.644287 1370.032227,381.020599 
	C1370.825439,380.311798 1371.741577,379.052582 1372.504517,379.122406 
	C1375.185913,379.367767 1377.824341,380.081146 1380.346313,380.590088 
	C1381.412231,377.937744 1382.534790,375.144623 1383.229492,373.416351 
	C1386.514404,372.981049 1388.867554,372.376678 1391.184326,372.493652 
	C1392.239502,372.546967 1393.222778,374.025879 1395.358398,375.775604 
	C1398.369263,375.171204 1403.377319,376.131958 1407.172241,370.753876 
	C1409.949829,366.817383 1414.901611,364.111755 1420.549805,367.732330 
	C1420.771484,368.222992 1420.946045,369.687805 1421.703979,370.113068 
	C1426.753052,372.946136 1431.680176,374.416443 1437.282837,370.565582 
	C1439.555542,369.003510 1443.207153,369.380402 1446.248535,369.021729 
	C1449.566895,368.630341 1451.000244,370.505829 1452.386108,373.385529 
	C1453.174194,375.022980 1455.950195,375.703766 1457.845581,376.824036 
	C1460.391846,372.512299 1463.566772,371.775238 1469.359741,374.832367 
	C1470.325317,375.341949 1471.509644,376.090759 1472.428955,375.907379 
	C1474.828125,375.428680 1476.806641,376.305115 1479.013794,376.841217 
	C1480.799927,377.275024 1482.958496,376.175781 1483.940430,375.969238 
	C1484.624634,373.141510 1485.110474,370.989380 1485.673340,368.857635 
	C1486.062378,367.384033 1486.558594,365.938812 1487.005615,364.480469 
	C1487.146240,364.021759 1487.252808,363.172546 1487.424683,363.159576 
	C1490.923218,362.895020 1494.429077,362.726074 1497.933472,362.538055 
	C1497.807007,366.032867 1499.923706,364.103516 1501.573120,364.471680 
	C1505.706177,365.394257 1509.633301,367.340759 1513.551636,369.082184 
	C1515.567993,369.978363 1516.621460,371.180725 1518.363770,368.001648 
	C1519.407593,366.097168 1523.650269,365.962189 1526.441528,364.992950 
	C1528.185059,364.387482 1529.903687,363.709686 1532.161255,362.867493 
	C1532.242798,362.973785 1532.908203,363.841370 1533.630615,364.783417 
	C1534.351562,363.401794 1535.069214,362.026367 1536.424683,359.428467 
	C1538.047363,360.715027 1539.899414,362.520782 1542.075562,363.754639 
	C1543.044800,364.304047 1545.329590,364.226501 1545.879517,363.532288 
	C1548.422485,360.322571 1550.637817,358.311707 1554.122070,362.514008 
	C1554.993164,363.564453 1556.840820,363.805084 1558.297974,364.443451 
	C1559.056885,361.983856 1559.639771,360.095001 1560.222656,358.206116 
	C1560.545044,358.189636 1560.867432,358.173187 1561.189819,358.156708 
	C1561.582764,359.641876 1561.975708,361.127014 1562.368652,362.612183 
	C1562.748169,362.646973 1563.127686,362.681763 1563.507080,362.716553 
	C1563.434692,361.672607 1562.914185,360.197144 1563.400879,359.691589 
	C1564.039185,359.028809 1565.510986,358.826569 1566.556030,358.960144 
	C1569.987305,359.398804 1574.575073,361.748108 1576.563721,360.333679 
	C1581.339355,356.936920 1586.439087,359.324921 1590.871948,357.773132 
	C1595.737427,356.069916 1597.413818,357.988159 1598.600342,362.043335 
	C1603.913452,361.415588 1609.664185,363.961517 1614.031738,358.696167 
	C1614.788940,357.783417 1617.211914,358.457123 1618.617554,357.836670 
	C1621.927856,356.375580 1625.359375,354.944183 1628.244995,352.824280 
	C1632.375610,349.789673 1633.274292,353.409912 1634.826294,355.555969 
	C1635.781250,356.876526 1636.256348,358.544006 1636.611084,359.320374 
	C1638.468506,358.550201 1639.704590,358.037689 1641.876221,357.137299 
	C1642.038818,354.442352 1642.887939,350.497345 1648.458740,350.799561 
	C1648.460205,344.317169 1655.265137,346.074341 1658.113892,342.941864 
	C1659.083740,341.875336 1661.838989,340.907959 1662.548218,341.464142 
	C1663.809326,342.453094 1664.132080,344.638580 1665.034546,346.764893 
	C1665.109375,346.750824 1665.938965,346.594940 1666.554810,346.479218 
	C1666.740479,348.236816 1666.927368,350.006348 1667.118896,351.819214 
	C1670.483276,350.825043 1673.870483,350.417114 1676.599121,348.857178 
	C1679.544434,347.173401 1681.873779,344.412201 1684.523071,342.075623 
	C1689.017456,346.629425 1693.965698,350.159302 1700.918091,349.035797 
	C1701.852173,348.884796 1703.076172,348.898407 1703.804688,349.380951 
	C1707.277466,351.681458 1708.570557,351.249603 1709.286011,346.740295 
	C1709.917480,342.760223 1717.726807,338.690979 1722.177979,338.388275 
	C1723.406372,338.304749 1724.516235,336.478851 1726.084595,335.096222 
	C1728.087891,336.632751 1730.248047,338.647888 1732.736450,340.101044 
	C1735.424438,341.670898 1738.463013,342.627563 1741.261963,344.025360 
	C1742.717529,344.752197 1743.935425,345.943054 1745.360352,346.747955 
	C1746.081909,347.155518 1747.576172,347.577026 1747.779785,347.300049 
	C1749.333130,345.188019 1750.657837,342.093445 1753.634521,345.271149 
	C1755.261475,347.007996 1759.279175,343.942780 1759.121704,348.341431 
	C1765.838867,349.434906 1766.903931,356.286163 1771.022095,360.027618 
	C1771.349365,360.325012 1771.650024,360.940216 1771.952271,360.933319 
	C1776.294800,360.835144 1780.844482,361.413605 1784.920044,360.290222 
	C1789.333252,359.073730 1791.378052,362.815338 1794.772095,363.394623 
	C1796.611938,363.708649 1798.378784,364.450928 1800.589233,365.000000 
	C1801.000000,374.020905 1801.000000,383.041779 1801.000000,392.531311 
	C1799.143799,394.921265 1797.287598,396.842590 1795.785400,398.397522 
	C1797.275757,399.687042 1798.515137,400.284271 1798.863892,401.215240 
	C1799.130859,401.927307 1798.552368,403.428680 1797.869629,403.950195 
	C1791.767212,408.611115 1791.735840,408.569977 1795.992920,415.303314 
	C1794.671143,417.356018 1790.852783,418.901459 1794.459106,422.130615 
	C1794.654663,422.305573 1794.397949,423.421387 1794.038574,423.712067 
	C1790.991089,426.177002 1787.879272,428.563019 1784.769409,430.949921 
	C1782.864868,432.411743 1780.208984,433.434998 1779.149292,435.351288 
	C1776.435059,440.260162 1775.254028,440.909302 1771.242065,438.331696 
	C1769.910522,439.910797 1768.886963,442.320038 1767.294067,442.786560 
	C1762.773315,444.110840 1758.193115,446.388458 1753.228149,443.224182 
	C1752.011719,442.448944 1749.370728,443.908844 1747.962402,444.215424 
	C1740.740479,440.756470 1733.917969,443.892731 1727.464478,445.195312 
	C1722.150146,446.267975 1718.858276,451.410583 1714.080322,455.575470 
	C1711.751221,454.824127 1708.007324,453.616364 1704.566528,452.506348 
	C1701.536865,453.281891 1698.256104,454.687683 1694.918213,454.840088 
	C1690.231445,455.054016 1685.371338,454.896881 1680.833740,453.835907 
	C1677.351440,453.021759 1674.192993,450.668488 1671.007812,448.799713 
	C1669.221802,447.751770 1667.785645,446.090210 1665.971558,445.114929 
	C1665.094849,444.643677 1663.183228,444.646118 1662.646484,445.245605 
	C1660.316406,447.848053 1658.320190,450.749420 1656.009644,453.796722 
	C1652.136475,450.704071 1648.439209,451.004150 1645.256958,455.905792 
	C1644.109863,457.672729 1642.010132,458.821259 1639.886108,460.646729 
	C1636.116577,458.447144 1635.126953,461.020874 1633.864868,464.900909 
	C1632.119873,470.265045 1633.624268,474.699402 1635.919434,479.280914 
	C1634.472656,480.774811 1632.984497,482.311584 1631.496216,483.848358 
	C1631.782227,484.139526 1632.068115,484.430695 1632.354126,484.721863 
	C1633.613403,484.154633 1634.872681,483.587402 1636.144775,483.014404 
	C1637.220703,486.781006 1638.302002,490.565979 1639.578857,495.035614 
	C1637.158081,496.034393 1634.146484,497.276978 1631.134766,498.519562 
	C1631.107178,498.299011 1631.079590,498.078461 1631.051880,497.857910 
	C1629.211060,499.199982 1627.370239,500.542023 1625.929565,501.592346 
	C1625.330322,503.944061 1624.742676,506.250580 1623.983887,509.228973 
	C1628.034058,512.488403 1628.404053,517.878723 1626.813721,523.287415 
	C1626.259399,525.172485 1623.581177,526.424805 1621.891724,527.986389 
	C1619.917725,529.811157 1618.059204,531.775696 1615.973511,533.460571 
	C1614.078369,534.991516 1611.661377,535.953491 1609.998779,537.673218 
	C1608.351318,539.377319 1604.033325,540.996277 1608.620361,544.370667 
	C1609.239258,544.826050 1608.556274,546.895630 1608.689819,548.195862 
	C1609.056152,551.760986 1610.122314,555.369629 1609.794189,558.855957 
	C1609.509399,561.882690 1607.697998,564.765808 1606.808716,568.071594 
	C1606.162720,569.056580 1605.587036,570.831604 1604.859253,570.896301 
	C1600.632202,571.272461 1597.135620,572.806152 1594.700439,576.123962 
	C1595.083374,577.187683 1595.482910,578.297729 1595.882568,579.407837 
	C1594.417114,579.778809 1592.951782,580.149780 1591.343384,580.557007 
	C1594.654053,583.624756 1592.840820,585.625366 1591.162109,586.444092 
	C1590.132935,589.788452 1590.078369,592.489868 1588.700928,593.888367 
	C1586.239502,596.387695 1585.371338,598.448792 1586.897705,601.827454 
	C1587.918823,604.087769 1587.896118,606.819763 1588.250366,608.829773 
	C1585.108276,611.270874 1582.526001,613.273743 1579.952026,615.287354 
	C1579.831055,615.381897 1579.807129,615.680237 1579.700684,615.702026 
	C1571.716309,617.336304 1571.992920,627.197021 1565.014038,630.425964 
	C1562.865356,631.420044 1562.656006,637.179321 1562.080933,640.838745 
	C1561.514771,644.441895 1556.975220,650.736328 1553.743652,652.069092 
	C1552.459106,652.598877 1551.204712,653.855042 1550.552856,655.102539 
	C1549.713745,656.708130 1549.501587,658.639526 1549.006226,660.427002 
	C1547.132935,667.187866 1546.646851,667.372070 1540.528198,662.991333 
	C1541.144287,666.165039 1541.364014,668.926514 1542.238159,671.462463 
	C1544.096436,676.853638 1543.432373,681.131836 1538.239014,683.917908 
	C1533.970459,686.207825 1534.522949,687.844604 1537.174316,690.557678 
	C1537.459717,690.849670 1537.590942,691.292419 1538.015137,692.072693 
	C1536.322998,692.600830 1534.861938,693.056946 1533.337158,693.532898 
	C1534.282715,693.866577 1535.149048,694.172302 1536.015259,694.478027 
	C1530.539062,694.169312 1530.639038,704.040527 1523.835693,701.196106 
	C1521.458252,704.867981 1521.990234,707.715210 1526.614014,710.870239 
	C1522.794556,714.691162 1518.729492,718.057861 1515.654785,722.165833 
	C1514.359741,723.895996 1514.397705,727.444214 1515.159546,729.721069 
	C1516.702515,734.331299 1514.404785,737.554993 1511.212158,738.952759 
	C1506.324951,741.092407 1503.174927,743.739380 1502.914795,749.229919 
	C1502.894775,749.655151 1502.441528,750.059875 1502.105103,750.613220 
	C1504.012329,754.523499 1506.389038,758.420593 1507.744629,762.645325 
	C1508.303711,764.388245 1505.706055,767.122986 1506.237549,768.900208 
	C1507.288086,772.413025 1506.479004,773.153381 1503.176270,772.731934 
	C1502.681274,772.668762 1502.031494,773.596252 1501.496338,774.110046 
	C1498.449707,777.035461 1495.697388,780.368103 1492.298462,782.797119 
	C1488.937012,785.199402 1490.398926,787.009033 1491.818481,789.441895 
	C1492.656616,790.878113 1492.895020,792.664246 1493.504517,794.618286 
	C1491.817871,794.313354 1490.809814,794.131104 1488.681641,793.746338 
	C1489.711426,794.653076 1489.970703,794.814514 1490.141479,795.042297 
	C1491.748657,797.185425 1491.420654,798.865540 1488.922852,800.009155 
	C1486.738281,801.009521 1484.563477,802.032349 1482.368286,803.008972 
	C1480.743286,803.731812 1479.305664,809.662170 1479.969360,811.538147 
	C1481.455566,815.738281 1482.735229,820.016052 1483.935547,824.307922 
	C1484.123901,824.981018 1483.456299,825.893555 1482.687866,826.219727 
	C1482.028442,825.202759 1481.865601,824.661560 1481.702759,824.120361 
	C1481.410522,824.224182 1481.118164,824.327942 1480.825806,824.431763 
	C1481.190674,825.312744 1481.555420,826.193787 1481.920166,827.074829 
	C1481.681763,827.806396 1481.554321,829.113525 1481.188599,829.183960 
	C1474.906128,830.393860 1473.743286,836.707092 1469.870361,840.253479 
	C1467.401123,842.514404 1464.223999,844.001953 1462.706055,844.975586 
	C1462.461426,850.057617 1462.280884,853.808472 1462.150024,856.528870 
	C1459.675049,858.199463 1457.925781,859.380188 1455.460449,861.044250 
	C1455.142700,858.452820 1454.954956,856.921082 1454.921143,856.645691 
	C1449.540894,858.644104 1443.966553,860.714539 1438.009888,862.927002 
	C1438.207397,861.723572 1438.338013,860.927551 1438.538696,859.704468 
	C1432.713257,863.587891 1427.272705,867.214661 1421.248657,871.230469 
	C1417.993042,868.885071 1414.419067,866.310303 1410.845215,863.735596 
	C1411.091553,863.615967 1411.337891,863.496338 1411.584351,863.376709 
	C1410.386963,863.217224 1408.887695,863.456543 1408.049927,862.822083 
	C1405.705566,861.046814 1403.336304,859.140564 1401.558838,856.837036 
	C1400.340332,855.257874 1398.073486,854.053284 1399.251465,850.766174 
	C1399.805908,849.219177 1397.223145,844.833252 1395.487183,844.468384 
	C1386.599609,842.600037 1383.103516,835.378235 1378.594238,829.053467 
	C1378.411011,828.796570 1378.158691,828.537048 1378.104736,828.247742 
	C1377.297852,823.919617 1376.471191,819.593811 1375.781738,815.246460 
	C1375.671509,814.551514 1376.124878,813.716431 1376.460693,813.014587 
	C1376.854858,812.190918 1377.405273,811.442017 1377.887939,810.660645 
	C1376.976807,810.565979 1376.065674,810.471375 1374.993042,810.359924 
	C1375.328491,805.385559 1375.490112,800.385193 1376.099854,795.440063 
	C1376.298584,793.827637 1377.327637,791.965698 1378.565186,790.902222 
	C1381.680786,788.224731 1382.022217,785.745728 1379.043823,782.571289 
	C1375.839722,779.156128 1381.017578,777.745911 1380.775757,775.056335 
	C1382.649048,775.096863 1383.336304,774.667053 1381.665405,773.061462 
	C1381.463623,772.867615 1381.773438,771.674377 1381.910522,771.662048 
	C1388.222168,771.095947 1384.511719,764.283813 1389.412598,761.939880 
	C1384.864624,760.896118 1383.984253,759.659668 1386.547363,756.630737 
	C1388.168213,754.715271 1388.660034,751.751465 1389.359375,749.176697 
	C1389.984741,746.874268 1392.359741,745.760193 1392.537720,742.715393 
	C1392.633667,741.074829 1392.567017,739.487915 1391.915039,738.390564 
	C1389.342651,734.061218 1391.487915,729.673035 1390.993530,725.352905 
	C1391.426636,725.091003 1391.859863,724.829163 1392.293091,724.567322 
	C1393.904175,726.456665 1395.515259,728.346008 1397.074585,730.174744 
	C1397.074585,727.442322 1397.074585,725.451294 1397.074585,723.460266 
	C1398.322998,723.770691 1399.571289,724.081055 1401.015503,724.440125 
	C1403.640137,721.383057 1404.919556,717.787903 1403.142456,713.330872 
	C1402.853271,712.605530 1404.184204,710.474121 1405.162476,710.134949 
	C1409.433716,708.653748 1411.063477,705.829895 1412.328491,701.507507 
	C1413.194946,698.546936 1416.943970,696.318481 1419.653687,694.062378 
	C1420.771362,693.131836 1422.542847,692.986450 1423.444580,692.679016 
	C1420.937378,688.137573 1418.371704,683.753967 1416.179443,679.190979 
	C1415.900513,678.610168 1417.377197,676.404114 1418.372559,676.121765 
	C1424.184448,674.473450 1426.348022,668.995056 1429.993774,665.166870 
	C1430.781494,664.339661 1429.448608,661.491272 1429.090210,659.574280 
	C1428.717529,657.579956 1428.342041,655.585999 1427.967651,653.591919 
	C1428.450317,653.445435 1428.932861,653.298950 1429.415527,653.152466 
	C1430.158081,654.038940 1430.900513,654.925415 1431.824707,656.028809 
	C1432.714111,654.410828 1433.563354,652.865845 1434.598389,650.982910 
	C1436.426025,650.982910 1438.564575,650.982910 1441.000977,650.982910 
	C1441.000977,647.227051 1440.460205,643.614929 1441.224243,640.303833 
	C1441.618896,638.593872 1444.167603,637.107971 1446.055664,636.115723 
	C1447.226074,635.500610 1448.983154,636.001648 1450.372314,636.001648 
	C1451.272705,631.717712 1443.971069,628.141541 1449.298462,623.020508 
	C1448.599487,622.504517 1447.346069,621.579407 1445.818237,620.451782 
	C1446.432129,619.459656 1446.999146,618.543213 1447.564575,617.629517 
	C1446.748901,617.037842 1445.088989,616.224548 1445.183105,615.830994 
	C1445.509277,614.467529 1446.246460,613.070801 1447.194702,612.017517 
	C1448.763062,610.275696 1450.470093,608.576965 1452.391602,607.257629 
	C1454.338867,605.920532 1456.640503,605.109497 1458.744629,603.988464 
	C1461.546387,602.495667 1464.307373,600.925964 1467.205322,599.323181 
	C1466.619263,597.461609 1466.439331,595.548767 1465.494751,594.153870 
	C1463.144653,590.683655 1463.336914,587.688843 1465.859253,584.370789 
	C1467.375488,582.376221 1468.726440,580.419006 1468.228638,577.172424 
	C1467.508179,572.473328 1472.412231,570.269348 1475.475098,569.465698 
	C1481.028320,568.008667 1483.399292,563.472656 1487.156738,560.336182 
	C1489.868042,558.072815 1492.116455,555.262146 1494.730469,552.869446 
	C1495.367065,552.286499 1496.628784,552.386536 1498.035156,552.077637 
	C1495.835449,545.317444 1493.478027,538.072266 1490.750122,529.688721 
	C1493.981079,528.277405 1497.387451,526.789429 1500.793823,525.301453 
	C1501.087158,525.769043 1501.380493,526.236694 1501.673828,526.704285 
	C1501.873047,525.529236 1502.072266,524.354187 1502.509155,521.776794 
	C1504.016602,524.131470 1504.921387,525.544617 1505.776978,526.881042 
	C1506.852295,525.018433 1507.982300,523.060974 1508.565918,522.049866 
	C1506.368530,515.235413 1504.223145,508.582733 1502.182251,502.253571 
	C1506.346680,499.597229 1510.446167,496.982330 1515.075806,494.029266 
	C1516.405273,491.351013 1509.997314,486.894897 1515.312866,484.833069 
	C1519.426147,483.237549 1522.215576,474.266296 1528.068726,481.045105 
	C1529.204102,478.400177 1530.146118,475.361389 1531.778687,472.755005 
	C1532.606567,471.433411 1534.585083,470.429871 1536.210327,470.096039 
	C1539.396118,469.441650 1540.464111,467.818634 1540.339722,464.675934 
	C1540.257690,462.601471 1540.903564,460.498199 1541.036987,459.626373 
	C1538.667236,458.643372 1537.120483,458.219330 1535.808716,457.413208 
	C1532.916992,455.636017 1530.389526,456.585144 1528.853760,459.822205 
	C1528.523560,460.518097 1526.821289,460.562988 1526.844849,460.555389 
	C1524.264648,464.460144 1521.925537,468.000092 1519.586304,471.540070 
	C1519.169312,471.348267 1518.752197,471.156464 1518.335083,470.964661 
	C1518.135010,469.747467 1517.934814,468.530273 1517.726440,467.262512 
	C1513.705322,471.234985 1508.679321,470.351990 1506.661255,465.373749 
	C1506.004639,466.193359 1505.351074,467.009247 1504.918945,467.548615 
	C1503.916626,466.480499 1503.233398,465.188751 1502.187256,464.736298 
	C1497.849609,462.860413 1493.411621,461.212524 1488.978760,459.565918 
	C1488.576904,459.416626 1487.949707,459.875519 1487.426636,460.049988 
	C1484.180176,461.132812 1480.883545,463.969635 1477.993286,459.124390 
	C1477.558960,458.396515 1474.660156,458.459412 1473.317505,459.070618 
	C1467.533813,461.703583 1465.641235,460.992249 1462.923462,454.583405 
	C1462.819336,454.337921 1462.409424,454.222137 1462.318481,454.162170 
	C1460.909180,456.433685 1459.995239,459.694092 1457.971191,460.683624 
	C1455.801270,461.744415 1452.473145,461.092987 1449.863281,460.393921 
	C1447.690674,459.811951 1445.826416,458.079102 1444.502441,457.269745 
	C1441.499146,457.520905 1438.632812,457.803864 1435.760010,457.990356 
	C1431.826050,458.245667 1427.556274,457.559052 1424.047363,458.895721 
	C1420.811646,460.128418 1418.406616,463.518250 1415.607300,465.924957 
	C1408.848877,471.735626 1406.307739,471.600037 1401.086304,464.419861 
	C1399.161011,461.772095 1398.990967,457.793213 1394.339844,457.686218 
	C1393.354126,457.663513 1392.412842,455.702209 1391.965576,455.205475 
	C1390.163574,456.393066 1388.410400,457.806854 1386.438599,458.775208 
	C1384.476685,459.738586 1382.121338,459.961945 1380.267700,461.063629 
	C1378.908691,461.871307 1378.081665,463.573975 1377.017334,464.877655 
	C1378.532349,465.919373 1380.003296,467.034668 1381.577515,467.977539 
	C1382.667480,468.630341 1384.090210,468.830750 1385.003052,469.640533 
	C1385.634644,470.200745 1385.650513,471.455170 1386.023926,472.666901 
	C1390.719482,473.302216 1393.989380,476.762543 1393.751953,481.329803 
	C1392.863647,480.508606 1391.880981,479.600250 1389.996704,477.858429 
	C1392.066895,486.976715 1391.138428,488.362976 1382.552124,491.482666 
	C1383.712158,497.868378 1385.021240,504.143372 1385.880981,510.479340 
	C1386.090210,512.019836 1384.780273,513.747986 1384.253784,515.416626 
	C1384.067749,516.006042 1383.849243,517.028992 1384.129517,517.255737 
	C1389.071777,521.254272 1384.125732,521.391602 1382.031372,522.603882 
	C1387.173950,528.808289 1383.564697,541.027893 1375.666870,542.504456 
	C1380.880005,546.476868 1378.952393,551.922058 1378.804565,556.771484 
	C1378.719849,559.550720 1379.335205,560.812134 1381.773926,560.939331 
	C1384.823242,561.098389 1384.411499,562.107483 1382.386719,563.629028 
	C1381.647095,563.632080 1381.305908,563.754822 1380.964844,563.877563 
	C1380.815430,564.861084 1380.666016,565.844604 1380.268799,566.157959 
	C1380.080200,565.095520 1380.139282,564.703247 1380.198486,564.311035 
	C1379.921509,564.282898 1379.644653,564.254761 1379.367676,564.226624 
	C1379.514038,564.877197 1379.660522,565.527710 1379.806885,566.178345 
	C1380.951416,567.816711 1382.095947,569.455139 1383.897949,572.034607 
	C1382.173340,571.455688 1381.228638,570.870422 1380.968628,571.091309 
	C1376.806885,574.626282 1371.702271,577.619568 1368.924805,582.058105 
	C1366.084717,586.596619 1365.970825,592.749207 1363.873779,597.872009 
	C1361.989258,602.476013 1359.033081,606.641479 1356.480713,611.121399 
	C1360.223389,613.916748 1360.185669,614.754639 1355.602417,619.198669 
	C1354.766602,620.009216 1354.511230,621.441284 1354.049438,622.610657 
	C1352.668823,626.106201 1350.698730,625.784058 1348.411133,623.529175 
	C1345.685425,625.463745 1354.227173,628.882080 1347.514404,630.300781 
	C1351.874146,632.539612 1352.484985,636.133423 1348.943848,639.516846 
	C1346.812500,641.553284 1344.475220,643.374207 1341.684692,645.758362 
	C1343.177856,648.217712 1345.434082,651.933777 1347.639648,655.566467 
	C1343.426270,661.283691 1337.131348,663.846069 1330.583618,666.553894 
	C1331.280762,666.806030 1331.977905,667.058167 1333.120850,667.471497 
	C1330.372803,671.173950 1327.682861,674.798218 1325.361694,677.925720 
	C1327.493164,683.152588 1326.551636,687.328247 1323.869019,691.263977 
	C1322.954956,690.983643 1321.767944,690.204956 1321.219482,690.524048 
	C1318.976196,691.828979 1316.946045,693.495239 1314.802246,694.977722 
	C1312.924316,696.276489 1309.025879,695.890625 1311.385010,700.438721 
	C1311.975220,701.576538 1309.539429,705.610046 1307.647827,706.487427 
	C1297.633789,711.131775 1293.566650,720.818359 1287.574097,728.892883 
	C1284.480835,733.060913 1280.484985,735.637878 1275.100708,736.128906 
	C1273.660767,736.260315 1271.449829,737.753601 1271.163574,738.986389 
	C1270.038208,743.831177 1267.934204,745.728699 1262.551392,747.434082 
	C1259.126099,748.519287 1256.228882,751.187195 1252.846191,752.508789 
	C1245.960327,755.199280 1245.276978,762.476868 1241.370972,767.343201 
	C1240.025513,769.019531 1240.383789,769.115417 1237.657349,769.666138 
	C1236.053345,769.990173 1234.584473,771.879395 1233.126465,771.797058 
	C1231.417480,771.700500 1229.786255,770.227234 1227.928955,769.249878 
	C1228.025269,767.421692 1228.126099,765.510559 1228.307373,762.072693 
	C1226.728271,764.071411 1225.689209,765.386719 1224.565796,766.808777 
	C1219.587158,764.461609 1213.072754,765.355530 1210.642334,768.803772 
	C1208.550415,768.347961 1208.906860,763.104431 1204.956055,765.776672 
	C1204.757935,765.910583 1202.979004,762.946838 1201.535278,762.181274 
	C1199.477783,761.090271 1197.049194,760.699463 1194.779053,760.009521 
	C1194.619385,760.507446 1194.459839,761.005432 1194.300171,761.503418 
	C1195.732422,762.078369 1197.164673,762.653381 1199.120483,763.438599 
	C1197.645996,764.055908 1196.198853,765.183533 1195.590210,764.837219 
	C1188.084229,760.566772 1184.413818,765.079407 1180.493042,770.555603 
	C1179.635010,771.754089 1175.338501,771.883179 1173.685913,770.834229 
	C1170.107910,768.562805 1167.335815,765.060791 1163.983521,762.374878 
	C1162.673096,761.325073 1160.717041,760.733276 1159.006348,760.610352 
	C1156.237427,760.411438 1152.701904,761.895691 1150.789673,760.659241 
	C1146.967651,758.188049 1146.292847,760.297668 1145.518066,762.579468 
	C1140.952515,761.477966 1136.623047,760.433411 1132.062500,759.333130 
	C1132.156860,759.057495 1131.858032,759.929932 1131.525391,760.901306 
	C1129.825195,756.211243 1128.224854,751.683105 1126.463989,747.218201 
	C1126.357788,746.948669 1124.973389,747.183289 1123.975586,747.183289 
	C1124.204468,748.231018 1124.386841,749.066162 1124.512573,749.641602 
	C1121.969727,748.741760 1119.409546,747.991089 1117.002319,746.902222 
	C1116.124390,746.505310 1115.378052,745.404114 1114.967407,744.453308 
	C1112.162231,737.956604 1106.724609,734.217773 1100.858398,731.016541 
	C1097.351196,729.102722 1098.339111,725.727234 1097.611084,722.859558 
	C1096.567993,718.750610 1095.541992,714.613770 1094.047241,710.663513 
	C1093.756958,709.896240 1091.277100,709.474792 1089.941040,709.697510 
	C1087.863281,710.043945 1085.900269,711.079346 1084.108154,711.741638 
	C1084.131958,712.243347 1084.624390,713.612915 1084.148315,714.209656 
	C1082.432739,716.359436 1081.522949,720.174622 1077.291626,718.317139 
	C1077.858154,722.826233 1078.493774,727.321045 1078.898315,731.836548 
	C1078.947266,732.383789 1077.749512,733.042664 1076.663330,733.214233 
	C1075.861694,732.647156 1075.526489,732.515503 1075.191162,732.383911 
	C1075.434204,732.947571 1075.677246,733.511169 1075.920166,734.074829 
M1043.038818,576.016724 
	C1042.705811,576.004700 1042.200073,576.129639 1042.065796,575.960205 
	C1039.906006,573.234680 1039.511963,565.779297 1041.206543,562.940735 
	C1042.248413,561.195679 1044.269775,558.868591 1043.785645,557.577698 
	C1041.456787,551.368286 1046.795898,550.805420 1049.011230,549.089539 
	C1049.011230,546.367310 1049.011230,544.254150 1049.011230,542.499573 
	C1047.862061,541.901550 1045.254761,540.964111 1045.336182,540.514404 
	C1045.681885,538.608521 1046.452759,536.495178 1047.759277,535.109253 
	C1050.252075,532.465271 1053.340576,530.392273 1055.942383,527.838196 
	C1057.694824,526.117859 1058.820312,512.274902 1057.702271,510.227081 
	C1057.041992,509.017792 1056.438599,507.777435 1055.809692,506.551025 
	C1055.710815,506.702026 1055.611816,506.853027 1055.512939,507.004028 
	C1052.864258,503.881897 1050.215454,500.759766 1047.078979,497.062775 
	C1046.809570,497.175171 1045.356201,497.488495 1044.262695,498.291840 
	C1040.839233,500.807007 1038.142456,504.985596 1032.795288,502.488251 
	C1032.317627,502.265167 1031.146973,503.754761 1030.199341,504.265961 
	C1027.404297,505.773834 1024.847046,508.631836 1021.207947,506.066040 
	C1021.071777,505.969971 1020.667236,506.254608 1020.559387,506.295990 
	C1020.676514,507.498627 1020.790955,508.674042 1020.861572,509.399170 
	C1018.303650,509.259796 1015.752869,508.349304 1014.050537,509.179199 
	C1009.713928,511.293274 1005.784729,514.231750 1001.635986,516.747131 
	C999.252930,518.191956 996.805664,520.814148 994.240967,516.833862 
	C993.967957,516.410095 992.833679,516.301208 992.202637,516.459595 
	C991.928345,516.528442 991.989685,517.669922 991.773865,518.280029 
	C990.737671,521.208435 989.658813,524.121704 988.595093,527.040344 
	C988.207214,528.053955 989.388306,530.024536 988.857605,531.259705 
	C986.863403,535.901367 984.310974,540.303223 981.925842,544.875122 
	C981.340881,544.636719 980.463745,544.279114 979.520203,543.894531 
	C979.124023,545.057007 978.783508,546.056152 978.455811,547.017639 
	C975.961731,546.558716 973.750610,546.151855 972.372314,545.898254 
	C971.777283,549.793274 969.708069,551.241272 966.365601,551.722900 
	C967.567688,551.914551 968.769714,552.106201 970.477783,552.378540 
	C968.847778,555.217346 967.365845,557.666748 966.010864,560.184509 
	C962.895447,565.973389 964.906677,572.318237 966.482361,577.454712 
	C968.083130,582.672546 967.049377,589.315857 972.507568,593.422302 
	C973.587830,594.234985 972.888794,597.412781 973.010315,599.499878 
	C971.119263,599.018921 969.038208,598.888550 967.375122,597.987061 
	C963.411133,595.838562 959.637878,593.336487 955.800842,590.955994 
	C953.647827,589.620239 951.335205,588.458069 949.435364,586.821838 
	C947.566406,585.212158 945.600952,581.262329 944.597961,581.549866 
	C941.319336,582.489502 941.922546,579.604065 940.821533,578.998535 
	C936.237793,576.477905 936.932129,567.549377 928.800720,569.854919 
	C929.142517,568.318115 929.367859,567.305298 929.593140,566.292480 
	C929.198608,565.983154 928.804077,565.673767 928.409546,565.364441 
	C926.519897,567.720398 924.630188,570.076355 922.506226,572.724365 
	C921.982727,572.468933 920.721008,571.853394 919.457764,571.234863 
	C918.401428,573.801086 916.268005,576.883301 919.677979,578.731567 
	C923.089294,580.580566 922.643799,583.585022 921.632751,585.413940 
	C919.302246,589.629883 921.458679,593.573425 921.187317,597.594116 
	C921.064758,599.410278 920.851868,601.428650 919.973328,602.946167 
	C917.383179,607.420288 912.531860,610.998901 914.966614,617.245483 
	C915.187927,617.813110 915.182190,618.687866 914.893494,619.201965 
	C911.960205,624.425537 912.942871,629.163574 916.220703,633.877319 
	C916.894043,634.845581 916.989685,636.896545 916.401306,637.879822 
	C915.744995,638.976318 914.004700,639.424194 913.060364,639.967773 
	C911.925659,641.615845 911.157349,643.757690 909.648193,644.658142 
	C907.857849,645.726562 905.429688,645.726135 903.747986,646.087830 
	C903.378784,648.095825 902.944336,650.458801 902.347168,653.706543 
	C902.932800,654.374023 904.704773,655.970276 905.931519,657.911072 
	C907.158875,659.852905 907.657104,662.244934 908.807068,664.249023 
	C910.402893,667.029968 912.308594,669.633057 914.264343,672.588440 
	C912.614014,672.906494 911.299500,673.159851 911.407715,673.139038 
	C910.432861,676.224854 910.353149,678.831787 909.017517,680.280823 
	C904.275269,685.425659 904.500488,687.332031 910.141907,689.441895 
	C910.363098,691.050110 910.336731,692.164978 910.683777,693.147888 
	C911.947632,696.726624 916.056702,698.927124 915.244385,703.710938 
	C915.020264,705.031128 917.339844,707.860657 918.887024,708.200439 
	C923.385559,709.188416 928.107056,709.617615 932.679260,709.319031 
	C933.362549,709.274414 933.691895,704.133118 934.234802,701.359375 
	C934.354309,700.749146 934.685730,700.180481 935.044983,699.277588 
	C936.401062,701.027283 937.023315,701.830139 937.127747,701.964905 
	C938.569946,700.610596 939.815247,698.949341 941.471436,698.021484 
	C943.196289,697.055237 946.098816,697.416565 947.127930,696.119568 
	C951.198059,690.990234 957.178284,690.033813 962.703247,687.973145 
	C967.021606,686.362549 971.318542,684.624268 971.994873,679.150208 
	C972.822998,672.447449 977.117981,667.572510 983.867493,667.146301 
	C988.821228,666.833496 992.397766,665.796143 992.908875,660.976501 
	C995.257019,659.951843 998.582397,659.308167 998.692566,658.309631 
	C999.113953,654.490967 1001.040833,652.229858 1003.916809,650.094666 
	C1005.580566,648.859436 1007.365906,647.030090 1007.864319,645.142761 
	C1008.866089,641.349426 1010.632019,639.210999 1013.744751,639.636047 
	C1014.387512,636.549072 1014.220154,633.322876 1015.671570,631.206970 
	C1018.858765,626.560425 1022.559631,622.343689 1023.075195,616.374878 
	C1023.145630,615.559387 1023.912170,614.511230 1024.651611,614.094604 
	C1028.915649,611.691650 1033.085449,608.925598 1037.652100,607.320618 
	C1040.989746,606.147644 1040.513428,604.467773 1039.219727,602.781982 
	C1036.534790,599.283325 1033.424072,596.111328 1029.755005,591.979370 
	C1031.689331,590.271545 1035.097412,588.642334 1036.091675,586.077393 
	C1037.793335,581.687683 1040.354736,580.320618 1043.730347,580.853333 
	C1043.730347,579.202332 1043.730347,577.728882 1043.038818,576.016724 
M618.954163,744.578430 
	C620.539490,746.114136 621.936462,747.942444 623.756165,749.114136 
	C626.229126,750.706360 629.405090,750.319397 630.498962,747.774658 
	C631.941345,744.419373 634.672058,744.006714 637.324402,743.014465 
	C638.814026,742.457275 641.099121,742.509338 641.744751,741.481873 
	C644.233887,737.520630 647.661438,739.224854 650.877625,739.372803 
	C651.918884,739.420715 652.963928,739.399109 654.003540,739.466370 
	C658.165039,739.735657 661.312927,737.199280 664.868958,735.703552 
	C670.927490,733.155212 676.504822,730.493164 676.891785,722.660522 
	C677.000610,720.459106 678.122070,718.307800 678.649963,716.560669 
	C681.831482,715.911072 685.301941,714.108154 688.017578,714.898499 
	C692.340576,716.156799 692.795715,714.903992 691.962158,711.300293 
	C694.752991,711.173828 697.300049,711.058472 699.092285,710.977234 
	C700.184143,706.533630 700.474915,702.475098 702.187622,699.148743 
	C704.083435,695.467041 705.105408,689.453552 711.959290,691.937622 
	C712.553894,692.153137 713.479370,691.582947 714.208618,691.276611 
	C716.670105,690.242554 719.112427,689.162842 721.872803,687.965820 
	C721.976807,687.354004 722.178650,686.166443 722.256042,685.711182 
	C725.141724,685.711182 727.420715,685.711182 729.699707,685.711182 
	C728.950012,681.060669 731.727295,683.903870 733.301331,683.945679 
	C734.222107,683.970215 735.154419,683.562561 736.081604,683.349365 
	C736.051453,683.030823 736.021240,682.712219 735.991089,682.393677 
	C734.348572,682.151306 732.706055,681.908875 730.373718,681.564697 
	C731.245056,680.743469 731.683899,680.407959 732.028076,679.993896 
	C737.189819,673.783264 737.174988,673.807861 744.690063,677.110962 
	C745.243103,677.353943 746.300049,677.014954 746.853638,676.593323 
	C749.111938,674.873657 751.042053,671.976318 753.508484,671.446472 
	C757.507019,670.587524 755.452576,667.747437 755.777649,666.156799 
	C756.296631,663.617493 755.447571,660.798584 755.169739,658.026794 
	C754.026550,658.632324 752.727173,659.320496 751.427856,660.008728 
	C751.012329,659.835571 750.596802,659.662415 750.181213,659.489258 
	C754.058411,656.125061 746.463562,651.522278 751.893311,648.603882 
	C751.078552,646.864014 750.250122,645.094849 749.389343,643.256714 
	C748.622681,643.972839 747.854736,645.306335 746.917419,645.438416 
	C744.925842,645.719177 742.846069,645.374878 740.802551,645.286804 
	C741.113525,644.064636 741.706909,642.821777 741.619324,641.628906 
	C741.573853,641.009399 740.324768,640.478210 739.488342,639.801086 
	C738.962830,642.243591 738.570068,644.068970 737.960754,646.900818 
	C736.989807,644.885803 736.264404,643.941284 736.089111,642.903748 
	C735.681030,640.488464 728.833435,636.391418 726.861572,637.704102 
	C723.445923,639.978149 720.853210,643.140503 715.682800,642.320129 
	C713.295837,641.941406 711.342712,642.014587 708.886414,640.766907 
	C705.697571,639.146912 702.848511,635.984619 697.645325,638.291321 
	C693.408264,640.169617 687.630066,638.571533 682.838928,638.518311 
	C682.838928,639.020813 682.838928,640.829224 682.838928,642.637634 
	C681.794678,642.488159 680.350830,642.686401 679.826843,642.084229 
	C679.369202,641.558350 679.947266,640.131226 680.095581,638.864685 
	C677.102112,640.511292 673.523438,639.538025 670.354553,642.521301 
	C667.806763,644.919800 663.071533,645.211060 659.212341,645.928955 
	C656.339905,646.463257 653.262695,645.863281 650.372437,646.343994 
	C646.159302,647.044678 642.032043,648.262268 636.646423,649.552063 
	C636.845215,652.120178 637.171814,656.027649 637.436829,659.939270 
	C637.523254,661.215271 637.033691,663.420349 637.514648,663.638000 
	C641.199463,665.305542 638.354919,667.478149 638.156738,669.382324 
	C638.033691,670.564331 637.133972,671.965332 637.526306,672.849182 
	C639.203430,676.626953 637.854370,679.884338 636.289612,683.172791 
	C636.031860,683.714600 635.162170,684.429077 635.281921,684.619568 
	C639.299988,691.010315 631.024841,691.075073 630.700134,695.049133 
	C630.732239,697.235535 630.874512,699.641357 630.963867,702.049255 
	C631.018311,703.518127 630.404297,705.405640 631.101135,706.389099 
	C634.231201,710.807129 631.216064,713.651611 628.491821,715.969116 
	C624.899902,719.024841 623.252014,722.764221 623.611755,727.098633 
	C623.743774,728.689453 625.863892,729.778259 622.939087,731.043518 
	C617.347534,733.462646 616.087830,737.464600 618.954163,744.578430 
M1435.344360,372.631531 
	C1435.520264,373.396423 1435.696045,374.161285 1435.871948,374.926178 
	C1436.448120,374.465302 1437.024170,374.004456 1437.600342,373.543579 
	C1437.119263,373.285522 1436.638306,373.027466 1435.344360,372.631531 
M708.836731,694.326172 
	C708.113281,694.771484 707.389832,695.216797 706.666382,695.662109 
	C706.936157,696.061279 707.205994,696.460510 707.475830,696.859680 
	C707.972168,696.282959 708.468506,695.706177 708.836731,694.326172 
z"/>
<path fill="#FFFFFF" opacity="1.000000" stroke="none" 
	d="
M145.014008,836.998352 
	C143.662582,837.104980 142.700089,837.174622 141.762619,837.242493 
	C140.564819,839.524292 139.120575,842.275513 137.381607,845.588135 
	C139.389053,850.969971 138.215683,852.782043 131.524887,854.396729 
	C128.693939,855.079895 124.863907,855.097107 124.880081,859.641907 
	C119.905289,859.762817 121.213326,863.635193 121.033951,865.575684 
	C118.473450,867.765991 116.452919,869.349182 114.607758,871.115540 
	C112.914825,872.736084 112.407684,877.189270 108.701477,873.317261 
	C108.319061,874.220520 107.393913,875.708313 107.638878,875.935852 
	C109.879547,878.016174 108.881302,879.466309 107.306534,881.403015 
	C106.092934,882.895630 104.394096,884.777405 106.859444,887.051392 
	C107.526909,887.667114 107.439461,889.849976 106.895363,890.895569 
	C104.965805,894.603455 102.957672,898.181396 105.279915,903.006104 
	C101.006996,899.808838 101.977943,912.017883 96.593079,904.069763 
	C94.859749,910.149109 87.275597,911.493591 87.466743,918.773804 
	C85.101212,920.163269 82.203224,921.865417 79.989037,923.165955 
	C79.989037,927.870239 80.071716,932.300964 79.877007,936.719482 
	C79.854462,937.231201 78.343788,937.850769 77.434181,938.119324 
	C73.901581,939.162354 70.222771,938.980347 68.297966,943.760559 
	C67.277565,946.294617 62.805092,947.438599 59.416382,949.498657 
	C60.068005,957.563049 52.819168,960.626221 43.533665,960.968811 
	C39.928207,964.167786 37.461697,966.874573 34.475464,968.756653 
	C33.240303,969.535156 30.744827,968.914856 29.090214,968.257263 
	C27.446129,967.603821 26.286663,965.470276 24.656551,965.088684 
	C18.423063,963.629700 16.840479,958.159302 13.974804,953.695740 
	C12.259748,951.024475 10.610830,947.213440 8.120074,946.399414 
	C4.553091,945.233521 5.144186,942.552551 4.195432,940.458862 
	C4.098571,940.245056 7.132561,939.121582 7.843865,937.909668 
	C8.839045,936.214111 10.000889,933.624329 9.375810,932.139221 
	C6.450329,925.188416 9.891294,920.052307 13.216475,914.612488 
	C9.802691,911.615662 10.962410,907.187622 16.027670,905.276001 
	C15.626509,903.447693 15.221723,901.602844 14.816936,899.757996 
	C15.191326,900.050049 15.565716,900.342163 15.940105,900.634277 
	C17.627680,899.300781 19.329426,897.984314 20.982256,896.609070 
	C21.159233,896.461792 20.970734,895.714600 21.087126,895.678162 
	C28.108395,893.480408 26.616768,885.484924 30.792780,881.229553 
	C31.883018,880.118591 30.957010,877.028992 30.957010,873.357910 
	C33.584484,871.489258 37.955376,869.124695 41.343155,865.768005 
	C44.935318,862.208862 49.854603,859.969177 50.527863,853.235779 
	C50.898682,849.527161 56.457535,846.337341 59.925369,842.650024 
	C57.416794,839.748047 57.159126,835.790222 61.231358,832.082581 
	C60.288776,831.229492 59.573677,830.582275 58.400799,829.520752 
	C61.517830,828.209961 64.100433,827.114868 66.690170,826.036865 
	C71.065941,824.215393 71.517944,820.312683 72.074791,816.325195 
	C72.260437,814.995789 72.994675,813.325073 74.030693,812.601196 
	C80.024681,808.413208 81.654884,802.562012 81.012810,795.712036 
	C80.701630,792.392273 85.283318,786.999817 89.554512,785.777344 
	C88.939949,784.470093 88.318100,783.147339 87.696251,781.824585 
	C88.035004,782.118408 88.373764,782.412170 88.712524,782.705994 
	C93.030014,775.850159 100.989807,775.143677 105.767776,770.658936 
	C106.521706,764.331055 107.256729,758.161926 107.991753,751.992798 
	C108.333115,751.944641 108.674484,751.896545 109.015846,751.848389 
	C109.626366,752.917786 110.236893,753.987183 110.507584,754.461365 
	C112.129997,753.546265 113.471916,752.660217 114.917824,752.002930 
	C117.342247,750.900879 117.546478,749.625854 116.009514,747.421265 
	C114.402100,745.115601 116.242569,741.296204 118.219070,742.223999 
	C123.224243,744.573669 123.311600,739.118530 125.799728,737.736389 
	C128.047485,736.487732 128.870453,732.662292 130.299271,729.961304 
	C130.580994,729.428772 130.980606,728.831299 130.953781,728.281982 
	C130.612671,721.297363 130.477814,721.146362 135.322922,717.396057 
	C138.051254,715.284302 140.927353,713.723145 141.303528,709.645935 
	C141.396133,708.642334 143.925308,707.538452 145.509338,707.060547 
	C149.709030,705.793274 150.304428,704.919739 149.152969,701.314148 
	C148.972702,700.749756 149.986160,699.709351 150.587341,699.008972 
	C152.039078,697.317749 156.597610,697.940552 154.545486,693.410400 
	C154.336258,692.948608 157.533157,690.943787 159.620651,689.279297 
	C159.180420,687.542114 158.446732,684.646912 157.616669,681.371338 
	C159.427170,681.161560 160.829117,680.999146 161.558319,680.914673 
	C165.109467,675.778381 168.445740,670.952942 172.054062,665.733948 
	C172.562775,666.733643 173.005264,667.603210 173.444366,668.470154 
	C174.108688,666.986633 175.727173,664.634949 175.294113,664.162109 
	C171.743881,660.285461 175.729782,657.454956 177.413223,656.488770 
	C182.714478,653.446106 183.612015,647.635620 186.935501,643.434326 
	C190.473633,638.961792 192.314667,632.978882 196.295074,629.084839 
	C198.834000,626.601074 199.233582,623.715759 199.902466,621.284485 
	C200.799881,618.022644 199.469162,614.147766 199.026764,609.877136 
	C200.048080,609.652588 202.001587,609.223022 204.950638,608.574646 
	C205.661179,608.145142 207.431168,607.075195 209.563660,605.786194 
	C209.861603,607.375061 210.083649,608.559204 210.287537,609.646545 
	C212.199768,607.472717 214.113876,605.296875 216.438278,602.654541 
	C215.210739,597.288635 218.575775,588.362732 222.953094,587.645020 
	C222.358917,584.406189 221.765228,581.169983 220.984299,576.913208 
	C223.169601,576.700867 225.411102,576.483154 227.525589,576.277771 
	C227.447662,576.037109 227.219391,575.332336 226.819656,574.098145 
	C228.353500,574.769531 229.436096,575.243347 229.747131,575.379517 
	C232.667358,573.617004 235.926117,572.588562 237.640717,570.367859 
	C239.600037,567.830322 240.307083,564.271301 241.336044,561.084351 
	C242.517609,557.424683 243.300003,553.633240 244.543396,549.997314 
	C245.767715,546.417236 247.352036,542.960266 248.407364,540.362610 
	C251.184189,540.219238 253.302307,540.109863 255.408432,540.001099 
	C253.558273,534.794861 255.770676,530.389160 257.588623,525.896057 
	C258.934692,522.569336 259.518402,518.711304 261.600830,515.970703 
	C263.511383,513.456299 266.999695,512.158325 269.733704,510.240082 
	C270.450226,509.737427 271.591095,508.644226 271.440460,508.294403 
	C270.450104,505.994263 269.126617,503.840302 267.977478,501.604889 
	C267.103455,499.904694 271.059784,490.624603 271.662018,491.194733 
	C274.160675,493.559967 275.953369,488.760345 278.293427,490.816711 
	C278.450836,490.955109 280.814087,488.799927 281.962128,487.539154 
	C283.376495,485.985962 284.254272,483.626526 285.954254,482.707642 
	C292.267761,479.295105 296.220306,474.092072 298.778595,467.618896 
	C297.815735,466.858887 296.851990,466.098206 295.873535,465.325897 
	C299.165741,461.513245 299.650543,457.479767 298.030884,453.092133 
	C296.502319,448.951294 298.630707,444.707977 303.820526,441.509735 
	C300.910797,435.646851 302.191254,432.305237 308.983459,428.036438 
	C313.224396,425.370972 314.746887,420.185944 312.949219,416.870880 
	C316.079468,414.168884 319.020599,411.597382 322.010040,409.083282 
	C322.486267,408.682800 323.196106,408.571930 323.768921,408.271729 
	C324.738190,407.763672 326.514435,407.184082 326.497925,406.682404 
	C326.422394,404.387512 325.235046,401.997162 325.630005,399.859680 
	C325.959320,398.077545 327.862823,396.539185 329.200195,395.007263 
	C330.065826,394.015747 331.167480,393.230255 331.939575,391.999756 
	C335.264496,389.344666 338.589386,386.689545 341.766846,384.152161 
	C341.164917,384.100433 339.827209,383.985443 338.489075,383.867065 
	C336.090424,380.564728 337.497314,374.029968 340.832825,371.991211 
	C344.476227,369.764282 347.963654,367.281372 351.500946,364.883240 
	C351.735596,364.724152 351.980865,364.313660 351.943542,364.061096 
	C351.486542,360.970276 350.587402,357.886322 350.593536,354.802155 
	C350.599487,351.808960 350.691284,348.207520 352.301575,346.017426 
	C353.600769,344.250488 357.191650,344.080994 359.822754,343.434631 
	C360.608032,343.241730 361.585419,343.830780 363.028107,344.205139 
	C362.664124,341.267090 361.536133,338.500671 362.279846,336.395447 
	C363.034363,334.259735 365.342987,331.897034 367.487885,331.180054 
	C372.998810,329.337799 374.843536,325.727051 371.695923,321.262482 
	C369.079590,317.551422 369.712830,316.938812 374.477631,314.726257 
	C377.394653,313.371674 379.782959,310.717590 382.127960,308.367004 
	C383.140503,307.351990 383.443420,305.629028 384.068665,304.227661 
	C384.637817,304.701813 385.206940,305.175995 385.776062,305.650146 
	C385.251129,304.844147 384.726196,304.038147 384.182495,303.203278 
	C390.850647,300.070068 391.474396,299.155762 390.305389,294.528412 
	C392.948395,294.388641 395.849701,286.937103 396.121582,279.764252 
	C406.591736,277.650696 415.143646,272.987610 420.013336,263.040985 
	C417.347931,259.219208 419.175079,250.945602 423.383209,249.331421 
	C429.882080,246.838562 435.257599,241.688721 443.334991,242.687668 
	C447.526581,243.206024 450.731232,238.572693 454.121002,235.762848 
	C456.609650,233.699997 460.082947,231.054153 462.718933,231.433884 
	C465.399841,231.820129 467.609772,235.576447 469.991333,237.892578 
	C471.008118,238.881424 471.799225,240.648544 472.930847,240.875473 
	C477.112549,241.714172 480.148926,243.441238 481.096100,247.948166 
	C481.259735,248.726776 482.200226,249.510712 482.974030,249.964920 
	C487.723907,252.753113 491.618469,257.250000 498.199341,256.277924 
	C499.937408,256.021179 502.110046,258.706665 504.410645,260.262604 
	C504.410645,261.837128 504.410645,263.897827 504.410645,267.143555 
	C505.910095,264.671387 506.792389,263.216705 507.674683,261.762024 
	C508.246033,261.965057 508.817413,262.168060 509.388763,262.371094 
	C508.433990,265.576447 507.936310,269.029114 506.378479,271.908203 
	C505.153625,274.171997 504.318085,275.517792 505.787292,278.179810 
	C506.823120,280.056519 508.195557,283.538971 505.207397,284.391541 
	C505.069000,286.482758 505.124176,288.114014 504.819885,289.675232 
	C504.350555,292.083221 501.700623,294.828247 506.299774,296.164490 
	C506.749664,296.295227 507.126373,297.966339 506.934998,298.781036 
	C506.288666,301.532593 505.405121,304.231293 504.548431,306.929932 
	C503.408600,310.520630 502.150848,314.075165 501.086365,317.687286 
	C500.886383,318.365936 501.260742,319.890869 501.529633,319.930054 
	C506.253113,320.618195 505.524628,326.188904 509.029144,328.086060 
	C512.352600,329.885162 512.861938,335.033081 510.445740,338.074310 
	C507.633514,341.614014 507.633514,341.614014 509.875000,344.873566 
	C508.805389,347.241241 507.585480,349.465454 506.783203,351.831329 
	C505.639526,355.204132 505.204102,358.561768 502.169220,361.365662 
	C499.230194,364.081024 501.505219,367.460663 503.681824,370.175018 
	C505.412720,372.333557 504.113159,381.219513 501.761688,382.573120 
	C501.268555,382.856964 500.159241,382.070312 499.692657,381.904480 
	C498.561462,385.212067 495.976166,389.006531 496.337311,392.496033 
	C497.098450,399.850861 487.537933,402.307556 490.009766,409.830597 
	C490.473816,409.906769 491.717926,410.110931 492.673676,410.267792 
	C492.105682,419.528870 491.557434,428.467834 491.015747,437.299866 
	C484.714661,440.659546 484.305847,446.004913 489.271027,452.896027 
	C490.386108,454.443695 490.723480,456.740570 490.831085,458.724426 
	C490.869537,459.433472 489.235229,460.365204 488.207336,460.884247 
	C488.010803,460.983521 487.119080,459.583862 486.470764,458.955505 
	C486.069580,458.566650 485.522369,458.328430 485.040710,458.022614 
	C484.626984,459.147186 483.643677,460.422791 483.895111,461.371002 
	C485.195526,466.275574 480.943481,468.026276 478.744598,470.924500 
	C478.711212,470.968475 477.946259,470.457367 477.901093,470.430511 
	C477.077271,472.641388 476.212280,474.962769 475.347290,477.284119 
	C475.676880,477.132111 476.006500,476.980072 476.336090,476.828064 
	C477.878601,482.610992 480.089966,488.333221 480.623047,494.207764 
	C480.826447,496.448700 477.182709,499.038788 476.619568,501.078339 
	C477.191223,502.793671 478.062347,504.477814 478.245331,506.233673 
	C478.408875,507.803040 483.628601,510.240723 477.674835,511.218323 
	C477.494232,511.247986 477.651978,513.338135 477.651978,514.013123 
	C474.099121,516.178955 470.513275,518.263306 467.066681,520.556885 
	C466.424957,520.983948 465.786896,522.599609 466.086761,523.078979 
	C469.883118,529.148926 464.049438,536.072815 467.825256,542.212708 
	C468.266144,542.929626 466.918274,545.194214 465.904846,546.279175 
	C461.835480,550.635620 464.270294,555.662109 464.010925,560.404114 
	C464.478424,560.267334 464.945892,560.130554 465.413361,559.993774 
	C466.275513,561.805725 468.095459,563.785828 467.812622,565.396667 
	C467.086670,569.530884 464.882843,573.026978 459.800598,574.370544 
	C461.959717,576.340942 463.910156,578.120911 465.676178,579.732544 
	C467.774536,588.009949 461.270935,592.180359 457.323151,597.326965 
	C458.238464,598.145935 459.685638,598.817383 459.750122,599.602417 
	C460.098083,603.837891 458.947083,608.632324 460.581726,612.192261 
	C461.960419,615.194702 461.073303,620.058350 465.747437,621.405212 
	C466.095917,621.505615 466.082458,622.862183 466.259247,623.744690 
	C466.989532,622.828674 467.654388,621.994812 468.132660,621.394897 
	C471.477600,624.997375 474.717773,628.487000 477.836853,631.846313 
	C479.550385,629.504456 480.535065,631.606323 481.175507,633.707397 
	C481.575256,635.018921 481.623260,636.531921 481.441589,637.903198 
	C481.197815,639.742798 479.610626,642.186584 480.307281,643.218872 
	C482.241669,646.085083 484.687103,649.704773 487.623444,650.514465 
	C491.183014,651.496033 488.281860,654.997620 490.836731,655.519104 
	C488.781738,659.188477 491.138062,664.032166 487.150696,667.449707 
	C485.341797,669.000000 484.210510,672.296387 484.208984,674.801575 
	C484.205719,680.045654 481.165619,682.326416 476.156921,683.983093 
	C479.439880,686.063477 484.433899,683.034912 484.953583,688.248474 
	C485.260620,691.328857 485.269806,694.438965 485.420959,697.709534 
	C479.534698,698.717712 474.006195,698.955811 469.078461,700.799622 
	C466.510773,701.760376 465.017334,705.563660 463.007385,708.057800 
	C462.190063,709.072083 461.324707,710.053345 460.418365,710.988770 
	C459.241119,712.203735 458.001160,713.357971 457.223907,715.218994 
	C454.509521,715.959412 450.500092,711.016907 448.247894,716.672729 
	C446.914001,720.022461 447.133911,723.978394 445.881012,727.376343 
	C444.624786,730.783142 442.407928,733.835938 440.609314,737.042358 
	C440.078064,737.989380 439.474243,738.901306 439.011108,739.880066 
	C436.211395,745.796753 438.210205,751.135498 443.446075,753.408997 
	C448.494904,755.601318 448.725189,758.419067 448.023682,762.615540 
	C447.862579,763.579407 447.999969,764.593079 447.999969,765.926941 
	C447.025787,765.763062 446.307220,765.642151 445.696808,765.539429 
	C444.948730,767.016174 444.142059,768.668396 443.282135,770.292480 
	C441.897125,772.908264 439.142517,775.352234 442.624084,778.489746 
	C442.860992,778.703125 441.409912,780.789673 440.512787,782.426636 
	C446.117279,786.063049 442.105896,791.620911 441.762909,796.741943 
	C441.656891,798.325317 441.428345,799.945618 440.931610,801.441345 
	C440.617218,802.388000 439.854736,803.467957 439.004791,803.855347 
	C438.439240,804.113159 437.364868,803.254639 435.964539,802.661072 
	C434.734314,811.418945 441.668060,819.436462 439.893219,827.320618 
	C437.937317,828.106445 435.932037,828.282532 435.112732,829.360291 
	C432.730072,832.494446 429.516266,833.034363 426.791809,830.343689 
	C426.154785,829.714539 425.190125,829.417175 424.376221,828.967163 
	C424.432800,829.669067 424.576172,830.376526 424.531494,831.071960 
	C424.291260,834.814941 424.170746,838.579224 423.629242,842.280640 
	C423.472473,843.352417 422.246765,844.709045 421.191589,845.125610 
	C417.973663,846.395813 414.600006,847.271362 411.499695,848.234375 
	C411.393311,849.853210 411.863495,852.117554 411.037018,852.791443 
	C410.092041,853.561768 407.976562,853.057739 406.400146,852.862000 
	C401.461304,852.248840 396.509491,851.668762 391.618896,850.770264 
	C389.366425,850.356445 387.151245,849.417786 385.086853,848.382690 
	C382.431305,847.051208 379.944214,845.383606 376.792542,843.508484 
	C376.065521,842.744934 374.856384,841.037964 373.246429,839.896240 
	C371.297821,838.514160 370.402344,837.401184 371.515015,834.846313 
	C372.258057,833.140076 371.911530,830.945984 371.992432,828.967773 
	C372.134033,825.505798 370.830597,823.732727 367.122894,825.004395 
	C361.969391,826.771851 359.067841,821.125671 354.540314,821.179504 
	C351.605774,821.214417 349.193573,821.032715 348.845764,817.474060 
	C348.735291,816.344116 348.472412,814.639038 349.073456,814.124329 
	C353.333313,810.475830 352.240723,805.814148 352.051300,801.197205 
	C351.893982,797.361755 353.090851,793.234192 352.032959,789.736572 
	C350.902252,785.998291 347.832428,782.846375 345.484741,779.248047 
	C346.482910,779.087280 347.645813,778.899902 347.765717,778.880615 
	C346.594025,776.685852 345.315643,774.371887 344.127808,772.012451 
	C343.809723,771.380615 343.408295,770.165466 343.652313,769.967712 
	C349.218018,765.458801 343.453033,763.651978 341.524170,761.020020 
	C339.892303,758.793396 338.068817,756.707214 336.325348,754.562500 
	C342.278961,751.275818 347.783020,742.834900 346.861755,738.806458 
	C342.521454,740.866211 336.400146,741.862366 334.186798,745.343323 
	C331.841644,749.031616 329.032318,749.374634 326.046234,750.672363 
	C322.594269,752.172607 319.224304,752.579773 315.281738,752.407166 
	C310.033539,752.177490 304.670227,754.008179 299.395905,755.138367 
	C295.687347,755.932983 291.963348,756.806335 288.398712,758.073486 
	C285.614075,759.063293 281.995453,760.044983 280.640167,762.213257 
	C278.107880,766.264587 275.313568,767.321533 271.738922,766.220459 
	C269.434662,767.605835 267.525024,768.753967 265.615387,769.902100 
	C265.529907,769.069641 265.444427,768.237122 265.406860,767.871277 
	C263.259430,767.029297 260.981384,765.327515 258.821838,765.466614 
	C254.958527,765.715393 251.143753,766.987366 247.352310,767.995667 
	C244.422867,768.774658 241.560104,769.804321 238.295044,770.840820 
	C238.322998,770.932068 238.865814,771.722595 238.670242,772.226440 
	C237.497391,775.248108 233.151291,773.577209 231.627289,777.377747 
	C230.823669,779.381836 225.949295,781.140808 223.305923,780.692688 
	C219.405472,780.031311 215.902649,777.197693 212.133301,775.505798 
	C210.605621,774.820068 208.796722,774.301514 207.160294,774.405640 
	C202.699356,774.689819 198.262161,775.346313 193.389587,775.904053 
	C192.733826,778.122803 191.253418,779.407104 188.281540,776.864258 
	C187.278519,776.005981 185.801712,775.701477 184.541443,775.143860 
	C184.360825,776.543823 184.160263,777.941650 184.004196,779.344299 
	C183.760635,781.533447 185.158325,785.180664 181.555237,783.465088 
	C180.312622,785.234314 179.531204,787.535156 178.449905,787.685913 
	C173.057663,788.437927 173.692505,792.788391 174.482407,795.539978 
	C175.671722,799.682922 174.658447,801.504333 170.986618,803.073242 
	C167.656128,804.496338 164.318832,806.183777 161.501129,808.408813 
	C160.082932,809.528748 159.812088,812.101196 159.021439,814.016296 
	C158.400436,815.520386 157.777985,817.023804 157.050537,818.783081 
	C158.049362,820.708618 159.385910,823.285095 160.933640,826.268738 
	C158.967865,827.845398 158.911789,833.089722 153.712906,830.210693 
	C153.486725,830.085510 152.052444,832.141968 150.467529,834.033630 
	C150.467529,831.951660 150.467529,830.970886 150.467529,829.990112 
	C150.143616,829.909912 149.819702,829.829712 149.495773,829.749512 
	C148.131500,832.153442 146.767227,834.557434 145.014008,836.998352 
M349.069580,635.409912 
	C350.486145,634.692017 352.063690,633.161560 353.289886,633.404419 
	C357.397217,634.218140 358.244690,630.672607 358.715424,628.707214 
	C359.380280,625.931335 357.436249,623.525391 354.349487,623.607727 
	C353.969727,617.701111 353.620636,612.271790 353.271576,606.842529 
	C354.014893,603.490906 356.012238,600.085815 357.969482,596.657837 
	C358.105011,596.420410 357.825867,595.965637 357.936554,595.691406 
	C358.712616,593.768738 359.480011,591.837646 360.383057,589.973633 
	C360.721191,589.275696 361.978821,588.377136 361.861786,588.199524 
	C359.181091,584.130676 363.992493,583.255005 365.041504,580.896240 
	C363.185547,577.931213 361.221252,575.187805 359.708374,572.214844 
	C358.914459,570.654724 357.987671,567.945862 358.715912,567.044556 
	C361.430450,563.684814 362.073700,560.432739 360.077271,557.199951 
	C362.143677,556.247192 363.899323,555.437683 366.022919,554.458496 
	C364.870209,554.138428 364.116882,553.929199 363.349854,553.716248 
	C364.893860,550.641357 366.421936,547.598206 367.309662,545.830322 
	C363.715973,540.134216 360.564331,535.138794 357.550629,530.362000 
	C360.615173,528.431274 363.031403,526.908997 366.578613,524.674194 
	C363.600677,524.100403 362.296509,523.849121 360.471863,523.497498 
	C361.277435,522.489624 361.593964,521.674988 362.058350,521.579529 
	C365.467712,520.878662 369.136261,520.524475 365.411682,515.674316 
	C365.089691,515.255066 366.005280,513.712524 366.561279,512.826965 
	C367.813019,510.833466 369.157440,508.893829 370.546051,506.992035 
	C371.540436,505.630219 372.667603,504.365356 373.951508,502.792664 
	C373.320282,501.101562 372.315460,498.409393 371.275635,495.623566 
	C369.704193,494.175964 367.685333,492.316223 365.653046,490.444122 
	C365.155182,490.762482 364.253662,491.533203 363.212158,491.970978 
	C359.003632,493.739899 354.622742,495.163422 350.615204,497.296417 
	C349.714417,497.775848 349.824646,500.612305 349.902985,502.344116 
	C349.980103,504.048981 351.434326,506.121490 350.850159,507.351562 
	C348.372864,512.567932 348.027435,519.004944 341.550110,522.026794 
	C337.034760,524.133301 337.044739,526.816956 339.522034,531.121338 
	C341.087402,533.841187 342.816498,536.841125 339.618469,539.947083 
	C337.038666,542.452698 335.060425,547.293091 332.374268,547.635254 
	C325.715393,548.483276 324.302612,552.350891 322.437714,557.652710 
	C320.714783,562.550842 317.120636,566.649292 318.746582,572.492981 
	C320.978729,580.515442 315.420898,586.396118 307.244354,584.957153 
	C306.001678,584.738403 304.811401,584.221924 303.191925,583.716919 
	C302.540497,587.928894 301.743042,592.112549 301.311981,595.720337 
	C300.621429,601.499756 298.830475,606.111633 296.128082,611.012634 
	C293.607513,615.583923 290.657227,619.226624 286.409485,622.340454 
	C282.201752,625.425049 276.080566,627.299622 276.460968,634.242249 
	C277.819946,635.865906 279.376770,637.725952 280.998627,639.663696 
	C272.220154,643.762207 265.817993,656.066040 268.872131,661.560059 
	C276.000916,657.790649 283.108124,654.032593 290.215302,650.274597 
	C290.425262,650.681885 290.635254,651.089233 290.845215,651.496521 
	C290.963196,650.052490 291.081207,648.608398 291.294434,645.998901 
	C293.085083,647.237244 294.131622,648.138916 295.326202,648.752136 
	C298.302856,650.280029 302.114746,653.574768 304.203400,652.729736 
	C308.507233,650.988586 312.821320,649.924988 317.270935,648.939941 
	C318.612457,648.642883 319.757263,647.457092 321.659393,646.257751 
	C323.609802,646.968018 326.518433,648.027222 330.214783,649.373291 
	C326.348755,642.904968 331.526306,642.254395 333.179688,641.246338 
	C336.198761,641.958618 338.391541,643.231384 339.528717,642.600708 
	C342.768951,640.803711 345.579285,638.231506 349.069580,635.409912 
z"/>

</svg>