<svg version="1.1" id="Layer_1" xmlns="http://www.w3.org/2000/svg" xmlns:xlink="http://www.w3.org/1999/xlink" x="0px" y="0px"
	 width="5rem" viewBox="0 0 1800 1200" enable-background="new 0 0 1800 1200" xml:space="preserve">
<path fill="#FFFFFF" opacity="1.000000" stroke="none" 
	d="
M490.795044,665.445679 
	C491.692261,664.278564 492.377563,662.805603 493.530151,662.006897 
	C496.044769,660.264282 496.619385,659.352051 497.144806,655.989075 
	C497.264618,655.222351 498.613831,654.534058 499.518341,654.024719 
	C502.380066,652.413391 502.528137,650.666199 500.173553,648.510742 
	C499.460449,647.857971 498.787140,646.234619 499.117584,645.546814 
	C500.022858,643.662537 501.431732,640.609741 502.712402,640.574036 
	C506.987213,640.454956 506.281097,637.275146 506.950409,635.021301 
	C507.804749,632.144226 508.344727,629.170227 508.936401,626.221191 
	C509.096619,625.422607 509.296143,624.311157 508.897736,623.771484 
	C505.401917,619.036072 508.049591,616.017273 511.582611,613.054260 
	C512.586243,612.212463 513.574585,611.007080 513.917847,609.785278 
	C515.158875,605.367920 516.215637,600.891602 517.128357,596.394104 
	C517.374451,595.181702 516.865173,593.815979 516.668579,592.249634 
	C518.264954,588.869812 520.633728,585.106323 521.706848,581.004028 
	C522.176025,579.210510 520.481750,576.176575 518.857422,574.731750 
	C517.643127,573.651611 514.961914,574.030518 512.941895,574.080750 
	C505.864136,574.256775 499.799713,573.176453 496.767181,565.345398 
	C496.030731,563.443665 492.547913,562.605347 490.225891,561.217041 
	C490.326996,560.240295 490.467285,558.885010 490.607574,557.529724 
	C490.302368,557.450623 489.997162,557.371521 489.691956,557.292358 
	C489.023499,558.508484 488.355072,559.724609 487.686615,560.940735 
	C487.280365,560.759155 486.874115,560.577637 486.467865,560.396057 
	C488.013855,556.502014 489.559875,552.607910 490.804169,549.473694 
	C489.879272,545.924622 488.996124,542.535767 487.992950,538.686401 
	C492.814392,538.434448 494.389984,536.801575 493.228333,531.958191 
	C492.160522,527.506104 496.736725,524.650513 501.121735,526.247131 
	C501.555481,526.405090 502.331451,526.348083 502.621399,526.060669 
	C504.826660,523.874878 506.955841,521.612061 509.097321,519.362305 
	C510.152069,518.254272 511.765045,515.997192 512.129272,516.185608 
	C514.446350,517.384338 518.687195,515.388489 519.028503,520.016968 
	C519.048157,520.283569 519.370361,520.527954 519.276306,519.336426 
	C521.514343,518.890930 523.827759,517.848083 525.975525,518.118896 
	C531.136047,518.769775 536.316406,519.711548 541.288269,521.204041 
	C543.501160,521.868347 545.201843,524.181702 547.194153,525.667419 
	C547.943604,526.226318 549.075989,527.130432 549.666138,526.906738 
	C553.894409,525.304321 556.038574,528.929749 559.073608,530.316956 
	C559.864441,530.678406 561.136047,530.598694 561.940308,530.210693 
	C564.866699,528.798767 567.688660,527.170349 570.732849,525.524658 
	C573.343933,533.320984 574.580383,533.532288 580.767395,528.066711 
	C582.138000,532.885559 585.330872,530.617004 587.219849,530.111206 
	C591.368713,533.829834 595.048889,537.128418 599.221252,540.868164 
	C597.512817,546.083069 630.031860,558.434265 641.692810,551.879700 
	C642.222839,555.684265 643.020813,559.193970 647.888794,559.563904 
	C648.676147,559.623718 649.183350,562.007141 650.021057,563.172058 
	C650.772888,564.217590 651.728210,565.769226 652.720825,565.872192 
	C656.340088,566.247620 658.533752,567.872925 659.060608,571.248047 
	C661.792114,571.480896 664.317261,571.696167 666.842407,571.911438 
	C667.255249,571.386536 667.668152,570.861694 668.080994,570.336853 
	C667.082397,569.951782 666.083740,569.566711 665.817139,569.463867 
	C667.871887,564.724731 669.721252,559.832092 672.139832,555.239319 
	C672.929443,553.740051 675.087524,552.746582 676.827881,552.022339 
	C678.621765,551.275818 681.463196,552.341797 680.370728,548.315857 
	C680.122742,547.401733 683.508972,545.256165 685.450745,544.042847 
	C689.943298,541.235657 695.428162,539.448364 698.894043,535.737610 
	C701.920898,532.496948 704.886719,531.398071 708.792908,530.500732 
	C710.747314,530.051758 712.235107,527.571289 713.933960,526.009644 
	C713.286011,525.426941 712.638062,524.844360 711.766357,524.060486 
	C713.894775,521.350830 715.834473,518.841675 719.506775,521.876221 
	C722.890991,517.397827 729.792908,515.627808 735.228516,517.586365 
	C737.764221,518.500000 740.486572,518.895752 743.028931,519.503479 
	C744.951111,514.778381 748.183472,513.831665 752.457031,515.868713 
	C753.410217,516.323059 754.882874,515.619202 756.121826,515.558167 
	C758.035522,515.463745 760.660889,514.639099 761.745544,515.569092 
	C766.019714,519.233765 768.958374,517.271912 772.298706,513.176697 
	C774.057434,519.348999 778.109680,521.913879 783.596619,523.201599 
	C785.336182,523.609863 786.630615,526.240906 787.961914,527.982239 
	C789.736389,530.303162 791.107239,532.985962 793.131470,535.040222 
	C794.138611,536.062378 797.036621,535.552185 797.633545,536.577148 
	C798.794495,538.570679 798.936218,541.157837 799.457214,543.320862 
	C800.998352,544.291992 802.582397,545.290100 804.370056,546.416504 
	C801.479431,549.518616 801.274658,552.294739 801.547668,556.381653 
	C801.947815,562.372742 806.876831,566.019165 807.024475,571.629395 
	C807.115662,575.093262 806.802368,577.948975 802.277527,578.124268 
	C801.350403,578.160217 800.476196,579.558899 799.493713,580.401367 
	C800.540161,582.309937 801.980103,584.260803 802.721130,586.448486 
	C803.786865,589.594849 802.956421,592.438232 800.057556,594.427734 
	C798.856323,595.252197 797.762695,596.352417 796.440735,596.861084 
	C791.147217,598.897888 786.787964,601.301880 789.625549,608.241943 
	C789.882751,608.870911 789.128967,610.614502 788.551758,610.772827 
	C783.806763,612.074402 783.785706,616.344849 782.192627,619.811096 
	C781.310730,621.729858 778.964417,623.109314 777.046265,624.382385 
	C774.925964,625.789368 772.540588,626.796875 769.492249,628.383606 
	C771.003174,628.818176 771.770996,629.039001 772.540039,629.260132 
	C767.336487,631.242737 762.176880,633.208557 757.017273,635.174377 
	C756.732788,634.817017 756.448303,634.459656 756.163879,634.102295 
	C755.657593,635.929443 755.151306,637.756592 754.497131,640.117432 
	C753.662903,640.117432 751.853516,640.117432 750.044128,640.117432 
	C750.004517,640.696106 749.964905,641.274841 749.925232,641.853516 
	C751.317871,642.039429 752.705444,642.313232 754.104126,642.394043 
	C757.721558,642.603210 761.520020,642.107361 764.911560,643.070862 
	C767.926758,643.927429 770.353027,645.915649 772.622253,642.039551 
	C772.994812,641.403320 774.582153,641.374756 775.629639,641.255127 
	C779.918701,640.765381 784.216187,640.349060 787.603821,639.999329 
	C786.997620,635.415649 786.322205,631.727722 786.166626,628.018005 
	C786.132690,627.208496 787.888367,625.705139 788.937439,625.589600 
	C791.645325,625.291382 794.000061,625.368774 794.161438,621.557373 
	C794.208862,620.437927 796.142578,619.379639 797.244263,618.327209 
	C800.360596,615.350403 803.592346,612.440979 802.875610,607.333069 
	C802.074341,608.298096 801.393921,609.117615 800.713440,609.937073 
	C800.432495,609.092346 800.116333,608.257385 799.877319,607.401001 
	C799.161560,604.836548 798.475952,602.263733 797.635071,599.165039 
	C799.960022,599.891907 801.673645,600.427612 803.188477,600.901184 
	C804.207947,595.804504 803.987305,590.366516 808.449768,587.623108 
	C807.045410,584.975525 805.830322,582.684753 804.273865,579.750488 
	C805.806091,580.089600 807.095825,580.375061 808.740723,580.739136 
	C806.376709,575.775574 817.218262,576.489929 813.086365,570.413025 
	C810.954163,567.277283 808.783264,564.167786 805.638123,559.609009 
	C807.342041,557.506042 810.348938,554.047668 813.049622,550.364685 
	C814.607910,548.239746 818.889343,547.229492 816.427490,543.138733 
	C816.296326,542.920837 816.730286,542.034607 817.065674,541.912842 
	C823.381897,539.620300 824.950256,529.763123 833.929199,531.502808 
	C836.086548,531.920776 838.555054,530.999939 840.825562,530.462585 
	C842.105957,530.159546 843.274292,529.382996 844.909241,528.627380 
	C847.256287,529.552917 850.277649,530.744385 853.299072,531.935852 
	C852.926880,532.149536 852.554626,532.363281 852.182434,532.576965 
	C852.230652,532.750305 852.278870,532.923584 852.327087,533.096863 
	C856.016968,532.355408 859.893616,532.067444 863.309143,530.660156 
	C864.775452,530.056030 865.236755,527.101379 866.237061,525.259521 
	C868.402405,521.272522 871.604553,520.122803 874.368042,523.214111 
	C877.486206,526.702087 879.670593,524.150574 881.529541,522.723022 
	C884.888733,520.143311 886.872742,515.315186 892.668457,517.781311 
	C893.482910,518.127869 895.478455,515.698853 897.258972,515.268372 
	C899.099670,514.371460 902.089294,513.884521 902.581116,512.506287 
	C904.656555,506.690155 908.534241,507.851593 912.782715,508.930603 
	C916.164001,509.789307 919.606262,512.940430 923.336426,508.207733 
	C923.795044,510.160767 924.082336,511.384186 924.337280,512.469971 
	C924.949707,511.505035 925.602844,509.732025 926.149658,509.764191 
	C927.417114,509.838837 928.632935,510.786591 929.870178,511.379303 
	C930.999023,511.920105 932.096375,512.550537 933.269592,512.966797 
	C934.022766,513.234009 935.322998,512.879333 935.635986,513.324768 
	C938.730530,517.728943 943.151306,516.841553 947.610413,517.499207 
	C950.094055,517.865601 954.279114,524.128052 953.507019,526.049500 
	C950.531067,533.455261 956.256897,536.016113 959.506897,540.059692 
	C960.502319,541.298157 961.617004,542.440674 962.808594,543.774292 
	C962.994263,542.849854 963.207336,541.884888 963.379700,540.912659 
	C963.968994,537.587219 965.094788,535.304932 969.217163,534.841003 
	C973.236816,534.388550 978.250732,533.726257 980.749878,531.144409 
	C983.732910,528.062561 986.108459,529.131348 988.246155,530.268982 
	C991.250671,531.867981 993.806580,532.052734 996.824646,530.807861 
	C997.460327,530.545654 998.533813,531.458740 999.438110,531.715759 
	C1006.414429,533.698914 1012.247253,536.976624 1015.074951,544.257812 
	C1015.814453,546.161987 1017.294373,548.020020 1018.913818,549.285706 
	C1021.469910,551.283508 1022.147705,553.786011 1021.752502,556.648926 
	C1021.459839,558.769348 1020.059753,560.842468 1020.156555,562.889221 
	C1020.360168,567.197327 1023.641785,560.781677 1024.498413,563.903687 
	C1026.974609,561.540405 1030.849731,560.217041 1030.341553,555.635559 
	C1030.269043,554.981079 1031.279785,553.834656 1032.039307,553.520325 
	C1036.755737,551.568481 1037.126343,547.235046 1038.087280,543.140442 
	C1038.368652,541.941956 1039.156738,540.862061 1039.714355,539.728760 
	C1040.321533,538.494812 1040.930908,537.261963 1040.992676,535.696594 
	C1043.936157,533.946106 1048.973267,538.630371 1050.697266,532.629578 
	C1050.911499,530.794250 1051.093872,528.954468 1051.351807,527.125305 
	C1051.507080,526.025085 1051.930664,524.947510 1051.975586,523.849243 
	C1052.261230,516.855774 1054.434326,515.618958 1061.491943,519.350769 
	C1062.839600,516.870483 1064.184692,514.395142 1065.529663,511.919800 
	C1065.297974,511.842560 1065.066284,511.765289 1064.834473,511.688049 
	C1066.955200,509.355469 1069.075928,507.022858 1071.310547,504.564911 
	C1065.136841,500.428802 1059.191895,501.371765 1053.278931,503.401245 
	C1052.427734,503.693359 1052.132568,505.334412 1051.292480,505.972809 
	C1044.721924,510.965515 1044.937500,503.297485 1043.082275,501.667419 
	C1040.052979,501.880585 1037.711548,502.542542 1035.626709,502.070618 
	C1032.795776,501.429840 1033.292114,501.037811 1033.137207,497.836792 
	C1033.041870,495.865997 1031.621460,493.864868 1030.504395,492.057617 
	C1028.204346,488.336517 1028.483154,485.133514 1031.680298,482.747375 
	C1030.828125,479.178772 1030.058350,475.955597 1029.120605,472.028900 
	C1029.531006,472.071533 1028.461914,471.960480 1027.345459,471.844513 
	C1027.345459,468.669769 1027.345459,465.551086 1027.345459,462.428040 
	C1033.747803,462.313202 1035.572754,458.986542 1032.987305,451.496185 
	C1034.201294,450.620209 1035.479736,449.697754 1036.844727,448.712860 
	C1036.266968,448.177521 1035.800293,447.745178 1034.292969,446.348785 
	C1038.322876,447.208099 1041.083252,447.796722 1043.908569,448.399170 
	C1045.453125,447.646942 1047.390869,446.703186 1049.754272,445.552063 
	C1049.809204,445.712219 1049.567383,445.005920 1049.352173,444.377319 
	C1051.514893,444.583099 1053.709717,444.809326 1055.907837,444.997253 
	C1059.750610,445.325867 1063.604370,445.551575 1067.434692,445.986755 
	C1068.874390,446.150360 1070.261230,446.777344 1071.672241,447.193024 
	C1071.540039,447.599182 1071.407959,448.005310 1071.275757,448.411438 
	C1074.635254,448.411438 1077.994629,448.411438 1081.878052,448.411438 
	C1083.157959,455.474670 1085.842529,463.044647 1085.318481,470.385529 
	C1085.047363,474.183594 1086.678467,478.085693 1085.125000,481.830688 
	C1084.826660,482.550079 1084.899414,483.945129 1085.384399,484.384338 
	C1088.955811,487.619141 1085.286987,487.910034 1083.604736,488.989471 
	C1082.408203,489.757202 1081.175415,490.468445 1079.709595,491.355804 
	C1081.790283,494.844879 1082.615479,499.749329 1088.065063,495.128143 
	C1088.770020,494.530304 1090.662354,495.332550 1091.987305,495.484283 
	C1094.780518,487.958344 1094.780518,487.958374 1103.934937,490.475952 
	C1109.746704,492.074280 1113.453857,490.227203 1114.709961,484.399872 
	C1125.553711,487.943542 1136.325317,491.463623 1147.260742,495.037231 
	C1146.273193,498.233276 1146.078125,500.241577 1150.018433,500.793976 
	C1152.077271,501.082550 1154.209229,502.998260 1152.390869,506.270569 
	C1150.644409,509.413452 1150.460327,512.157715 1154.648071,514.533875 
	C1157.662354,516.244141 1160.408081,519.300293 1161.478638,523.072266 
	C1161.687622,523.808594 1161.207886,524.740417 1161.000488,525.817627 
	C1161.372925,525.878113 1162.433716,526.050476 1163.923828,526.292542 
	C1162.528442,528.247314 1161.262451,530.020935 1159.790527,532.083008 
	C1160.334595,532.957275 1160.023926,532.709595 1158.357788,534.395264 
	C1157.113892,535.653809 1155.895264,537.934937 1156.160767,539.508423 
	C1157.125244,545.227844 1158.718750,550.841187 1160.091675,556.563171 
	C1157.348877,558.072632 1152.821167,559.229431 1150.607422,562.143860 
	C1148.211182,565.298584 1146.088989,569.625793 1147.866333,574.445618 
	C1148.370728,575.813538 1147.739136,578.055176 1146.856445,579.382874 
	C1145.132202,581.976929 1142.894897,584.237732 1140.776123,586.550476 
	C1140.544800,586.803162 1139.698853,586.492981 1139.136353,586.443665 
	C1139.953247,588.123962 1140.778809,589.822449 1141.684448,591.685486 
	C1142.273682,588.321594 1144.098022,586.414673 1147.844971,585.868591 
	C1151.818848,585.289429 1159.395020,578.630615 1162.565186,575.238525 
	C1164.279175,573.404663 1167.806152,573.277283 1169.552002,571.456360 
	C1170.467041,570.502014 1168.352783,566.755615 1169.268311,565.666321 
	C1171.459595,563.058777 1174.634521,561.277954 1177.982788,558.729126 
	C1178.152588,552.476807 1176.405762,545.044495 1180.179199,538.306213 
	C1178.376587,535.985229 1179.362671,532.986938 1181.642578,532.176819 
	C1185.924805,530.655212 1185.116455,526.586426 1186.867188,523.902588 
	C1188.659546,521.154785 1189.833740,519.034607 1192.352173,521.593506 
	C1196.197144,517.654419 1199.758667,513.825989 1203.582886,510.281097 
	C1204.158203,509.747803 1206.254639,510.135986 1207.147583,510.785309 
	C1211.909790,514.248169 1216.805176,516.691833 1222.942261,517.331421 
	C1225.710449,517.619934 1226.846558,516.808960 1228.101318,515.330933 
	C1230.730103,512.234680 1233.455688,511.106995 1237.600220,512.675293 
	C1240.175293,513.649597 1243.353271,512.903076 1246.149902,513.472351 
	C1247.560059,513.759399 1249.289795,514.985107 1249.897461,516.254456 
	C1252.074341,520.800171 1253.833374,525.546021 1255.520264,530.701660 
	C1255.246826,532.021301 1255.203735,532.855469 1255.105103,534.765808 
	C1255.931763,533.096680 1256.260864,532.432007 1256.590088,531.767273 
	C1257.720581,529.845093 1259.247559,528.043823 1259.880493,525.969727 
	C1260.657227,523.424683 1261.796997,522.831421 1264.441650,522.598572 
	C1266.078613,522.454468 1267.778442,520.032349 1268.949341,518.295349 
	C1270.678223,515.730591 1271.680786,515.619324 1275.294434,516.054260 
	C1281.783569,516.835144 1282.934937,524.103333 1288.801392,524.577698 
	C1288.001587,524.850464 1287.201782,525.123291 1285.535400,525.691711 
	C1287.497559,525.928406 1288.549316,526.055237 1289.631470,526.185791 
	C1289.971680,530.224121 1291.202881,534.455811 1290.395508,538.254089 
	C1289.628540,541.863037 1291.637085,542.960632 1293.364258,544.764526 
	C1294.547729,546.000610 1295.754883,547.214111 1296.930664,548.457581 
	C1298.807373,550.442444 1298.131592,551.616150 1296.013062,553.095032 
	C1294.622803,554.065552 1293.081665,556.175171 1293.179688,557.671570 
	C1293.487915,562.370361 1293.368286,566.234924 1288.761475,569.341064 
	C1287.293701,570.330750 1287.883057,574.389832 1287.556641,577.047424 
	C1287.330811,578.886902 1287.124634,580.729614 1286.960693,582.575317 
	C1286.904297,583.210083 1286.848022,584.348572 1287.057129,584.414429 
	C1287.887451,584.675964 1289.068970,584.964172 1289.655151,584.562866 
	C1290.347046,584.089111 1291.013062,582.849609 1290.902588,582.051208 
	C1290.256592,577.384155 1292.910645,575.190491 1296.979980,573.867188 
	C1295.900513,573.046082 1295.047363,572.397095 1294.507324,571.986389 
	C1297.853149,566.625366 1301.098999,561.334839 1304.438599,556.104187 
	C1306.716675,552.536255 1310.297729,553.783691 1312.965088,554.020386 
	C1313.066650,548.641418 1322.460083,547.971497 1318.492310,541.361328 
	C1323.567505,539.342834 1328.215942,537.822754 1332.497681,535.597351 
	C1333.837646,534.900940 1335.093628,532.150635 1334.832397,530.603088 
	C1333.864868,524.872864 1337.733765,526.041992 1340.737427,526.075745 
	C1341.924438,526.089050 1343.104126,526.768311 1344.217163,527.122131 
	C1344.575317,526.612793 1344.817017,526.395447 1344.902710,526.128174 
	C1346.238403,521.964722 1346.971680,517.460449 1349.099365,513.755798 
	C1350.315430,511.638336 1353.579590,510.826782 1356.280396,513.633728 
	C1358.405762,515.842651 1358.622803,515.535767 1360.489502,512.953369 
	C1360.880127,512.413086 1361.889648,512.014160 1362.586426,512.052429 
	C1366.298462,512.256348 1370.001831,512.619934 1374.743896,513.014404 
	C1373.361328,511.483063 1372.651489,510.696838 1371.958130,509.928894 
	C1373.297607,509.093994 1374.467163,508.365082 1375.636597,507.636169 
	C1375.505371,507.283478 1375.374023,506.930786 1375.242676,506.578094 
	C1378.740112,506.049286 1382.242554,505.549835 1385.730225,504.963196 
	C1386.324219,504.863281 1387.281616,504.466309 1387.351929,504.076813 
	C1388.464233,497.912079 1392.780762,501.007660 1396.011353,501.036377 
	C1396.218750,501.038208 1396.423462,501.346924 1396.629395,501.512878 
	C1396.758423,501.049866 1396.768555,500.499207 1397.035156,500.137756 
	C1399.004639,497.467743 1401.745483,497.684814 1403.002686,500.569794 
	C1404.868042,504.850677 1406.033569,510.171387 1412.859131,507.194855 
	C1412.966675,507.147980 1413.917480,508.787628 1414.317383,509.708557 
	C1415.262207,511.883698 1416.652954,514.042786 1416.893555,516.311218 
	C1417.495728,521.990662 1417.559204,527.727295 1417.824341,533.145935 
	C1415.576782,534.081970 1413.243408,534.853455 1411.131592,536.024536 
	C1410.191162,536.546143 1409.072510,537.896790 1409.109009,538.828979 
	C1409.260620,542.697571 1406.810791,542.842773 1404.033936,543.020630 
	C1402.171021,543.139893 1400.241577,543.371887 1398.497803,543.992126 
	C1392.019653,546.296265 1388.314331,550.709961 1387.804688,557.840942 
	C1387.723389,558.978882 1385.191528,560.978943 1384.016846,560.828552 
	C1377.661499,560.014709 1374.829712,565.386719 1370.637939,568.169983 
	C1369.567871,568.880371 1370.004395,571.859924 1369.263916,574.299866 
	C1368.647339,575.138184 1368.515625,575.473511 1368.384033,575.808838 
	C1368.947510,575.565857 1369.511230,575.322876 1370.074829,575.079834 
	C1370.773193,576.059448 1371.471558,577.039124 1371.433960,576.986389 
	C1369.384277,579.148987 1367.666382,580.910767 1366.005981,582.725037 
	C1363.651123,585.298157 1361.483521,588.062439 1358.964600,590.459961 
	C1356.711060,592.604858 1354.090088,594.363708 1351.754150,596.196655 
	C1355.336548,603.817261 1354.896606,605.423584 1348.855103,607.753113 
	C1349.344360,609.416565 1349.838257,611.096130 1350.339355,612.799866 
	C1354.974243,609.875549 1358.049438,610.367249 1360.949585,614.917603 
	C1364.393555,620.321350 1367.038818,614.802551 1369.888428,614.226746 
	C1371.579956,613.884827 1372.674438,611.233276 1374.394287,610.236145 
	C1377.016724,608.715698 1379.948364,607.728638 1381.986450,606.845398 
	C1382.336060,607.747070 1382.661499,608.586548 1382.986938,609.426025 
	C1383.666016,608.854980 1384.345093,608.283875 1385.024170,607.712830 
	C1384.483643,606.314941 1383.943115,604.917053 1383.311523,603.283508 
	C1384.085571,603.283508 1384.960938,603.283508 1386.322388,603.769775 
	C1386.971558,604.797241 1387.134399,605.338440 1387.297241,605.879639 
	C1387.589478,605.775818 1387.881836,605.672058 1388.174194,605.568237 
	C1387.809448,604.687195 1387.444580,603.806213 1387.079834,602.925171 
	C1387.755005,599.583679 1390.053101,602.195190 1390.626831,602.476013 
	C1392.440674,603.363647 1402.445923,603.890930 1402.806519,602.351318 
	C1403.857178,597.865356 1407.394043,601.442749 1409.530884,600.030396 
	C1410.782227,599.203430 1412.933838,598.276672 1414.016113,597.999207 
	C1419.082397,596.700378 1420.979736,589.481445 1426.741699,590.872131 
	C1433.096680,592.406006 1438.769287,590.333984 1444.710693,589.214050 
	C1445.617920,589.042969 1446.824707,590.460754 1448.279541,591.390808 
	C1452.943115,586.515808 1447.078857,580.994629 1448.129883,575.641968 
	C1457.031494,573.522461 1462.599976,567.226807 1467.609619,560.028687 
	C1469.524170,557.277771 1472.321411,555.141357 1474.715820,552.724243 
	C1476.391357,551.032837 1477.938110,549.181274 1479.783203,547.701233 
	C1481.120483,546.628479 1482.852051,546.047363 1483.601196,544.914429 
	C1485.729004,541.973083 1487.593994,538.778748 1490.086548,536.188293 
	C1491.508423,534.710510 1494.083374,534.416992 1495.907227,533.233154 
	C1498.485718,531.559570 1499.330322,528.546021 1500.901733,526.193481 
	C1502.824585,523.315125 1507.354614,522.173340 1510.780029,520.322754 
	C1510.912476,520.251282 1511.281372,520.617493 1511.540039,520.779846 
	C1515.013428,514.403015 1525.484863,516.859741 1527.253784,508.331299 
	C1535.480469,505.324738 1542.584106,499.172974 1552.171387,499.906342 
	C1555.538940,500.163940 1559.060425,498.758667 1562.383179,499.164246 
	C1566.275391,499.639374 1570.078247,501.116699 1573.826416,502.426727 
	C1577.655518,503.765076 1581.231812,505.488922 1581.273804,510.521912 
	C1581.278198,511.055389 1582.823975,511.496857 1583.521484,512.128174 
	C1584.101807,512.653503 1585.032104,513.751648 1584.877441,513.988342 
	C1581.659302,518.913391 1583.209961,524.123718 1583.973999,529.206604 
	C1585.057251,536.413452 1580.709717,541.991211 1579.138672,548.232727 
	C1577.901611,553.147522 1575.803101,557.337585 1574.015137,561.833435 
	C1572.621704,565.336975 1572.323242,570.059998 1569.803955,572.120728 
	C1567.048462,574.374573 1564.316650,576.285950 1562.022217,579.239624 
	C1558.488525,583.788818 1554.295166,587.907776 1549.948120,591.713867 
	C1547.046509,594.254456 1543.387817,595.928528 1540.075439,598.002319 
	C1538.601318,598.925171 1536.220459,599.599304 1535.839966,600.864197 
	C1534.074829,606.731934 1530.009644,607.799683 1524.995728,606.896179 
	C1523.570557,609.448792 1522.278076,611.763489 1520.480469,614.983093 
	C1520.116699,613.061096 1519.971802,612.295959 1519.786133,611.314819 
	C1517.533081,611.736938 1515.269653,612.161011 1513.006104,612.585083 
	C1514.083740,613.743286 1515.161377,614.901550 1516.704590,616.560181 
	C1516.014404,616.873352 1514.742554,617.976013 1513.538208,617.906799 
	C1508.045532,617.591492 1502.535034,617.174500 1497.111084,616.297974 
	C1495.197388,615.988770 1493.481934,614.312927 1491.735107,613.170349 
	C1490.855103,612.594788 1486.094971,603.601624 1485.697510,602.197083 
	C1485.575073,601.763916 1485.209229,601.399597 1485.039307,601.135071 
	C1488.995605,596.571472 1492.836670,592.140808 1496.809326,587.558289 
	C1496.831055,587.394470 1496.702026,585.686462 1497.133057,585.531067 
	C1501.166382,584.076111 1504.088745,581.403625 1506.500122,577.970764 
	C1506.906738,577.391968 1507.912842,577.008972 1508.675903,576.946045 
	C1511.449341,576.717346 1512.641235,573.641663 1510.954224,570.402405 
	C1515.198364,566.754578 1522.964600,566.266357 1522.277466,559.730408 
	C1526.258911,557.495422 1529.665161,556.121826 1532.355225,553.886414 
	C1534.185547,552.365479 1533.064697,547.696106 1537.650635,548.806763 
	C1537.263916,547.332092 1536.877197,545.857361 1536.437866,544.182312 
	C1537.432617,544.182312 1538.540894,544.377563 1539.543701,544.135925 
	C1540.999512,543.785156 1543.560059,543.199585 1543.602905,542.574280 
	C1543.921631,537.911865 1545.925293,535.247620 1550.751831,534.934875 
	C1551.183472,534.906921 1551.743652,534.268250 1551.951172,533.786926 
	C1553.572510,530.026001 1555.122070,526.234131 1556.830688,522.122864 
	C1544.333130,520.792725 1535.286499,528.047668 1526.123413,534.699158 
	C1523.325195,536.730408 1521.250366,539.758362 1519.437866,542.869385 
	C1511.432129,544.618042 1507.743286,551.879028 1503.123535,557.632141 
	C1498.149414,563.826355 1494.167358,570.817139 1490.362427,577.842224 
	C1487.953247,579.519775 1484.686279,580.564819 1486.453369,585.103882 
	C1486.741699,585.844421 1485.943726,587.832336 1485.415894,587.925232 
	C1482.953003,588.358643 1482.159790,591.123352 1480.406616,591.674988 
	C1476.190796,593.001404 1477.033569,595.310974 1477.877075,598.362732 
	C1478.285156,599.839844 1477.626221,603.052612 1477.144165,603.114990 
	C1471.469604,603.849731 1472.298584,609.512756 1469.727661,612.505920 
	C1467.824951,614.720947 1466.209473,617.300476 1469.858154,619.686035 
	C1470.064087,619.820801 1469.332153,621.390198 1469.318359,621.432190 
	C1472.083252,625.170166 1474.510498,628.451843 1475.935425,630.378296 
	C1480.075562,631.038879 1482.725220,631.652649 1485.404541,631.840332 
	C1488.663940,632.068665 1492.062134,632.461792 1495.183716,631.785034 
	C1497.388428,631.307007 1497.227661,630.565552 1499.511841,632.756836 
	C1501.445435,627.211731 1505.499268,630.553223 1508.851196,630.328674 
	C1511.057983,630.180786 1514.704468,629.908936 1515.123779,628.754639 
	C1516.375244,625.308594 1518.806030,627.041504 1520.260254,627.226501 
	C1523.018555,627.577454 1525.617920,629.037720 1528.359619,629.739441 
	C1529.265747,629.971436 1530.569092,629.533142 1531.409912,628.976807 
	C1534.096924,627.199158 1536.593628,625.131226 1539.302368,623.391174 
	C1539.922852,622.992676 1541.261841,623.169617 1541.987305,623.580811 
	C1544.054321,624.752258 1545.975464,626.180908 1548.478882,627.860474 
	C1548.833496,625.762146 1549.038452,624.549805 1549.297119,623.019897 
	C1551.509644,623.130859 1553.683716,623.440918 1555.827026,623.295410 
	C1558.379272,623.122253 1561.174072,623.111572 1563.381714,622.038635 
	C1567.050781,620.255554 1570.282837,622.287842 1573.704224,622.307922 
	C1574.610840,622.313232 1575.955566,623.139282 1576.355469,622.774170 
	C1582.538208,617.128601 1591.373535,622.883667 1597.456909,617.113525 
	C1599.052856,615.497009 1599.560303,611.207275 1603.764160,614.932373 
	C1603.912354,615.063599 1604.402344,614.916382 1604.676270,614.782654 
	C1609.469116,612.441833 1614.206787,609.981445 1619.057007,607.767273 
	C1621.797363,606.516235 1624.719727,605.663635 1627.560059,604.631592 
	C1627.920288,605.133423 1628.280518,605.635193 1628.640625,606.137024 
	C1626.163696,609.063171 1623.686768,611.989319 1621.209961,614.915466 
	C1621.568726,615.224487 1621.927612,615.533569 1622.286377,615.842590 
	C1623.465454,614.904236 1624.577026,613.333984 1625.841919,613.198914 
	C1627.201904,613.053772 1628.705688,614.255310 1630.121826,614.858582 
	C1631.412720,614.129517 1632.748047,613.375366 1634.651489,612.300415 
	C1634.883179,614.971741 1635.048340,616.875366 1635.219971,618.854309 
	C1640.130005,617.147949 1641.434326,620.490417 1642.439331,624.014221 
	C1643.296021,627.017151 1645.006104,626.984375 1648.153564,626.650574 
	C1652.717896,626.166382 1657.433960,627.112610 1662.037476,628.131409 
	C1664.836060,625.772400 1667.406494,627.037781 1669.935669,629.422852 
	C1674.469238,633.697998 1679.512085,632.481079 1684.672729,630.895813 
	C1685.831299,630.539856 1687.312378,630.694763 1688.497437,631.074646 
	C1691.042480,631.890625 1693.428711,633.240723 1695.998901,633.926880 
	C1698.152954,634.501892 1700.475586,634.445068 1702.763916,634.671936 
	C1704.290161,632.353516 1706.338745,629.232788 1708.396362,626.118103 
	C1710.470825,622.977600 1712.493164,623.835266 1714.871094,625.934143 
	C1716.902222,627.727051 1719.307495,629.096130 1722.055786,631.006104 
	C1722.795654,629.063416 1723.200073,628.001831 1723.709229,626.664978 
	C1727.159912,628.547302 1729.226074,628.513977 1731.408081,624.555237 
	C1732.862671,621.916016 1736.909546,619.834045 1740.107422,619.271301 
	C1743.331299,618.703857 1744.913452,616.964722 1744.744141,614.761108 
	C1744.590942,612.767090 1742.493408,610.838501 1741.029541,609.065613 
	C1740.320923,608.207458 1739.100098,607.772400 1738.353271,607.299194 
	C1736.536987,606.408081 1734.996094,605.436951 1733.316040,604.908081 
	C1732.299805,604.588196 1730.845215,604.570801 1729.971069,605.078125 
	C1726.140015,607.301636 1723.899902,606.690308 1721.650269,602.481506 
	C1718.686768,602.965454 1715.723999,603.453674 1712.461792,603.991150 
	C1711.494263,601.770386 1713.169067,596.485718 1707.054810,599.374390 
	C1705.457764,600.128845 1701.776367,597.638489 1700.975952,594.128052 
	C1699.755981,588.778259 1696.952271,588.020203 1691.768066,590.347107 
	C1689.932983,591.170654 1687.236938,590.361633 1685.008789,589.920227 
	C1683.607544,589.642639 1682.407471,588.312744 1681.009155,588.065247 
	C1676.988403,587.353577 1672.854248,586.323669 1668.882935,586.692017 
	C1666.876831,586.878113 1665.125977,589.815674 1662.740234,591.980408 
	C1655.746582,584.839111 1646.718018,585.258362 1637.354492,587.173889 
	C1636.248169,587.400208 1634.938599,586.549622 1633.707764,586.265076 
	C1630.347168,585.488403 1627.005981,584.562500 1623.603760,584.050964 
	C1620.876465,583.640991 1617.181152,584.813599 1615.493530,583.399963 
	C1612.395874,580.805237 1610.496826,576.796021 1608.019409,573.434387 
	C1607.294434,572.450562 1606.026367,571.801208 1605.501221,570.751465 
	C1604.745850,569.241577 1604.588501,567.152283 1602.528687,569.751160 
	C1602.425537,569.881409 1601.522339,569.438721 1601.029419,569.188599 
	C1598.565186,567.938721 1596.113647,566.663879 1593.644775,565.391174 
	C1594.107544,565.021606 1594.888916,564.397644 1595.670288,563.773682 
	C1592.812378,560.921265 1596.815918,558.163147 1596.297485,556.605164 
	C1594.972290,552.622803 1598.061523,550.956177 1598.852661,548.208496 
	C1599.726318,545.174744 1599.619507,541.857117 1599.924316,538.661621 
	C1600.169922,536.085693 1599.561646,532.924194 1600.850342,531.087769 
	C1602.255249,529.085693 1605.327515,527.438660 1607.820190,527.204224 
	C1611.632690,526.845764 1613.729004,524.419617 1614.123413,521.773621 
	C1614.768066,517.448975 1617.123901,516.744019 1619.792114,516.937195 
	C1621.782715,512.416077 1623.558228,508.383514 1624.657593,505.886566 
	C1628.518188,503.481598 1631.206665,501.806854 1634.870605,499.524445 
	C1637.166016,500.086884 1640.948975,501.013824 1645.016968,502.010620 
	C1644.554077,497.394470 1645.520508,494.719330 1650.728882,495.898865 
	C1653.057861,496.426331 1655.695923,496.386292 1658.030518,495.868408 
	C1660.422852,495.337769 1663.486450,495.258820 1664.050659,491.654694 
	C1664.391479,489.477020 1665.617920,489.020447 1668.152954,488.641449 
	C1672.725708,487.957825 1677.017944,485.480133 1681.473145,483.879547 
	C1682.902222,483.366119 1684.494141,483.325073 1685.976685,482.935181 
	C1686.892456,482.694366 1688.309204,482.409210 1688.533691,481.792114 
	C1690.574951,476.179413 1696.115479,477.760040 1699.961304,475.897308 
	C1701.823608,474.995148 1703.955933,473.284821 1704.583740,471.463898 
	C1706.246826,466.639862 1709.847778,469.244934 1712.313354,469.329651 
	C1715.184937,469.428375 1717.955444,471.266754 1720.866089,471.923126 
	C1722.355957,472.259094 1724.055908,471.663330 1726.200439,471.429962 
	C1727.362793,472.455017 1729.433716,474.281158 1731.504639,476.107269 
	C1731.895508,475.698242 1732.286377,475.289185 1732.677124,474.880157 
	C1733.158813,478.055664 1732.238525,482.409332 1738.818359,480.685913 
	C1737.734253,485.470245 1736.884644,489.348694 1735.969238,493.211548 
	C1735.419312,495.532196 1733.178467,498.019440 1737.045410,499.744476 
	C1737.511597,499.952423 1737.729614,502.327057 1737.204224,502.876038 
	C1734.566772,505.632111 1731.547607,508.020233 1728.864014,510.736603 
	C1727.659058,511.956116 1726.997559,513.694153 1725.958252,515.099915 
	C1724.451904,517.137207 1724.402100,521.261780 1719.840088,519.207153 
	C1719.238770,518.936279 1717.177979,521.035278 1716.322144,522.374756 
	C1714.325439,525.500061 1712.307861,525.855164 1709.818726,523.066467 
	C1705.640015,527.710449 1701.485840,532.327271 1697.068359,537.236755 
	C1698.802734,539.194153 1700.244507,541.340698 1704.288818,540.506592 
	C1708.728638,539.590942 1713.485840,539.821167 1718.058228,540.166321 
	C1719.548828,540.278809 1720.894043,542.319397 1722.383057,543.541443 
	C1727.662720,541.406067 1732.577881,543.272156 1736.193604,548.004761 
	C1737.255493,549.394836 1740.162964,549.889343 1742.226685,549.894409 
	C1746.737671,549.905579 1749.885254,550.824890 1749.452148,556.287537 
	C1749.411255,556.803894 1750.552734,557.835327 1751.234131,557.920898 
	C1756.521484,558.584412 1760.410156,561.723938 1764.416260,564.825989 
	C1766.375122,566.342651 1768.775513,567.288025 1770.972534,568.498352 
	C1774.982788,570.707458 1779.656982,570.736511 1783.841797,572.388550 
	C1781.138672,578.055725 1786.004883,587.509888 1791.276123,587.122253 
	C1792.408325,589.737305 1793.522827,592.311340 1794.204834,595.347168 
	C1793.889038,596.412781 1794.005493,597.016602 1794.122070,597.620422 
	C1794.440552,597.106018 1794.759033,596.591553 1795.077515,596.077148 
	C1795.744141,596.867798 1796.480225,597.610657 1797.062378,598.459229 
	C1798.213013,600.136414 1799.278442,601.872070 1800.689453,603.291748 
	C1801.000000,613.020874 1801.000000,623.041809 1801.000000,633.531372 
	C1796.489258,636.319397 1791.893555,638.579102 1793.528931,645.057617 
	C1793.595215,645.320312 1793.566406,645.624146 1793.515991,645.896606 
	C1793.001099,648.673218 1783.991089,657.047424 1781.036011,657.373108 
	C1780.464600,657.436157 1779.825562,656.886719 1777.859741,656.023560 
	C1779.392090,658.035339 1780.129272,659.002991 1780.987305,660.129456 
	C1779.890015,661.682678 1778.693970,663.375488 1777.498535,665.067505 
	C1775.572632,663.752930 1773.955444,661.336182 1771.780029,664.550415 
	C1771.466919,665.013245 1770.139648,664.665833 1769.486694,665.045776 
	C1767.481812,666.212219 1763.896484,663.957947 1763.216064,667.930298 
	C1762.361450,667.608459 1761.506714,667.286621 1760.472656,666.897217 
	C1760.585449,668.023987 1760.816162,669.565918 1760.730469,669.583679 
	C1756.986694,670.360657 1756.248047,676.222656 1751.313354,675.119751 
	C1750.570557,674.953674 1749.196411,676.085022 1748.623535,676.952454 
	C1746.272339,680.511963 1743.070557,681.956787 1738.866211,681.703369 
	C1736.016724,681.531616 1733.148315,681.670715 1730.215454,681.670715 
	C1727.429443,691.387329 1724.224976,693.081970 1715.773926,689.037659 
	C1712.347412,692.136597 1709.509399,695.366821 1703.631226,694.483276 
	C1700.578369,694.024414 1697.307129,694.700195 1694.203735,693.080872 
	C1691.235107,691.532043 1689.078857,692.149597 1689.007080,696.053406 
	C1688.995850,696.660828 1688.910889,697.266907 1688.916138,697.205383 
	C1684.941040,699.199341 1681.563354,695.814514 1677.643921,697.716553 
	C1676.194824,698.419739 1673.336548,695.831177 1670.999878,695.174255 
	C1666.141724,693.808289 1661.108765,694.246033 1656.674683,696.245300 
	C1653.954102,697.471863 1652.258667,700.804932 1649.695923,702.616211 
	C1648.325317,703.584961 1645.730469,704.067078 1644.365112,703.394531 
	C1643.315796,702.877625 1643.324341,700.212830 1642.770386,698.162354 
	C1636.063110,697.715637 1636.063110,697.715637 1633.637085,689.039734 
	C1632.276978,689.039734 1630.825562,689.039734 1629.374146,689.039734 
	C1629.639282,688.692444 1629.904419,688.345154 1630.169556,687.997864 
	C1628.883179,686.132202 1627.952271,683.797974 1626.237305,682.497314 
	C1622.532593,679.687317 1618.379517,677.476379 1614.510010,674.871521 
	C1613.261108,674.030701 1612.432983,672.581299 1611.218140,671.669128 
	C1609.832275,670.628662 1608.307739,669.345276 1606.704834,669.109497 
	C1603.252930,668.601746 1600.322388,665.156006 1601.063599,661.697876 
	C1601.227661,660.933289 1602.101440,660.096130 1601.921875,659.518433 
	C1600.605469,655.284546 1599.008545,651.137756 1597.694092,646.903381 
	C1596.819946,644.087341 1596.265381,641.171997 1595.397339,637.599731 
	C1591.470947,642.010132 1584.706421,643.029236 1583.545288,649.886230 
	C1578.877441,650.797974 1578.148682,656.756348 1574.087280,657.770081 
	C1570.648926,658.628357 1569.138062,660.521118 1568.021240,663.299072 
	C1566.312866,667.548218 1565.023438,667.883545 1560.911011,665.975098 
	C1559.508911,665.324402 1556.701416,665.280518 1555.902222,666.177124 
	C1552.657837,669.816772 1548.431763,669.526978 1544.323608,670.048950 
	C1543.589966,670.142090 1542.921753,670.750183 1541.626465,671.436951 
	C1543.014160,671.815735 1543.840088,672.041138 1544.472534,672.213745 
	C1542.418701,673.660400 1540.015869,674.947021 1538.179688,676.796265 
	C1537.054443,677.929565 1536.751587,679.908813 1536.159668,681.537292 
	C1534.660400,685.663269 1532.108643,685.902466 1528.105225,684.759460 
	C1523.057251,683.318237 1517.714844,682.587708 1512.459595,682.312561 
	C1509.282349,682.146179 1506.037598,683.469299 1502.807983,684.037598 
	C1500.591797,684.427612 1498.344727,684.950684 1496.120361,684.910889 
	C1493.071167,684.856262 1489.984253,684.547119 1487.000488,683.927917 
	C1484.567017,683.422852 1482.260986,682.302795 1479.427856,681.286621 
	C1477.490845,683.358459 1475.295410,685.379456 1473.197998,680.269409 
	C1472.748413,679.174011 1468.959351,678.882812 1466.830566,679.159485 
	C1462.257446,679.753784 1462.246948,679.393372 1459.406250,675.706726 
	C1457.805664,673.629333 1454.433472,672.755676 1451.708862,671.746094 
	C1448.216064,670.451843 1444.467407,669.811096 1441.057495,668.354004 
	C1440.052856,667.924683 1439.821899,665.684509 1439.236450,664.274292 
	C1439.698364,664.116821 1440.160278,663.959412 1440.622070,663.802002 
	C1439.106812,661.452148 1437.591431,659.102295 1436.676147,657.683044 
	C1433.982910,656.149475 1431.841187,654.812378 1429.582886,653.715454 
	C1428.898315,653.382935 1427.485962,653.362122 1427.101318,653.803589 
	C1425.409058,655.745850 1423.970825,657.909363 1422.440552,659.992615 
	C1422.069824,659.762817 1421.699219,659.532959 1421.328613,659.303162 
	C1421.783203,660.449158 1422.237671,661.595154 1422.662598,662.666138 
	C1418.055542,664.196350 1414.023071,666.227417 1411.852173,671.113831 
	C1411.139526,672.718140 1409.744995,676.323303 1406.523682,672.604919 
	C1406.106201,672.122925 1402.538330,671.831787 1401.082275,671.877930 
	C1395.774292,672.046387 1390.513550,673.786926 1385.249634,674.998840 
	C1385.028931,675.049683 1384.955444,675.739868 1384.447632,677.142395 
	C1382.840698,677.805725 1379.350708,678.844055 1382.698975,683.790466 
	C1378.665405,684.800415 1375.187378,685.671204 1372.280273,686.399048 
	C1371.132324,684.474915 1370.428589,683.295227 1369.466675,681.682678 
	C1369.581421,680.285767 1369.751709,678.212769 1369.921997,676.139709 
	C1369.529175,676.118469 1369.136230,676.097229 1368.743408,676.075928 
	C1368.743408,676.930725 1368.743408,677.785522 1368.743408,678.647034 
	C1364.044312,679.655090 1358.447998,678.329407 1356.165161,685.010925 
	C1355.278198,687.607117 1354.046875,687.584045 1354.633789,688.676758 
	C1347.943237,690.352234 1345.420532,685.688049 1343.195068,679.757935 
	C1342.338013,683.198669 1343.161743,685.823730 1338.742554,683.719910 
	C1335.333740,682.097046 1330.533691,683.396301 1326.352295,683.396301 
	C1326.352539,683.852905 1326.352661,684.309448 1326.352905,684.766052 
	C1325.749634,684.197449 1325.104614,683.666809 1324.549561,683.054504 
	C1319.085083,677.025269 1319.116089,677.098022 1311.394531,679.811584 
	C1309.750854,680.389221 1306.590942,680.852234 1306.258545,680.230225 
	C1304.855347,677.604980 1304.257202,674.549500 1303.275513,671.361633 
	C1300.035156,669.011108 1295.933350,666.035645 1292.426636,663.491943 
	C1290.670532,664.420593 1289.452148,665.064880 1288.233887,665.709229 
	C1287.680664,663.383789 1282.074951,665.994690 1283.845093,661.179321 
	C1284.075439,660.552307 1282.735718,659.348206 1282.123413,658.411377 
	C1281.155762,659.383240 1279.732422,660.184509 1279.294189,661.354553 
	C1276.393311,669.103577 1275.599365,669.310364 1267.171143,670.171448 
	C1262.914429,670.606445 1259.212036,673.194519 1256.325806,676.870239 
	C1255.380493,678.074097 1252.083252,678.756714 1250.756958,678.034241 
	C1248.616455,676.868042 1247.217773,674.340271 1245.505737,672.387573 
	C1245.880493,671.982422 1246.255249,671.577271 1246.630005,671.172180 
	C1245.255127,671.071350 1243.880249,670.970581 1242.173218,670.845459 
	C1241.675171,666.459595 1241.167358,662.243835 1235.221191,661.245483 
	C1233.995117,661.039551 1233.588379,655.953125 1233.335938,652.958801 
	C1230.240967,649.476135 1228.224121,652.640564 1225.569336,654.672485 
	C1223.167603,656.510742 1219.640137,656.799927 1220.520386,661.464722 
	C1220.817139,663.037048 1218.706665,665.509888 1217.112061,666.901672 
	C1213.586548,669.978821 1209.715210,672.665833 1205.917847,675.419373 
	C1205.345825,675.834167 1204.221191,676.120178 1203.677490,675.838318 
	C1200.061768,673.963867 1197.927612,677.037109 1196.203735,678.731995 
	C1191.082886,683.766907 1189.362549,683.954163 1184.499878,679.208130 
	C1183.397827,678.132629 1180.951050,677.901611 1179.222534,678.109070 
	C1175.218262,678.589661 1171.295044,679.843140 1167.290527,680.148621 
	C1166.413818,680.215515 1165.096680,677.746338 1164.399780,676.250610 
	C1162.997437,673.240479 1161.888550,670.094116 1160.643311,667.010071 
	C1160.423462,666.465637 1160.054810,665.973816 1159.886475,665.417847 
	C1159.615601,664.523804 1159.768921,663.206604 1159.196899,662.745361 
	C1154.813599,659.210754 1155.024780,655.166504 1156.837646,650.316772 
	C1157.596313,648.287720 1156.563110,645.588867 1156.296997,642.672852 
	C1149.246582,649.562378 1142.860229,655.856995 1136.404419,662.079651 
	C1134.403320,664.008423 1132.309204,665.871704 1130.070435,667.508911 
	C1128.992798,668.297058 1127.480225,668.490662 1125.701782,669.116272 
	C1124.383179,670.377563 1122.402100,672.155823 1120.563110,674.070557 
	C1119.207153,675.482422 1117.841797,676.952393 1116.821777,678.606812 
	C1114.250977,682.776794 1112.654785,682.912964 1105.525757,679.122620 
	C1104.458008,680.092102 1103.362915,681.086365 1100.633057,683.564941 
	C1098.684204,682.322998 1096.770630,681.103516 1094.857056,679.883972 
	C1095.656616,678.800476 1096.456177,677.716919 1097.255859,676.633362 
	C1094.272583,678.088867 1091.401001,679.883789 1088.277100,680.912659 
	C1084.509033,682.153564 1080.981445,680.533691 1077.485352,679.042297 
	C1076.509644,678.626099 1074.876587,679.018921 1073.853027,679.591370 
	C1071.338867,680.997314 1065.135376,680.190796 1062.973999,678.005615 
	C1062.218262,677.241455 1061.283325,676.254578 1060.345093,676.152466 
	C1058.278198,675.927490 1055.888062,677.803162 1054.246826,675.021729 
	C1054.162231,674.878296 1053.596069,674.944336 1053.282104,675.023865 
	C1051.794922,675.400818 1041.310791,676.305908 1039.927124,675.971741 
	C1037.707520,675.435608 1035.861328,675.119751 1036.609741,671.575623 
	C1037.274292,668.428528 1036.491333,664.719238 1032.144775,665.121277 
	C1029.791870,665.737549 1025.802490,667.431335 1025.374023,666.780579 
	C1023.670715,664.193665 1023.078613,660.875000 1021.931213,657.391357 
	C1020.217102,656.913147 1017.602356,656.183716 1013.958374,655.167114 
	C1015.985474,653.736511 1016.894836,653.094727 1017.682007,652.539246 
	C1017.147461,646.000305 1011.752808,640.205383 1014.840027,632.998047 
	C1015.151428,632.271179 1013.988098,630.671753 1013.188904,629.757080 
	C1011.138123,627.409851 1008.837952,625.280151 1006.797424,622.924805 
	C1006.299500,622.350037 1005.970276,620.900879 1006.325500,620.435669 
	C1008.332397,617.807312 1009.015747,614.231689 1010.565186,611.993347 
	C1012.442932,609.280823 1012.820190,607.026062 1013.072632,604.217346 
	C1013.132446,603.552185 1013.939575,602.954163 1014.692261,601.932434 
	C1012.143372,602.432007 1009.993469,602.853333 1007.671204,603.308472 
	C1009.863892,605.981934 1010.141235,609.095215 1006.308655,609.784790 
	C1000.936218,610.751343 1001.503418,614.901855 1001.252625,618.110413 
	C1001.074524,620.388977 1001.087402,620.833008 998.685852,621.438782 
	C993.731567,622.688599 993.184814,627.501892 996.908630,632.978882 
	C995.307739,634.180420 993.237488,635.080750 992.258057,636.658325 
	C991.327271,638.157471 991.537292,640.364807 991.170776,642.748657 
	C989.930603,643.337952 987.959473,644.274536 985.354370,645.512329 
	C985.602417,644.067688 985.746765,643.227173 985.937683,642.115356 
	C981.262817,644.236450 970.473694,661.375793 970.360962,666.985107 
	C961.169128,664.222595 960.325500,673.477356 956.249146,677.191528 
	C956.787292,678.455078 958.081421,680.872742 957.844055,681.033752 
	C955.757568,682.449768 953.267700,684.616394 951.144897,684.375793 
	C945.316284,683.715393 940.006836,683.351807 936.146484,689.930481 
	C931.497437,685.732849 927.254333,681.901733 923.011292,678.070557 
	C922.960266,678.472473 922.909241,678.874390 922.858215,679.276245 
	C921.726257,679.171814 920.012207,679.501099 919.558044,678.891602 
	C916.879028,675.296326 915.219116,670.476562 911.810547,668.017029 
	C908.181213,665.398193 910.225220,660.406982 906.333496,658.532227 
	C906.231384,658.482971 907.000671,656.885254 907.152649,655.974365 
	C907.302917,655.073914 907.185425,654.128723 907.185425,652.187012 
	C903.114563,657.762451 902.827026,665.226746 905.464111,669.025452 
	C902.940369,675.288818 893.497009,669.720215 891.856201,677.600830 
	C883.251465,678.606567 884.295715,685.112976 883.841187,691.071472 
	C883.714539,692.733215 881.687927,694.250122 880.249512,696.221924 
	C878.402649,695.246094 876.457092,694.101990 874.404114,693.203430 
	C873.781067,692.930725 872.516785,693.036072 872.132446,693.478088 
	C869.250793,696.791565 865.332275,695.602417 862.996887,694.077881 
	C859.778076,691.976685 859.148071,693.871887 858.110107,695.368103 
	C856.513123,695.123047 855.000488,694.425232 853.820129,694.793274 
	C849.515991,696.135010 847.692688,694.797974 846.918884,690.311279 
	C845.974182,684.834473 844.428162,679.461365 843.142212,674.043457 
	C842.723083,674.107483 842.303894,674.171570 841.884766,674.235596 
	C842.517578,672.975220 843.150452,671.714905 843.757019,670.506897 
	C842.652222,669.259399 841.558777,668.024719 839.800049,666.038940 
	C838.435974,669.215515 837.521301,671.798035 836.254089,674.194031 
	C834.175232,678.124451 830.967651,681.704712 829.910217,685.858765 
	C828.860596,689.982117 826.620728,693.274719 825.026917,696.985291 
	C823.725159,700.015991 822.099487,701.996094 818.327515,702.309387 
	C810.761353,702.937622 803.160339,705.392334 796.165039,700.095154 
	C795.234375,699.390442 793.657104,699.311646 792.387756,699.338928 
	C790.741943,699.374329 789.104553,699.806702 786.762451,700.179871 
	C789.114075,696.091492 787.650696,693.967468 785.501892,693.108093 
	C778.779785,690.420166 778.676208,690.513123 781.761780,683.630310 
	C783.290222,680.220947 781.731873,677.363647 777.482483,675.488586 
	C776.513855,677.663635 775.545654,679.837891 774.434998,682.331909 
	C773.314758,681.548889 772.404541,680.912720 772.505981,680.983643 
	C770.328003,681.705505 768.914795,682.173889 767.101562,682.774902 
	C767.182495,683.067810 767.376770,683.771057 767.648071,684.752808 
	C766.325317,684.882751 764.953186,685.017517 764.363281,685.075439 
	C759.898315,695.355103 751.585571,697.799500 741.611206,698.212219 
	C741.703125,698.872131 741.812927,699.660645 741.973083,700.810242 
	C739.590454,701.233276 737.208740,701.656189 734.826965,702.079041 
	C731.309814,703.807800 731.064941,710.321411 725.103027,709.459412 
	C720.990479,708.864868 720.559082,707.796204 719.854309,702.652649 
	C715.847656,704.079590 711.829346,705.510620 708.205261,706.801331 
	C702.853271,702.592468 701.780579,710.915161 697.477600,710.404480 
	C693.657898,707.101929 688.560486,704.489258 686.317566,700.335266 
	C682.945251,694.089355 677.038208,695.685913 672.441650,694.369629 
	C668.694519,693.296570 666.358887,692.511230 665.184631,688.704224 
	C664.596313,686.796631 662.984863,685.221558 661.969482,683.420959 
	C661.509888,682.606018 661.375000,681.607971 661.004089,680.405334 
	C658.376160,679.270020 655.059570,678.134094 652.119141,676.370850 
	C651.321960,675.892761 651.234558,673.405518 651.595642,672.046204 
	C651.980957,670.596252 653.283325,669.389954 654.342529,667.848450 
	C650.787170,665.139832 647.721497,661.898865 643.958618,660.330566 
	C642.154419,659.578552 638.984375,661.888733 636.522339,663.008545 
	C634.991943,663.704651 633.637329,664.782715 632.184753,665.657776 
	C631.820251,665.877441 631.088684,665.894958 631.021362,666.140930 
	C629.637146,671.200562 626.005127,671.875244 622.620728,670.962219 
	C620.643372,674.276001 618.993042,677.041748 617.269897,679.929382 
	C613.661804,680.448547 608.870117,677.994446 607.187073,683.915405 
	C607.004028,684.559448 604.798767,685.078186 603.634155,684.916260 
	C598.492859,684.201599 596.677124,686.693970 597.046021,692.447205 
	C593.835266,693.018921 590.435059,693.112671 587.517944,694.347595 
	C585.925171,695.021790 585.071838,697.583191 584.036987,699.380981 
	C583.431885,700.432129 583.125977,701.655518 582.686829,702.797974 
	C580.901550,701.923767 579.308167,701.143494 578.546204,700.770386 
	C575.223083,701.726501 572.484436,702.514404 569.180237,703.465027 
	C569.945984,711.361511 562.276978,710.390381 557.103333,712.475281 
	C559.114319,719.827515 558.241211,721.471924 550.314514,725.252869 
	C545.779419,727.416077 544.278687,732.090515 545.885559,737.975464 
	C546.293030,739.467957 545.766602,741.222595 545.631226,742.853638 
	C545.544067,743.903381 545.387512,744.947388 545.124146,747.143860 
	C543.568298,747.605347 541.042725,748.354431 537.240845,749.482056 
	C537.164673,750.221863 537.050293,752.256409 536.684326,754.244629 
	C536.591614,754.747864 535.465454,754.995483 535.208984,755.544861 
	C533.888489,758.372742 530.392761,760.425110 531.979126,764.321838 
	C532.036438,764.462708 532.042786,764.747009 531.960938,764.804260 
	C524.501404,770.020142 532.129089,774.847229 532.240173,779.860352 
	C532.260864,780.795044 530.908203,781.729614 530.268372,782.715515 
	C528.802795,784.973816 524.854004,783.620300 524.411377,788.609558 
	C524.057556,792.598145 526.327332,799.392456 519.334106,801.724060 
	C518.830750,801.891907 519.605408,805.893250 519.812439,808.438843 
	C517.589355,809.557922 514.908813,810.567566 512.693359,812.206116 
	C511.913300,812.782959 511.589783,815.528870 512.220276,816.213074 
	C516.835388,821.221191 512.778992,824.358704 510.014160,827.761353 
	C507.097748,831.350403 503.741180,834.636230 501.244934,838.487488 
	C500.143433,840.186951 500.909637,843.001465 500.439758,845.227783 
	C499.684357,848.807068 498.544037,852.303284 497.693329,855.864990 
	C497.299438,857.514038 497.606110,859.437256 496.880157,860.875244 
	C495.787292,863.040161 494.067108,864.888367 492.204224,867.429626 
	C492.833923,868.465271 493.894806,870.210083 495.420013,872.718567 
	C493.257172,873.930969 490.893982,874.862427 489.017242,876.391052 
	C485.296967,879.421387 484.014282,883.704590 484.026642,888.366699 
	C484.033203,890.840454 483.446259,891.939087 480.797577,893.356201 
	C475.040375,896.436707 467.486847,896.682434 463.738647,903.346802 
	C463.357361,904.024841 461.244293,904.246704 460.159973,903.924011 
	C454.801910,902.329285 449.445892,900.660461 444.280762,898.548950 
	C443.385162,898.182861 443.489441,895.539246 442.995697,893.991028 
	C441.373322,888.904297 439.695953,883.834961 438.019836,878.765564 
	C437.733307,877.898865 437.349365,877.064453 436.828064,875.758301 
	C441.934631,872.460266 436.803070,867.154175 437.547516,862.463135 
	C437.867767,860.444946 433.944489,856.518616 434.488892,855.967346 
	C438.581329,851.823242 430.884247,845.687134 437.102386,842.143311 
	C437.802704,841.744202 437.768127,839.497986 437.569397,838.184631 
	C436.996613,834.399170 436.063812,830.667603 435.512634,826.879883 
	C435.387146,826.017822 436.063599,824.355652 436.661255,824.203613 
	C438.268585,823.794922 438.599640,822.193176 439.098389,821.786255 
	C444.507874,817.373047 440.453461,813.853638 438.575653,810.109070 
	C436.205414,805.382568 436.863617,804.227966 442.041260,801.899170 
	C444.592560,800.751526 449.066803,799.891113 445.435150,795.245483 
	C443.224396,797.187195 443.224396,797.187195 441.366882,790.008179 
	C444.455383,788.614502 447.566620,787.170227 450.711639,785.803711 
	C453.359436,784.653076 453.987244,782.772278 453.005951,780.162048 
	C451.520508,776.210938 450.071411,772.246094 448.590149,768.241882 
	C452.426941,764.475647 457.294464,761.634644 457.590363,754.504395 
	C457.722321,751.324951 462.330475,748.050293 465.397949,745.383423 
	C467.121948,743.884583 468.449921,742.945190 469.193451,740.394409 
	C470.420380,736.185059 472.934814,732.309814 475.231384,728.489014 
	C475.680542,727.741760 477.606537,727.882202 478.653564,727.656006 
	C478.653564,722.587830 478.659912,717.700806 478.635559,712.813965 
	C478.634308,712.559692 478.384155,712.298706 478.228485,712.054382 
	C474.635895,706.414917 474.799438,703.723267 478.865021,698.456055 
	C480.667419,696.120972 482.300934,693.655457 483.833618,691.498840 
	C479.274780,681.773560 487.628479,677.799255 492.163788,671.868896 
	C490.974640,670.614685 489.656769,669.386902 488.586700,667.971680 
	C488.347137,667.654846 488.976013,666.681458 489.662903,666.326660 
	C490.660400,666.683533 491.200073,666.723938 491.739716,666.764343 
	C491.424805,666.324768 491.109924,665.885254 490.795044,665.445679 
M1135.809937,597.737244 
	C1133.748169,597.737244 1131.686279,597.737244 1128.946045,597.737244 
	C1128.796387,599.462524 1128.605713,601.657959 1128.417480,603.826355 
	C1133.577759,604.939392 1135.607178,601.910461 1137.829590,598.005554 
	C1141.243652,597.870789 1142.241211,596.416016 1140.821533,593.975891 
	C1139.261353,595.127380 1137.843750,596.173584 1135.809937,597.737244 
M584.676147,639.876099 
	C585.477844,638.353210 586.279602,636.830383 587.113220,635.246826 
	C589.270264,635.863464 591.203796,636.537476 593.190918,636.958252 
	C597.017273,637.768372 599.535217,636.094177 600.798157,632.501709 
	C602.478394,627.722534 603.437622,628.612122 606.520386,625.215332 
	C609.589355,621.833740 612.228516,623.668152 615.108215,623.366455 
	C616.372253,620.648132 617.643433,617.914551 618.882324,615.250305 
	C625.402893,617.054321 628.203430,615.793274 626.780457,611.765625 
	C625.872498,609.195557 625.744629,604.037170 620.122437,605.867249 
	C619.331482,606.124634 617.608032,605.329956 617.167358,604.544617 
	C614.957520,600.606323 613.507935,603.663696 611.817139,605.167236 
	C609.865723,603.887695 606.675476,602.913696 606.387878,601.391174 
	C605.620789,597.331299 601.835144,598.195190 600.053406,596.348145 
	C597.006653,593.189697 595.419312,595.580566 593.220642,597.131348 
	C592.625000,597.551514 591.295532,596.987732 590.318848,596.794861 
	C589.401550,596.613708 587.877686,595.887756 587.694153,596.150757 
	C585.075989,599.901733 578.524963,600.390930 578.912537,606.679077 
	C578.950867,607.302124 577.932190,607.990295 577.404175,608.648193 
	C577.807312,608.522400 578.210449,608.396545 578.613586,608.270691 
	C579.177490,610.822510 581.055603,614.381165 580.032227,615.716797 
	C577.889771,618.513184 576.437622,621.774231 577.247375,624.416626 
	C578.760925,629.355591 577.336731,632.608521 573.861816,635.649963 
	C570.972778,638.178650 572.712341,640.604126 574.343140,642.673035 
	C576.137817,644.949829 578.279419,647.222168 581.931213,644.955688 
	C581.131897,643.746155 580.474182,642.750793 579.535095,641.329712 
	C581.356323,640.932617 582.734253,640.632202 584.676147,639.876099 
M1089.017456,551.454651 
	C1085.231201,553.633667 1081.445068,555.812744 1078.927246,557.261780 
	C1076.633545,563.389038 1074.559692,568.928833 1072.485840,574.468628 
	C1078.344727,571.691833 1084.686890,569.881897 1084.073975,562.158386 
	C1083.992188,561.127136 1084.638428,560.017639 1085.025635,558.973267 
	C1086.466797,555.085510 1089.841553,552.217285 1093.331177,553.351990 
	C1097.494263,554.705750 1097.908813,550.863708 1097.752441,550.267090 
	C1096.451782,545.301147 1099.906494,545.211243 1102.986572,544.497620 
	C1104.198975,544.216736 1105.345947,543.653748 1106.459595,543.242432 
	C1105.865601,538.589050 1105.139038,534.192505 1109.336426,530.866150 
	C1109.828247,530.476379 1109.946533,528.966736 1109.592285,528.342529 
	C1109.248535,527.736511 1108.039185,527.258179 1107.271362,527.335388 
	C1105.890015,527.474304 1104.554443,528.070374 1103.720337,528.319824 
	C1102.923950,530.402832 1102.662842,532.517517 1101.496582,533.824341 
	C1099.377441,536.198792 1095.489502,537.490784 1097.841797,541.921753 
	C1097.967285,542.158020 1096.467896,543.835266 1095.654907,543.895325 
	C1091.168213,544.226562 1090.148804,547.314026 1089.017456,551.454651 
M956.252441,550.975952 
	C955.390320,552.070190 954.528137,553.164429 953.264893,554.767700 
	C959.442017,554.175598 962.656738,549.749268 960.380310,545.868164 
	C959.179504,547.510132 958.047180,549.058533 956.252441,550.975952 
M701.055481,703.676941 
	C701.381348,704.033386 701.707153,704.389832 702.032959,704.746277 
	C701.913757,704.233215 701.794556,703.720215 701.055481,703.676941 
M703.494995,702.988953 
	C703.569214,702.761597 703.643433,702.534241 703.717651,702.306946 
	C703.501709,702.380737 703.285767,702.454529 703.494995,702.988953 
z"/>
<path fill="#FFFFFF" opacity="1.000000" stroke="none" 
	d="
M133.000000,515.003723 
	C133.001740,512.220093 133.001740,509.829468 133.001740,506.402802 
	C136.693344,505.149902 141.429520,503.796478 145.930099,501.887634 
	C147.683395,501.144043 149.569580,499.404572 150.236176,497.672638 
	C151.759064,493.715820 153.073059,490.458038 157.626419,488.429626 
	C161.499298,486.704315 164.328659,482.636597 167.052124,480.127991 
	C166.361450,477.758698 166.042908,475.426270 165.021835,473.458344 
	C163.548065,470.618011 162.024567,467.490845 159.660751,465.518677 
	C157.570511,463.774750 156.434631,463.028137 157.871399,460.158264 
	C159.838760,456.228546 161.122925,451.956848 162.738037,447.731964 
	C158.626038,443.981323 157.389175,434.850128 161.623871,432.722137 
	C159.132675,431.694336 156.840561,431.201569 155.143570,429.920502 
	C153.464340,428.652802 150.963379,426.187134 151.312958,424.951324 
	C152.322281,421.383209 151.875793,420.340637 148.082535,419.272888 
	C143.745941,418.052155 142.037231,412.943298 143.028946,407.472382 
	C143.712860,403.699402 144.454132,399.927551 145.414429,396.218536 
	C145.805496,394.708160 146.844086,393.365479 147.722946,391.689209 
	C145.923218,389.359192 141.809677,387.199707 145.900436,383.038818 
	C146.401489,382.529175 146.380142,380.825653 145.913025,380.153137 
	C142.467911,375.192841 143.767776,370.729095 146.902618,366.266479 
	C147.293381,365.710205 146.955978,364.642395 146.955978,364.114838 
	C145.152451,363.278168 143.482330,362.503387 141.285828,361.484406 
	C146.304321,358.970673 145.915573,354.613098 144.670990,351.583740 
	C143.783752,349.424164 139.903076,348.494476 138.653839,347.768677 
	C134.630127,351.031006 130.420258,352.780426 129.489761,355.608734 
	C128.253357,359.366913 128.202179,363.105896 124.057228,364.193604 
	C126.276230,370.840149 119.604401,372.844910 116.896439,375.927338 
	C114.020508,379.200989 108.326202,379.998596 104.149818,381.756592 
	C101.297607,379.949341 98.846558,378.141785 96.158905,376.812653 
	C95.007118,376.243011 93.187492,377.083588 91.973473,376.569641 
	C86.927864,374.433685 88.574554,369.138306 87.110985,365.317383 
	C86.162819,362.842010 86.872368,359.569977 85.568092,357.429352 
	C83.431053,353.922028 84.656929,351.607849 86.741379,349.034821 
	C87.269302,348.383148 88.023201,347.498047 87.928139,346.825592 
	C87.292191,342.326996 89.154999,340.058807 93.571068,339.045105 
	C98.404915,337.935486 95.764847,333.132416 97.523438,330.163086 
	C98.378014,330.076172 99.475029,329.964569 99.292229,329.983185 
	C100.010750,328.554016 100.630363,327.091339 100.743523,327.129547 
	C106.267326,328.993530 105.866211,324.484680 107.052948,321.508759 
	C107.568092,320.216949 108.593857,319.036072 109.632118,318.066559 
	C111.330894,316.480255 113.025703,314.607422 115.092819,313.765808 
	C117.996178,312.583801 121.238754,312.234924 124.549049,311.481262 
	C125.028519,310.102875 125.652336,308.358459 126.242172,306.602631 
	C127.180695,303.808777 129.402618,304.837067 131.414841,304.447968 
	C134.107483,303.927399 138.042969,305.043182 139.120697,300.715240 
	C139.217178,300.327759 140.597687,299.874451 141.196182,300.057770 
	C146.531937,301.692230 151.483124,299.055786 156.629730,298.859344 
	C158.122986,298.802368 160.087265,299.165924 161.085861,300.120819 
	C165.547485,304.387085 169.781860,308.758911 175.047058,312.237549 
	C178.229858,314.340363 179.752121,318.443115 178.692200,322.977875 
	C178.295059,324.677094 178.864670,327.409058 180.061447,328.530212 
	C184.538010,332.723938 182.137146,338.425842 183.763535,343.241180 
	C185.217163,347.545044 185.063507,352.412384 185.431351,357.045959 
	C185.510269,358.040070 184.729248,359.083252 184.436569,360.129608 
	C183.533600,363.357788 184.737640,365.489960 186.973892,366.250610 
	C185.968201,370.115051 184.490448,373.831635 184.164108,377.646729 
	C183.885666,380.901917 184.930435,384.270355 185.327499,387.138123 
	C187.339737,385.867096 189.598831,384.436310 191.865875,383.018250 
	C191.994385,382.937836 192.258118,383.022980 192.341309,382.928040 
	C196.353317,378.349579 200.875778,374.099396 204.156174,369.043610 
	C206.118774,366.018829 207.491364,363.326599 211.387344,362.913300 
	C216.035629,362.420166 216.696701,358.287231 217.896759,355.028381 
	C218.901352,352.300446 219.271591,349.720215 223.136948,349.858704 
	C224.113998,349.893707 225.153275,348.191772 227.104797,346.446625 
	C234.596405,345.627838 243.466827,344.658325 251.416763,343.789459 
	C255.327606,349.876923 258.946228,355.197479 262.230743,360.716888 
	C265.060394,365.471924 264.892090,365.572083 260.974792,369.631836 
	C262.349365,373.320587 263.783417,377.169098 265.437347,381.607574 
	C263.188232,382.211823 260.778015,382.195892 259.424652,383.383881 
	C257.557098,385.023315 256.391022,387.516693 255.121628,389.756073 
	C254.602997,390.671021 254.732590,392.754486 254.341644,392.813568 
	C251.301178,393.273132 249.864258,394.528198 250.469299,397.836731 
	C250.543594,398.243042 248.469376,399.042236 247.390808,399.659363 
	C247.774918,400.000000 248.159042,400.340637 248.543167,400.681274 
	C247.810715,401.125397 246.853104,401.407104 246.391739,402.046783 
	C245.368469,403.465546 244.772369,405.212555 243.662582,406.542389 
	C242.753494,407.631744 241.353561,408.311462 240.218628,409.138245 
	C237.759903,409.415558 235.080032,409.414642 232.612717,410.138397 
	C231.556564,410.448242 230.849564,412.212433 230.148163,413.411835 
	C228.743637,415.813660 228.862244,419.443878 224.496384,419.197083 
	C220.037125,418.944977 217.377380,421.786041 216.169830,425.673645 
	C215.424866,428.072021 215.392334,429.573730 212.088242,428.233978 
	C210.476913,427.580597 207.981277,429.108093 205.569885,429.729919 
	C208.005005,432.035339 207.579681,433.602631 203.821793,435.174469 
	C199.704453,436.896698 198.787415,441.710846 201.121338,445.454712 
	C201.523590,446.099976 202.354996,446.477753 202.988159,446.979065 
	C205.284088,442.737854 211.796692,447.601227 213.630951,442.050232 
	C213.866882,441.336182 215.480423,441.077393 216.511093,440.581085 
	C216.342255,439.679779 216.146393,438.634277 215.785095,436.705536 
	C224.347000,439.915466 225.362091,432.888214 227.215332,429.479370 
	C232.433197,428.139252 236.563568,427.512543 240.317490,425.969849 
	C243.063461,424.841370 245.155838,422.209442 247.828217,420.791870 
	C250.853851,419.186920 253.302200,415.027008 257.780731,417.810333 
	C257.871033,417.866455 259.155457,415.757355 260.053833,414.822876 
	C261.032227,413.805145 262.266724,412.175568 263.289124,412.247162 
	C265.097748,412.373810 266.830322,413.586334 268.197235,414.981476 
	C270.475555,414.981476 272.813782,414.651672 275.019348,415.052246 
	C279.217133,415.814697 283.430511,416.722687 287.466278,418.079346 
	C291.301666,419.368591 294.879120,421.404755 298.641266,422.937531 
	C303.388977,424.871857 302.951233,428.761780 302.766449,432.745331 
	C302.717407,433.801636 303.381439,435.698669 304.035034,435.851105 
	C308.871765,436.979462 307.673920,439.619781 306.008179,442.529083 
	C304.693329,444.825439 306.456787,452.489197 308.660461,453.595428 
	C309.112183,453.822235 309.974823,453.230621 310.266510,453.137756 
	C310.745087,457.150970 311.181305,460.808929 311.672211,464.925385 
	C310.051697,466.069427 308.080627,467.460938 306.192261,468.794067 
	C306.512573,470.253204 306.850861,471.794159 307.344971,474.045044 
	C305.660583,473.607819 304.588837,473.329620 304.170837,473.221130 
	C303.071198,474.831635 302.178619,476.138885 300.734436,478.253998 
	C300.144684,476.100067 299.896790,475.194763 299.422974,473.464264 
	C298.876251,476.026459 298.506989,477.843994 298.098389,479.652649 
	C297.414856,482.678192 297.291321,482.305939 293.653717,483.416809 
	C291.230225,484.156891 288.527222,485.671570 287.116028,487.665375 
	C284.607727,491.209229 281.052338,491.959137 277.419586,493.014862 
	C275.344482,493.617920 273.320374,494.396423 271.024689,494.481873 
	C267.668549,495.512756 264.218872,496.317474 260.988983,497.653564 
	C258.814392,498.553192 257.717926,502.816162 254.249741,499.472076 
	C254.027405,499.257660 252.202042,500.784576 251.074463,501.415833 
	C247.194092,503.588257 243.483536,506.751617 239.334045,507.522186 
	C236.400360,508.066986 232.935928,505.079071 229.574234,504.158203 
	C224.994659,502.903687 220.292114,502.090393 215.621399,501.197296 
	C215.367905,501.148804 214.922058,502.106445 214.479004,502.714874 
	C214.146957,501.765930 213.840622,500.890472 213.540329,500.032257 
	C213.099289,500.086945 212.653931,500.004150 212.478500,500.184296 
	C208.876770,503.882416 204.395630,503.637512 200.063004,502.464081 
	C196.891632,501.605164 195.090302,502.278198 192.915009,504.742462 
	C189.892181,508.166870 186.086472,510.891205 182.698944,514.005554 
	C180.011871,516.476013 177.740845,518.751648 173.290863,518.571716 
	C169.735764,518.427917 169.728256,522.891907 169.484879,525.699158 
	C168.994354,531.357422 167.514145,533.264404 162.001678,533.998718 
	C155.432266,534.873840 153.774918,536.975098 152.460358,543.818115 
	C152.079880,545.798645 149.415802,547.271606 148.015121,549.139526 
	C145.190109,552.907104 142.550064,556.812988 139.747009,560.597656 
	C139.142242,561.414246 138.170868,561.959290 137.367798,562.629578 
	C137.968735,563.013672 138.570236,563.397583 139.540604,564.016907 
	C138.675659,564.521729 138.316193,564.909668 137.944092,564.922180 
	C131.483505,565.139038 125.977715,569.925232 124.884094,575.802673 
	C124.600677,577.325806 123.164421,578.958862 121.807655,579.874573 
	C120.162666,580.984924 118.040398,581.388123 117.113403,582.808960 
	C116.462090,584.341003 115.722801,585.843445 115.192871,587.416382 
	C114.880928,588.342285 114.627441,589.437073 114.818916,590.357910 
	C115.738976,594.782959 113.356087,595.330261 109.747475,595.475098 
	C108.662384,595.518738 106.921112,595.272705 105.364456,597.343933 
	C103.875145,599.325562 102.876457,599.375549 104.081772,602.175049 
	C104.586792,603.347961 100.938301,606.309204 98.618835,609.140015 
	C100.710701,615.768738 98.867203,618.533142 89.819489,620.498230 
	C88.534142,620.777466 87.437653,621.926208 85.980499,622.844727 
	C88.583153,626.668335 88.872406,630.200684 83.841705,632.927185 
	C82.909882,633.432129 83.030533,635.879028 82.754044,637.053284 
	C79.111816,639.856323 75.622261,642.541870 72.541809,644.912537 
	C73.189270,650.751892 66.912537,655.455566 67.775291,661.653320 
	C66.852379,661.904663 65.940651,662.152954 64.779861,662.469116 
	C66.763611,667.461914 68.387077,672.320740 61.563129,676.144775 
	C62.497963,678.845276 63.573586,681.952393 64.629326,685.002136 
	C63.344082,687.529602 61.871147,690.185181 60.711220,692.971008 
	C60.540173,693.381836 61.855480,694.407166 62.477142,695.153137 
	C64.435059,697.502441 66.450226,699.807800 68.315376,702.228699 
	C69.016998,703.139404 69.211662,705.106445 69.905693,705.244629 
	C73.348145,705.929932 76.880165,706.165283 79.798409,707.381348 
	C82.492760,708.878479 85.187111,710.375671 87.965942,711.919739 
	C90.309944,709.632263 95.663506,710.585571 99.090729,713.986206 
	C101.226334,712.962402 99.948044,708.281921 104.119530,709.317871 
	C106.836578,709.992615 109.649918,710.279602 112.465096,710.747803 
	C115.864014,704.415710 117.669884,703.583435 124.726387,705.964050 
	C129.239304,707.486633 132.442490,704.289246 136.194885,703.195862 
	C139.532166,702.223389 142.536728,700.056641 145.888336,699.203674 
	C148.254547,698.601501 150.955261,699.313721 153.558731,699.441711 
	C154.128113,695.916870 158.857956,691.976624 163.092728,691.447571 
	C164.134674,691.317444 165.230042,690.229065 165.955627,689.308960 
	C166.827286,688.203613 167.122635,686.627808 168.035278,685.574219 
	C169.932129,683.384399 171.979797,680.988220 174.182785,685.509399 
	C174.572281,686.308838 176.097610,686.554871 176.715790,685.793213 
	C185.444824,682.677246 194.173843,679.561279 203.137253,676.361633 
	C202.792175,674.636658 203.582718,672.389954 207.348709,673.039734 
	C213.699463,674.135742 216.183853,669.198547 219.053696,665.397461 
	C222.099884,661.362793 224.020355,656.802368 230.722412,659.495422 
	C234.386353,660.967651 236.986954,657.484741 237.225677,653.085999 
	C237.294876,651.810913 239.769348,650.666321 241.217270,649.395081 
	C240.516571,649.250793 238.958786,648.929993 237.401001,648.609131 
	C237.402832,648.363403 237.404678,648.117676 237.406509,647.871948 
	C240.009338,647.871948 242.612167,647.871948 244.972992,647.871948 
	C249.993088,645.374695 254.983887,642.471008 260.294434,640.378662 
	C264.844818,638.585815 263.847412,635.079224 264.046570,631.352478 
	C265.528442,631.174255 267.067535,630.989197 268.549500,630.810974 
	C268.393402,629.956299 268.235779,629.093201 268.046600,628.057373 
	C270.162537,628.487366 271.829376,628.826050 273.983582,629.263855 
	C273.391113,627.573059 272.984863,626.413757 272.805206,625.901062 
	C274.634125,624.042297 276.505981,622.139893 278.377808,620.237488 
	C278.219330,619.901550 278.060852,619.565613 277.902374,619.229736 
	C276.954102,619.325134 275.542542,619.059387 275.137909,619.578552 
	C273.395966,621.813293 271.799713,623.352356 268.534698,622.192261 
	C267.655518,621.879883 266.085999,624.118286 264.637909,624.696106 
	C257.721893,627.455444 250.884628,630.616943 243.716339,632.451111 
	C240.240295,633.340515 236.834885,632.470703 237.555573,637.735779 
	C237.570984,637.848328 234.417419,638.394592 232.911591,638.703735 
	C231.110474,639.514343 229.290527,640.146240 227.666443,641.108704 
	C225.296875,642.512939 223.209457,644.475769 220.724091,645.569641 
	C219.326340,646.184814 217.629379,642.927124 215.570572,645.656433 
	C214.195923,647.478943 211.891098,648.599670 209.130966,650.696533 
	C205.997406,651.278259 201.486725,652.115540 196.693161,653.005371 
	C196.841431,655.347900 196.611893,658.127380 191.960922,656.618225 
	C190.899094,656.273621 189.401138,657.065796 188.164963,657.506165 
	C185.029922,658.622803 181.612488,659.351074 178.890991,661.127747 
	C174.995331,663.670898 171.337952,666.738770 168.110275,670.093933 
	C165.607925,672.695068 163.919403,676.079224 161.869125,679.115356 
	C161.276474,678.939148 160.683823,678.762939 160.091171,678.586792 
	C160.705551,675.213318 161.215637,671.816345 161.970154,668.474548 
	C162.491074,666.167358 163.118988,663.827576 164.122116,661.701965 
	C165.145523,659.533447 166.350800,657.250854 168.064789,655.646790 
	C172.697693,651.310913 173.216507,643.492493 179.839737,641.129761 
	C184.186798,639.578979 185.278854,636.798401 185.077408,633.505005 
	C188.053162,631.620850 190.650070,629.841675 193.384033,628.306580 
	C194.608582,627.619019 196.085434,627.168945 197.486374,627.044189 
	C203.392029,626.518005 206.336090,624.004517 207.428268,618.691467 
	C211.342941,617.631226 216.825882,617.794800 218.337234,615.425232 
	C222.726624,608.543518 231.709732,609.041199 236.273453,602.639038 
	C237.711777,600.621277 242.091461,600.700317 245.284164,600.173340 
	C245.558716,598.439209 243.891403,594.626831 249.361237,596.767212 
	C250.553635,597.233765 253.478943,595.315063 254.499893,593.765930 
	C256.880554,590.153748 259.808868,589.791199 263.498322,590.814880 
	C264.213562,591.013306 265.276428,590.983215 265.829224,590.579529 
	C269.934875,587.581482 274.701569,586.531738 279.725677,585.492859 
	C278.722961,585.372070 277.720215,585.251343 276.717499,585.130554 
	C277.139496,584.611572 277.561523,584.092590 277.983521,583.573608 
	C279.660431,582.703186 281.337311,581.832764 283.442627,580.739929 
	C283.778198,582.173584 284.069977,583.420044 284.236450,584.131287 
	C288.171326,583.151489 291.925140,582.216736 294.360168,581.610413 
	C298.204559,582.028076 301.012115,582.367065 303.827942,582.610596 
	C304.390533,582.659241 305.100189,582.060974 305.545502,582.242676 
	C308.577728,583.480042 311.517578,584.948425 314.567810,586.135132 
	C316.618256,586.932800 318.770813,587.726929 320.931549,587.920166 
	C324.001556,588.194641 326.428589,588.529114 326.103363,592.573120 
	C326.032257,593.456970 327.340210,594.404114 327.876617,595.395935 
	C328.607513,596.747375 329.207458,598.169617 330.272675,600.429382 
	C330.105469,600.402771 332.078827,600.517334 332.092773,600.749451 
	C332.254791,603.448181 334.495148,604.480286 335.848145,606.266663 
	C338.263885,609.456055 339.364624,613.142761 334.874969,616.097168 
	C333.989960,616.679565 333.226105,618.259033 333.284760,619.330627 
	C333.669250,626.360474 329.916718,632.161743 327.135071,637.976196 
	C325.367126,641.671692 320.857727,644.055603 317.361542,647.223572 
	C317.619202,650.443298 317.929962,654.326416 318.174438,657.381653 
	C316.099884,658.778931 314.561157,659.794861 313.047455,660.846863 
	C312.575104,661.175232 312.137451,661.965271 311.739960,661.929077 
	C302.900787,661.123962 302.471191,667.292236 301.652832,673.544617 
	C301.464447,674.984131 299.388794,676.176697 297.865417,677.825073 
	C297.378265,677.534119 296.345825,676.917603 295.243225,676.259216 
	C294.457611,678.599121 293.707123,680.834351 292.861511,683.352905 
	C290.991180,682.444885 289.570892,681.755310 287.798370,680.894775 
	C285.654480,683.396729 281.598419,684.598206 282.818390,689.576355 
	C283.106659,690.752502 281.494049,692.966064 280.181732,693.850708 
	C276.868103,696.084412 273.094849,697.633118 269.762482,699.843323 
	C267.336060,701.452515 265.572754,704.157166 263.048584,705.496643 
	C260.468231,706.865906 257.320404,707.165833 254.194595,707.993835 
	C255.034393,711.850891 251.999725,713.523926 248.532700,715.056091 
	C247.211716,715.639771 245.526810,716.625122 245.115265,717.811584 
	C243.888351,721.348572 241.848572,721.736145 238.809509,720.371216 
	C238.114929,720.059265 237.268036,720.086426 236.763229,720.002686 
	C236.566238,722.993164 236.379654,725.825500 236.110168,729.916626 
	C233.551636,728.160828 232.495728,727.436157 231.362946,726.658813 
	C230.853058,726.984375 230.014236,727.434448 229.271225,728.008545 
	C225.219574,731.139343 219.009445,730.628906 216.394501,736.646484 
	C215.446548,738.827759 211.340927,740.389343 208.467911,740.809387 
	C203.885773,741.479187 200.194427,742.933472 197.726715,747.078613 
	C196.585419,746.029724 195.610672,745.133911 194.627502,744.230408 
	C194.347427,744.396973 193.967041,744.485474 193.886520,744.691284 
	C192.007080,749.494507 187.593887,750.421326 183.459244,752.253052 
	C181.499283,753.121338 180.699554,756.608521 179.424698,758.821533 
	C175.641876,757.177979 171.825562,755.519897 168.532700,754.089294 
	C167.144333,754.909607 166.122406,755.402832 165.241211,756.079407 
	C164.778976,756.434326 164.500031,757.082886 164.252625,757.648804 
	C163.948944,758.343384 163.760208,759.723450 163.529526,759.721741 
	C157.832138,759.681152 154.032379,763.823059 149.311508,765.784973 
	C145.801025,767.243896 143.556671,768.390991 142.797012,772.195557 
	C142.663177,772.865845 140.454224,773.202881 139.157181,773.458740 
	C138.992416,773.491272 138.544739,772.089661 138.101471,771.057495 
	C135.666641,771.467896 132.065582,773.236023 131.721115,769.249756 
	C126.239883,769.843872 120.747101,769.888428 115.549850,771.150330 
	C109.810867,772.543701 106.755188,770.757019 104.487213,765.585327 
	C104.272163,765.094910 99.025475,766.547058 96.271286,767.534058 
	C94.643745,768.117310 93.262436,770.528625 91.876617,770.440796 
	C86.835014,770.121582 81.829994,769.144226 76.829330,768.306702 
	C75.293488,768.049500 73.830376,767.127869 72.308746,767.057739 
	C67.119240,766.818665 62.240261,765.723633 57.561672,763.348328 
	C56.565643,762.842651 54.764969,763.921875 52.830845,764.393982 
	C52.056652,763.362976 50.898659,761.820923 50.057976,760.701416 
	C46.619705,760.499329 43.527920,760.317566 39.932148,760.106262 
	C41.995022,751.720764 34.884090,753.168762 31.210390,752.235229 
	C23.984100,750.398865 24.022221,750.924927 22.800817,743.704346 
	C22.505781,741.960144 20.307148,740.618469 19.514050,738.853516 
	C18.834791,737.341797 15.994717,736.651794 17.830585,733.885986 
	C18.594908,732.734497 18.577705,730.677002 15.733958,729.499268 
	C13.950733,728.760803 10.654670,725.848022 12.507822,722.069885 
	C12.758821,721.558167 12.639313,720.298645 12.348262,720.171570 
	C7.609162,718.103516 8.437099,714.827148 10.213112,711.228516 
	C10.918787,709.798584 10.325280,709.568726 7.624978,707.662415 
	C5.835824,706.399353 4.159235,704.503784 3.341637,702.517090 
	C2.860660,701.348328 4.033645,699.393494 4.684179,697.887878 
	C5.811051,695.279785 6.912177,692.623047 8.404000,690.222839 
	C9.455223,688.531494 11.135128,687.230835 11.506756,686.839050 
	C11.969216,684.627869 12.168218,683.643738 12.383095,682.663025 
	C12.487492,682.186584 12.885856,681.495361 12.702814,681.276794 
	C9.715586,677.709595 12.015654,674.360657 12.917585,670.882874 
	C13.316624,669.344116 12.916336,667.614502 13.051038,665.985779 
	C13.168526,664.565186 13.239319,663.028870 13.828308,661.777954 
	C16.946131,655.155762 20.173365,648.583435 23.470583,642.048279 
	C24.472380,640.062683 25.840809,638.264526 27.001122,636.356079 
	C29.793390,631.763245 32.559147,627.154297 35.348690,622.559875 
	C35.479778,622.343994 35.761517,622.032898 35.932278,622.056824 
	C37.502827,622.277222 39.895367,623.293091 40.446159,622.667236 
	C41.428379,621.551147 41.016151,619.327515 41.706753,617.802368 
	C42.432934,616.198608 44.325054,614.996155 44.686954,613.388550 
	C45.077492,611.653748 44.217266,609.659790 44.023674,607.766541 
	C43.599556,603.618835 45.779690,602.189453 51.438126,602.913330 
	C51.345139,601.979553 51.253113,601.055420 51.084782,599.364990 
	C52.461445,600.410583 53.175545,600.952942 53.889641,601.495300 
	C54.251404,600.641479 54.934872,599.783081 54.922665,598.934631 
	C54.844154,593.475952 56.947464,589.727539 62.360477,587.833984 
	C64.103882,587.224182 65.567894,585.558411 66.914841,584.142639 
	C68.348785,582.635498 69.492523,580.852234 70.881592,579.034241 
	C69.125320,576.989746 69.461800,575.432373 72.542381,574.746094 
	C75.838203,574.011841 81.918274,566.333435 82.143372,562.573792 
	C86.236008,561.782593 89.978348,561.057922 92.173080,556.380798 
	C93.741020,553.039429 97.111671,550.736328 100.489090,548.406921 
	C105.790085,544.751038 107.534386,538.080811 108.228142,531.940979 
	C113.534851,528.599365 120.978592,529.141479 123.634727,521.441895 
	C124.230080,519.716064 128.283844,519.283447 130.608841,518.006714 
	C131.587814,517.469116 132.212494,516.286194 133.000000,515.003723 
z"/>
<path fill="#FFFFFF" opacity="1.000000" stroke="none" 
	d="
M473.022247,607.999207 
	C465.763916,610.766846 471.157410,616.259583 469.854004,620.330872 
	C464.131073,618.782593 464.968719,623.661011 463.711823,627.725647 
	C463.153748,625.909363 462.891754,625.056702 462.548340,623.939087 
	C461.806427,625.526306 461.547821,627.303467 460.542267,627.996033 
	C457.768311,629.906494 454.629395,631.276855 451.738464,633.031494 
	C449.958069,634.112183 448.193878,635.334045 446.739532,636.805908 
	C445.208496,638.355408 444.055145,640.278137 442.655426,642.146362 
	C448.339111,646.996765 443.697296,654.140869 446.441895,660.820740 
	C449.472015,661.870117 451.076599,664.910400 450.213318,669.503052 
	C450.037537,670.438354 450.473236,671.816956 451.129547,672.526184 
	C454.834930,676.530457 453.059387,681.523987 453.203369,685.937195 
	C453.294434,688.728333 449.657501,691.520264 449.384949,694.468384 
	C448.765259,701.171204 449.189606,707.970642 449.189606,715.606140 
	C446.393524,714.032166 444.323517,712.939026 442.326508,711.725830 
	C439.356323,709.921509 436.564545,707.760925 433.440338,706.300659 
	C432.005127,705.629822 429.767548,705.779236 428.228760,706.394531 
	C423.624390,708.235413 421.938599,707.538879 419.948608,703.357544 
	C418.515747,700.346802 416.677460,697.270264 414.236633,695.106995 
	C413.015015,694.024353 410.041534,694.918396 406.569519,694.918396 
	C404.114807,692.385376 400.513245,688.669006 396.861908,684.901245 
	C391.985199,690.939209 387.616089,696.654663 382.829407,701.996033 
	C381.956665,702.969849 379.380096,702.416809 377.511536,702.575256 
	C377.582611,706.809753 377.582611,706.809753 372.140289,708.200256 
	C373.146210,713.702209 368.500854,715.446777 365.061707,715.687256 
	C360.592072,715.999878 358.878418,717.272034 358.793915,721.516296 
	C358.777618,722.335205 357.882202,723.136658 357.746796,723.360413 
	C356.493134,723.429443 355.631195,723.382507 354.807922,723.539062 
	C351.819397,724.107239 348.425598,722.869934 345.874817,725.519653 
	C345.741760,725.657837 344.882141,725.442017 344.759918,725.194153 
	C342.357269,720.320801 337.024384,720.971924 333.074677,719.109619 
	C329.471802,717.410767 328.537811,715.195557 329.869019,711.799988 
	C328.910645,711.515259 327.977539,711.240112 327.051697,710.942261 
	C327.038635,710.937988 327.199493,710.601990 327.141052,710.499817 
	C324.137909,705.247314 326.606354,701.104431 329.531677,696.795227 
	C330.408295,695.503906 330.515137,692.990479 329.880157,691.504700 
	C328.028412,687.171875 330.820190,683.780762 331.570648,679.993591 
	C331.867004,678.497986 332.297913,677.029053 332.894653,674.638000 
	C334.273224,674.474182 336.453156,674.256409 338.616913,673.930969 
	C339.213684,673.841248 339.870667,673.550232 340.315247,673.147583 
	C343.285706,670.457275 346.522247,667.968933 349.027649,664.890381 
	C350.602142,662.955688 350.748779,659.921265 352.093170,657.720581 
	C353.609283,655.238831 356.923859,653.333923 357.340607,650.826538 
	C357.940613,647.216431 359.427185,645.747253 362.592957,644.918152 
	C363.502930,644.679810 364.987244,643.223328 364.860809,642.951233 
	C363.005188,638.956909 366.867004,639.273682 368.875244,637.890381 
	C367.220215,633.499512 366.236542,628.772949 363.816681,624.957153 
	C360.015442,618.962952 359.605469,619.222900 360.700287,614.274841 
	C358.431122,615.332886 357.825287,614.963196 357.844116,612.531982 
	C357.859741,610.515503 355.668457,610.130554 353.690918,609.526306 
	C351.203674,608.766174 349.027557,606.566467 347.083466,604.621704 
	C346.051056,603.588928 345.792755,601.782288 345.516296,601.119324 
	C341.819214,600.420837 338.873260,599.864258 335.927338,599.307739 
	C336.400848,598.939636 336.874359,598.571594 337.347900,598.203552 
	C336.637756,595.009033 335.827301,591.832336 335.257538,588.612976 
	C334.948914,586.869263 335.181000,585.034180 334.927216,583.275146 
	C334.711243,581.778381 336.281677,579.401367 332.412689,579.575867 
	C330.428955,579.665344 330.008118,569.665039 332.243011,568.437805 
	C336.347565,566.183838 340.717682,564.414551 344.965668,562.418945 
	C345.349792,562.238464 345.775391,561.950562 345.971710,561.596130 
	C348.213593,557.549072 353.632751,555.891724 358.277252,557.806946 
	C359.286896,558.223389 360.806458,559.000488 361.392517,558.596863 
	C366.568115,555.032410 371.722351,559.032043 376.895172,558.646729 
	C378.469788,558.529419 380.546326,561.492310 381.931885,563.382507 
	C383.837402,565.982056 383.877625,571.118347 388.497101,568.069031 
	C393.449982,570.561340 393.530823,575.885254 396.624512,578.923645 
	C400.093079,582.330322 404.324615,584.960022 408.119110,587.847900 
	C414.349762,583.916443 422.384338,578.081787 424.222504,567.590942 
	C427.910980,566.381470 432.967316,569.173706 434.740479,563.026489 
	C435.085510,561.830383 437.705231,561.335205 439.214325,560.415955 
	C440.447021,559.664978 441.324341,559.390076 442.178375,557.326416 
	C444.340698,552.101624 448.314728,547.458008 455.567993,547.361023 
	C457.736816,547.332092 459.856079,543.596252 461.494507,542.037720 
	C465.133331,543.001221 468.903107,543.930969 472.627350,545.016724 
	C474.283569,545.499512 476.588898,545.848938 477.308838,547.039429 
	C479.129333,550.049805 481.717804,550.993713 483.393799,551.769958 
	C484.254211,555.105469 484.783478,558.573730 486.054840,561.744507 
	C487.832550,566.178101 490.722839,570.235474 491.974976,574.774414 
	C492.457062,576.521912 489.751099,579.148865 488.490570,581.387878 
	C488.936584,581.324463 489.764282,581.206848 490.591980,581.089233 
	C490.798737,581.332031 491.005493,581.574890 491.212250,581.817688 
	C487.901154,584.488098 484.590088,587.158447 481.278992,589.828857 
	C481.571198,589.941345 481.863373,590.053833 482.155579,590.166260 
	C481.203217,592.179932 480.204132,594.173401 479.320099,596.216614 
	C478.931732,597.114197 478.682465,598.098694 478.534332,599.068787 
	C477.978119,602.712341 477.616547,606.439087 473.022247,607.999207 
z"/>
</svg>