<svg version="1.1" id="Layer_1" xmlns="http://www.w3.org/2000/svg" xmlns:xlink="http://www.w3.org/1999/xlink" x="0px" y="0px"
	 width="5rem" viewBox="520 450 300 200"  xml:space="preserve">

<path fill="#FFFFFF" opacity="1.000000" stroke="none" 
	d="
M716.303345,582.670044 
	C714.464050,585.626404 705.174072,590.393311 701.369690,589.986511 
	C698.779114,589.709473 693.000366,583.416321 692.854187,581.747131 
	C690.067383,585.096130 687.521179,590.917175 683.311890,592.615051 
	C675.567993,595.738586 673.203125,602.813782 668.523010,608.119324 
	C664.864075,612.267151 661.442261,611.275269 656.172058,608.233093 
	C651.528809,605.552795 649.993286,602.044067 649.706665,597.961365 
	C649.423279,593.924683 647.135193,590.179871 648.763062,585.684143 
	C649.870178,582.626587 648.686340,578.792236 648.816528,575.316162 
	C649.027466,569.682495 648.098816,564.028870 650.043884,558.415283 
	C651.182739,555.128540 651.342712,551.434326 651.528748,547.901550 
	C651.817383,542.418457 651.502808,536.898132 651.911072,531.428528 
	C652.287109,526.391602 653.556763,521.420898 653.923218,516.383972 
	C654.304382,511.143433 655.993103,506.410583 658.625916,502.038666 
	C659.381104,500.784637 662.051392,499.271912 662.756714,499.694000 
	C664.222900,500.571472 665.902954,502.702362 665.839355,504.250000 
	C665.541809,511.485901 664.628174,518.694458 664.057373,525.922546 
	C663.905273,527.848694 664.352783,529.820251 664.222778,531.750610 
	C664.093384,533.670410 663.358154,535.555786 663.284302,537.471558 
	C663.075134,542.897583 662.957458,548.332825 663.032410,553.761353 
	C663.066223,556.210327 663.784851,558.648315 663.844543,561.099792 
	C663.855530,561.550781 662.193604,562.042480 662.623230,561.814148 
	C662.623230,572.202026 662.623230,581.950378 662.623230,591.698730 
	C663.159180,591.959656 663.695068,592.220581 664.231018,592.481506 
	C666.312073,589.643738 668.408569,586.817078 670.457703,583.956482 
	C670.770569,583.519714 670.707886,582.715820 671.083008,582.436584 
	C676.574890,578.348511 682.742065,575.925293 689.562561,575.279297 
	C689.852356,575.251831 690.240662,576.264343 691.499512,576.516663 
	C691.069275,569.255127 690.440613,561.998535 690.261169,554.730896 
	C690.055054,546.381836 689.848816,537.995300 690.426147,529.679443 
	C690.734558,525.237244 693.193970,520.974426 693.770813,516.512756 
	C694.394714,511.687164 693.889221,506.722351 694.026672,501.822510 
	C694.062317,500.553101 694.501587,499.227753 695.032715,498.053497 
	C696.141235,495.602936 697.045898,492.876251 698.804749,490.976166 
	C699.783203,489.919250 702.330261,490.065063 704.127136,490.208893 
	C704.524353,490.240662 704.667847,492.575623 705.049866,493.812500 
	C706.690002,499.122162 705.940369,504.637512 705.140198,509.784302 
	C704.412109,514.467590 704.448730,518.942505 704.654358,523.558472 
	C704.792297,526.654846 704.494202,529.769348 704.428650,532.876526 
	C704.341309,537.020569 704.231201,541.165466 704.237549,545.309875 
	C704.246826,551.299622 704.724792,557.250122 703.487488,563.259277 
	C702.972412,565.760803 704.445374,568.671692 705.209595,572.331299 
	C707.372070,571.043518 709.977234,569.523193 712.551270,567.951782 
	C716.235657,565.702454 719.857300,563.344238 723.620972,561.238525 
	C724.075745,560.984070 725.599670,561.794922 726.013306,562.482056 
	C726.990234,564.104919 727.596497,565.950806 728.806274,567.685303 
	C727.766418,559.997559 725.720398,552.318848 729.233032,544.525574 
	C728.125610,544.199219 727.246704,543.940247 727.389160,543.982178 
	C727.880737,541.360474 728.611023,538.979858 728.702759,536.574890 
	C728.806396,533.860046 728.279846,531.126526 728.125732,528.395508 
	C727.701050,520.874634 724.466797,513.839966 728.893372,505.739960 
	C732.859436,498.482544 737.207764,491.599213 742.166138,485.139374 
	C744.226807,482.454742 748.251953,481.339355 751.226318,479.282684 
	C758.993774,473.911560 766.197876,479.777313 773.660461,480.306885 
	C773.806580,480.317261 773.792480,481.252686 774.019287,481.665070 
	C776.440674,486.067108 779.246643,490.302826 781.184265,494.905304 
	C782.073608,497.017487 781.192871,499.842651 781.276306,502.339081 
	C781.322815,503.729980 781.370117,505.283997 781.990967,506.462128 
	C783.906433,510.097412 784.143066,513.579590 782.011536,517.181702 
	C781.691406,517.722839 781.463989,518.705444 781.736938,519.150940 
	C784.445618,523.571777 783.033813,528.084595 781.938354,532.464905 
	C780.254822,539.196594 778.226624,545.842834 776.310364,552.515564 
	C774.555054,558.627747 774.057617,565.663818 770.557800,570.533264 
	C767.794006,574.378723 765.797913,580.389893 759.180725,581.202942 
	C756.051514,581.587463 753.167053,583.963623 749.961121,585.541077 
	C747.357361,584.751282 744.237610,583.804993 739.840454,582.471191 
	C737.211243,578.951050 733.547607,574.045837 729.651611,568.829529 
	C726.635620,575.117554 717.960876,575.455139 716.303345,582.670044 
M763.028992,505.167908 
	C761.816528,503.067078 760.514587,501.011993 759.411560,498.855194 
	C757.516052,495.148895 755.211243,496.640503 753.839966,498.836273 
	C751.794800,502.111237 750.050232,505.696777 748.896729,509.375641 
	C747.346191,514.320618 746.506653,519.486572 745.292114,524.540833 
	C745.114990,525.278259 744.524109,525.909180 744.171753,526.612976 
	C743.384033,528.186279 742.084229,529.740295 741.981934,531.364441 
	C741.825745,533.844177 743.831360,536.483704 741.066833,538.729797 
	C740.612915,539.098572 740.659241,540.083069 740.474365,540.782959 
	C744.918213,541.666321 741.207092,543.850647 741.199646,545.431396 
	C741.192627,546.916992 740.719971,548.497192 741.080444,549.870911 
	C742.660583,555.891846 744.468872,561.852844 746.124573,567.593567 
	C749.097900,567.364990 752.096863,567.900146 754.097412,566.729309 
	C755.596863,565.851746 755.811157,562.778442 756.597656,560.682739 
	C758.005798,558.164612 763.261841,557.671936 760.125061,552.193054 
	C759.960815,551.906250 760.783142,551.156494 760.940308,550.567383 
	C761.992065,546.623840 763.204651,542.705750 763.948608,538.701904 
	C764.929810,533.421631 768.564575,528.747864 767.514893,523.016296 
	C767.494202,522.902893 767.685791,522.747742 767.783264,522.615723 
	C771.366272,517.762634 767.942261,512.663940 768.365723,507.722870 
	C768.633972,504.592102 765.911865,501.028748 766.454590,499.821533 
	C768.388123,495.520752 764.593628,495.914154 763.500244,494.336670 
	C763.500244,498.183411 763.500244,501.967163 763.028992,505.167908 
z"/>
<path fill="#FFFFFF" opacity="1.000000" stroke="none" 
	d="
M569.841553,609.533691 
	C566.305725,608.046265 568.080750,604.378723 568.399597,603.526123 
	C570.419495,598.124512 569.329956,592.762207 569.226562,587.381348 
	C569.182861,585.108826 569.219238,582.834778 569.219238,580.011292 
	C563.283203,583.167175 557.246399,585.298035 552.770447,589.213257 
	C550.547302,591.157959 551.160889,596.374207 550.546570,600.119507 
	C550.127258,602.676270 548.933228,605.513916 549.617188,607.759460 
	C551.080383,612.563416 547.617798,617.583313 550.844666,622.284363 
	C551.670593,623.487610 550.713928,625.899902 550.617676,627.758850 
	C550.583618,628.415039 550.673096,629.077576 550.776550,631.137573 
	C549.066895,633.353271 543.478210,632.591736 541.033264,628.123230 
	C539.366577,625.077148 538.159851,621.927673 539.211243,618.305969 
	C539.472534,617.405823 539.094421,616.318481 539.003418,615.317810 
	C538.461548,609.358948 538.897705,603.091736 537.142029,597.514709 
	C534.590881,589.410583 538.647949,582.056824 538.075562,574.358887 
	C537.721375,569.596130 539.983459,565.072937 538.292908,560.041626 
	C537.331360,557.179993 538.832336,553.433655 539.422607,550.121094 
	C540.315491,545.110840 541.556335,540.158264 542.324951,535.131592 
	C543.107056,530.016663 543.496338,524.841675 544.086609,519.427002 
	C547.200684,518.673889 550.381287,517.904663 554.283081,516.961060 
	C551.913940,522.165894 557.001160,527.593872 552.409424,532.425598 
	C552.043518,532.810608 554.726135,535.420044 554.475769,536.698914 
	C553.080994,543.823181 552.992432,550.891785 553.270386,558.140686 
	C553.502014,564.181458 551.949768,570.286072 551.269348,576.371582 
	C551.176453,577.201843 551.557373,578.085022 551.718872,578.943726 
	C552.351624,578.347229 552.882812,577.499634 553.633911,577.195801 
	C557.864929,575.484253 562.093628,573.734497 566.427979,572.319153 
	C572.287720,570.405701 572.417786,570.216858 568.452515,565.740234 
	C572.940430,549.793274 571.512634,532.985229 576.102905,515.819214 
	C579.655151,519.372620 584.492004,520.097473 582.568848,526.220581 
	C581.919800,528.287231 583.923401,531.051453 584.045837,533.529968 
	C584.201355,536.678284 583.620483,539.857361 583.458862,543.028381 
	C583.257996,546.969666 583.159363,550.916077 583.019714,554.860413 
	C582.829102,560.243347 582.655212,565.626892 582.447021,571.009155 
	C582.332886,573.959900 582.140808,576.907593 582.028015,579.858398 
	C581.971802,581.327942 582.334595,582.888245 581.961304,584.258667 
	C579.622131,592.845215 581.705688,601.172974 583.108826,609.869385 
	C584.660950,608.743286 585.998657,607.772766 587.628601,606.590271 
	C586.463440,615.075928 585.003723,617.189819 580.603455,617.178406 
	C573.348572,617.159607 570.816650,615.423828 569.841553,609.533691 
z"/>
<path fill="#FFFFFF" opacity="1.000000" stroke="none" 
	d="
M600.991699,523.268433 
	C600.905273,515.052673 603.284668,507.827576 607.361450,501.320312 
	C609.745544,497.514923 616.552002,496.438232 620.178162,499.127258 
	C621.995300,500.474792 623.527405,503.135040 623.843506,505.390137 
	C624.557922,510.486542 624.416199,515.701111 624.680786,520.864685 
	C624.714417,521.521240 624.896118,522.417297 625.346924,522.766113 
	C628.698547,525.359558 627.850952,529.312012 628.754639,532.703064 
	C629.627014,535.976257 631.024841,538.866638 635.108643,538.990845 
	C635.752258,539.010437 636.759460,539.015503 636.972229,539.386414 
	C638.767700,542.517151 635.333069,550.041992 631.771057,550.985413 
	C625.306824,552.697510 620.392517,549.915833 617.901367,543.448303 
	C617.508423,542.428162 615.922058,541.867676 614.320312,540.670898 
	C613.642334,536.705200 612.849854,531.611145 611.776855,526.576904 
	C611.680359,526.124084 609.770508,526.057739 608.702759,525.811951 
	C608.278015,527.856323 606.969421,530.246521 607.606689,531.875366 
	C609.072021,535.620667 607.885803,539.660217 608.602905,542.681885 
	C609.771423,547.605774 606.835754,552.296265 609.254761,557.013306 
	C610.070129,558.603149 608.726440,561.300232 608.316040,563.819336 
	C613.563110,562.505615 617.826660,560.913330 622.182922,560.596558 
	C624.016296,560.463318 626.045593,563.024048 627.985779,564.360107 
	C627.007629,565.571899 626.269165,567.203125 625.009827,567.922913 
	C619.609314,571.009644 614.055420,573.828064 609.713440,576.131104 
	C609.093567,580.920471 608.636292,584.803772 608.068359,588.670837 
	C607.837219,590.244324 606.930054,591.830688 607.095459,593.326599 
	C607.423523,596.293152 607.675598,599.195496 604.055115,599.914551 
	C600.675720,600.585693 596.567505,597.000610 596.017822,593.657349 
	C595.077332,587.936768 593.508606,582.267334 593.153381,576.517822 
	C592.815247,571.045959 593.652771,565.496216 594.047058,559.986023 
	C594.346985,555.794922 594.753906,551.611206 595.146118,547.427307 
	C595.171143,547.159363 595.638855,546.697937 595.635132,546.695251 
	C590.691345,543.134216 596.377075,539.138367 595.352966,535.177429 
	C594.951782,533.625671 598.668457,531.239136 599.980408,528.931824 
	C600.821167,527.453064 600.694519,525.424316 600.991699,523.268433 
z"/>
<path fill="#FFFFFF" opacity="1.000000" stroke="none" 
	d="
M644.322632,591.794434 
	C645.838379,599.439209 645.110168,598.552856 640.065552,602.697388 
	C635.168335,606.720886 628.817505,606.738281 624.304077,610.181702 
	C614.817688,617.419067 602.345398,617.459167 592.698914,624.162231 
	C591.778198,624.802002 588.804749,622.487610 587.063599,621.675049 
	C587.411499,615.091614 590.838318,612.153259 596.529175,610.660339 
	C598.943054,610.026978 600.805115,607.462036 603.059509,605.992065 
	C604.727234,604.904541 606.551331,603.952087 608.433411,603.319275 
	C612.472656,601.961243 616.605042,600.882202 620.674438,599.609497 
	C621.580688,599.326050 622.584351,598.898987 623.203979,598.225769 
	C628.304932,592.684082 635.447998,591.596680 642.126404,589.550964 
	C642.530212,589.427246 643.402222,590.831848 644.322632,591.794434 
z"/>

</svg>