<svg version="1.1" id="Layer_1" xmlns="http://www.w3.org/2000/svg" xmlns:xlink="http://www.w3.org/1999/xlink" x="0px" y="0px"
	 width="65%"  viewBox="0 0 770 499" enable-background="new 0 0 770 499" xml:space="preserve">
<path fill="#FFFFFF" opacity="1.000000" stroke="none" 
	d="
M160.013290,317.709595 
	C158.268127,313.513977 156.528549,309.730286 154.806335,305.938721 
	C154.500305,305.264954 154.228821,304.570343 154.005219,303.865112 
	C152.373108,298.717682 149.494293,293.544281 149.578705,288.421417 
	C149.635330,284.984009 148.010284,282.840393 147.681671,279.982208 
	C141.324585,281.746216 136.132278,286.209747 129.122421,285.140686 
	C125.959236,284.658295 120.521004,291.926056 121.911362,293.924957 
	C123.840462,296.698364 123.835983,296.687988 120.595650,298.081909 
	C120.344658,298.189880 120.217476,298.585663 121.125343,299.210175 
	C120.419243,301.624390 119.497627,303.999390 119.049355,306.460571 
	C117.919212,312.665466 117.014534,318.911255 115.991524,325.136017 
	C115.732956,326.709381 115.349121,328.261780 115.059311,329.830536 
	C114.660851,331.987427 114.297081,334.150726 113.718605,337.451660 
	C113.747765,337.439301 112.470474,337.981049 111.131180,338.549072 
	C111.123344,340.791931 109.485809,343.856903 112.826408,343.442169 
	C111.852242,347.032867 111.046410,350.522034 109.950706,353.917603 
	C108.389587,358.755554 107.193016,363.864563 104.662338,368.164246 
	C103.577194,370.007935 99.586731,370.443970 96.813484,370.918182 
	C93.014458,371.567780 89.279060,370.277588 85.827759,374.248291 
	C82.213875,378.406006 74.514221,375.496613 71.884621,370.224762 
	C71.091431,368.634552 68.272293,367.817505 67.916801,366.289124 
	C66.647247,360.830719 62.023685,355.777069 65.484276,349.550323 
	C65.756844,349.059875 64.474693,347.705383 63.919865,346.760559 
	C64.955788,346.048706 65.852425,345.432587 65.626564,345.587799 
	C64.922386,342.674805 64.417221,340.585114 63.849453,338.236420 
	C65.340714,338.074890 66.465149,337.953094 67.225945,337.870697 
	C68.189880,332.750854 67.858879,327.014801 70.409424,323.210693 
	C72.659126,319.855255 74.666794,316.715546 75.567848,312.871460 
	C76.806038,307.589172 77.441444,302.120483 79.179703,297.019440 
	C80.053513,294.455200 79.736671,290.726807 83.654495,289.497833 
	C84.474060,289.240784 84.683800,286.700104 84.979645,285.174011 
	C86.050774,279.648743 87.038872,274.107391 88.058304,268.572113 
	C97.446991,264.136993 94.287140,254.429596 96.949013,247.186615 
	C98.653198,242.549530 99.510208,237.605667 101.119598,232.927505 
	C102.146790,229.941681 104.111938,227.284149 105.199402,224.312149 
	C106.997490,219.398041 108.290840,214.300522 110.048378,209.369934 
	C111.870010,204.259567 114.050575,199.278229 115.953156,194.195160 
	C116.793510,191.949997 117.157951,189.521255 118.055771,187.304367 
	C119.295937,184.242126 120.748901,181.256378 122.265266,178.317627 
	C125.725685,171.611267 129.192795,164.702011 126.861458,157.025696 
	C124.929726,150.665115 127.893631,145.300980 128.831970,139.513916 
	C129.113693,137.776474 129.676346,136.085754 129.985519,134.351379 
	C130.743073,130.101608 131.121719,125.758148 132.217789,121.601341 
	C133.661453,116.126205 137.532913,114.846512 143.401840,114.807114 
	C152.600723,114.745346 156.276917,119.847115 158.012695,127.684151 
	C158.048141,127.844154 157.973480,128.119415 158.052795,128.165924 
	C166.147461,132.911911 162.529358,141.680069 164.807098,148.411850 
	C166.404694,153.133453 165.610550,158.464600 167.802811,163.344681 
	C168.851837,165.679825 167.379318,169.045029 168.097687,171.655029 
	C169.226593,175.756577 171.855698,179.483917 172.730316,183.607117 
	C173.871368,188.986450 173.809158,194.610947 174.473938,200.104645 
	C174.997421,204.430725 176.366699,208.715424 176.391708,213.024109 
	C176.417908,217.536713 180.769394,220.783722 178.893768,226.051025 
	C177.808945,229.097504 179.694107,233.201553 180.314682,237.306412 
	C187.286789,237.306412 194.062134,237.306412 201.025543,237.306412 
	C198.981903,229.942947 202.300980,222.944763 209.066986,218.971878 
	C213.057831,216.628479 216.879211,213.991196 220.913727,211.730453 
	C222.235825,210.989594 223.988892,211.017838 226.163086,210.565857 
	C227.074127,196.017456 227.999908,181.233475 228.975433,165.655243 
	C226.040512,166.187973 223.502640,166.648621 221.608566,166.992416 
	C222.120941,171.798248 222.952515,175.920898 222.897034,180.031570 
	C222.831360,184.898346 218.592026,187.539841 213.831055,186.383240 
	C212.409317,186.037857 210.886200,186.088623 209.406769,186.008728 
	C208.244415,185.945953 207.036102,186.151962 205.920715,185.907593 
	C202.078094,185.065720 194.219971,176.271606 194.074005,172.199493 
	C193.886581,166.970505 191.801376,161.351547 195.101517,156.601212 
	C197.789703,152.731735 198.349838,147.320007 205.491394,146.613022 
	C212.714172,145.898010 219.624619,142.103104 226.696701,139.731400 
	C228.218857,139.220932 229.847305,139.027405 231.445099,138.683945 
	C230.729523,129.390625 238.727173,120.988632 247.531830,122.024475 
	C253.074493,122.676544 252.167770,127.308060 252.567810,130.868973 
	C252.810440,133.028732 252.222595,135.281815 252.039047,137.171509 
	C260.741882,138.244324 269.267853,139.165131 277.747833,140.401550 
	C281.396637,140.933548 285.133789,141.570358 286.283417,146.360916 
	C286.503265,147.276855 289.814697,147.284286 291.548218,148.052734 
	C293.124084,148.751282 295.464996,149.662231 295.791443,150.916183 
	C297.489563,157.438873 299.088898,164.049362 299.879700,170.729080 
	C300.708099,177.726517 298.206512,184.124603 294.000885,189.730911 
	C290.465942,194.443130 286.820007,199.079865 283.046173,203.602310 
	C280.604401,206.528442 277.957458,209.309769 275.177460,211.915955 
	C273.818726,213.189728 271.946350,213.915588 268.975098,215.680099 
	C272.092957,216.590637 274.496979,217.862793 276.920380,217.900803 
	C286.898590,218.057251 296.471222,220.278854 305.470459,224.198334 
	C309.773041,226.072296 313.241852,229.925201 316.973297,233.020432 
	C319.001190,234.702591 320.788086,236.675323 323.804443,239.605865 
	C323.123322,233.062439 322.532928,227.545807 321.980347,222.025391 
	C321.624878,218.474380 321.479187,214.895294 320.963928,211.369049 
	C320.195496,206.109955 318.632263,200.911377 318.393494,195.642349 
	C317.928345,185.378067 317.795105,175.065521 318.297699,164.810883 
	C318.448090,161.742477 320.974579,158.675751 322.796509,155.856415 
	C323.608215,154.600342 325.788391,152.884369 326.632904,153.213043 
	C331.901642,155.263580 333.700745,151.048935 334.761383,148.076065 
	C336.239777,143.932327 338.538269,140.795502 342.086792,138.808640 
	C346.272034,136.465286 350.050995,133.847458 353.384674,130.353729 
	C354.489197,129.196136 357.073761,128.936020 358.911316,129.092346 
	C363.769012,129.505630 368.553925,128.703445 373.571045,129.533813 
	C377.942352,130.257324 382.661896,129.315063 386.712036,132.018478 
	C391.804962,135.417938 397.124756,138.584244 401.755310,142.542862 
	C407.550110,147.496765 409.777740,154.717270 412.322357,161.689026 
	C413.294861,164.353546 416.154022,166.409882 416.845734,169.081879 
	C419.210510,178.216904 420.973877,187.506866 423.017517,196.726440 
	C423.417755,198.532028 424.045197,200.287262 423.753571,202.134811 
	C423.944672,204.361877 424.236206,206.586487 424.290314,208.816864 
	C424.324371,210.222900 424.003235,211.637527 423.764343,213.720612 
	C428.939148,216.990601 422.135986,220.104813 421.769318,224.244568 
	C423.416748,223.684402 424.392303,223.352692 426.561249,222.615189 
	C425.522003,225.729431 424.744965,228.057877 423.967957,230.386322 
	C423.409912,230.262650 422.851898,230.138977 422.293854,230.015305 
	C422.691559,231.273331 422.735504,232.867630 423.552460,233.727158 
	C426.140381,236.449936 426.252075,236.343765 422.693481,237.905533 
	C423.800507,238.749527 424.742920,239.468033 425.714630,240.208893 
	C422.662598,242.511276 420.138763,251.570557 421.374664,255.079666 
	C421.555450,255.592834 420.979553,256.384796 420.724426,257.036255 
	C420.328033,258.048553 419.261017,259.449219 419.597534,259.994507 
	C422.289673,264.356720 418.573761,268.348633 419.036285,272.620056 
	C419.276642,274.839966 417.604095,277.220551 417.037140,279.586426 
	C416.366089,282.386658 416.225769,285.338531 415.330109,288.051239 
	C414.796143,289.668427 413.008453,290.830627 412.220337,292.414337 
	C410.956726,294.953491 410.087402,297.686249 408.990540,300.311737 
	C407.954590,302.791473 407.016327,305.337860 405.701569,307.666595 
	C404.738800,309.371918 402.969604,310.626007 402.028656,312.338776 
	C399.984009,316.060638 398.093323,319.617371 393.528748,321.033417 
	C387.977600,322.755554 382.709045,326.022308 377.087250,326.697449 
	C371.884644,327.322266 365.702515,327.818115 361.629456,322.360413 
	C360.993622,321.508453 359.318817,321.321442 358.075592,321.054688 
	C354.849548,320.362457 352.799561,318.947754 351.567810,315.441467 
	C350.469025,312.313690 347.492462,309.900238 345.759033,306.929688 
	C341.853607,300.236938 337.247192,293.938232 335.830292,285.929199 
	C335.219849,282.478424 332.774017,279.352356 331.005432,275.760803 
	C328.968506,285.686737 326.807404,295.334351 319.186829,304.183228 
	C318.338226,309.583496 314.877502,314.919189 309.114532,319.169098 
	C307.414246,320.422974 307.593201,324.431915 305.887115,325.432465 
	C300.759949,328.439301 298.946472,335.547028 291.863281,336.198212 
	C290.091522,336.361145 288.041718,338.670563 286.998444,340.495728 
	C284.918762,344.134125 281.778107,345.158600 278.044769,346.179291 
	C275.452179,346.888153 273.310638,349.261536 270.981445,350.910858 
	C270.119171,351.521484 269.204773,352.830109 268.470825,352.725128 
	C263.685089,352.040649 260.379974,354.524658 257.083344,357.375458 
	C256.021729,358.293457 254.534042,358.718750 252.887848,359.547363 
	C253.760483,364.964417 254.860992,370.494751 255.429031,376.079193 
	C255.610184,377.860077 254.377823,379.784760 253.792206,381.643646 
	C252.397049,381.136414 250.766556,380.934204 249.646667,380.070190 
	C244.230576,375.891541 239.149063,371.558044 236.734207,364.624542 
	C235.463501,360.976166 232.066864,359.008850 227.759796,360.669739 
	C227.606308,360.728943 227.480286,360.876099 227.325211,360.911926 
	C225.553040,361.321259 210.915680,356.381744 209.160217,355.831757 
	C202.587082,353.772461 200.207001,347.437164 196.031540,343.089081 
	C193.277313,340.221039 192.589172,335.360291 191.012924,331.377136 
	C190.706818,330.603607 190.571564,329.762482 190.357498,328.952545 
	C189.866699,328.972168 189.375900,328.991791 188.885101,329.011414 
	C188.885101,331.889130 189.379456,334.877899 188.764053,337.617371 
	C187.934113,341.311859 186.501846,344.938080 184.828140,348.348267 
	C183.967026,350.102753 177.772202,348.138824 176.115067,345.273773 
	C173.822327,341.309692 171.999939,337.073517 169.978271,332.952820 
	C169.834885,332.660614 169.789581,332.202942 169.562759,332.086182 
	C163.855652,329.147644 162.994324,322.913361 160.013290,317.709595 
M353.000305,188.491150 
	C351.751038,190.406799 350.625458,192.419434 349.219849,194.212494 
	C347.622803,196.249771 344.719666,208.302658 346.302948,209.360962 
	C350.990234,212.493988 348.512695,217.405243 349.791260,221.317596 
	C351.168762,225.532883 350.467651,230.384399 351.479218,234.772583 
	C352.938477,241.102829 355.205505,247.242722 356.967377,253.508942 
	C357.915344,256.880310 358.017639,260.569733 359.398926,263.722412 
	C362.327881,270.407471 365.683441,276.924683 369.232727,283.305664 
	C370.133026,284.924225 372.417542,285.772858 374.066010,286.975250 
	C375.044403,285.592041 376.056519,284.230865 376.982819,282.813599 
	C377.304047,282.322083 377.436646,281.699005 377.614594,281.123352 
	C379.415558,275.296814 381.564941,269.547333 382.889618,263.613953 
	C383.944244,258.890015 383.685333,253.882370 384.599579,249.113815 
	C385.122589,246.385880 387.527557,243.965607 387.841309,241.262451 
	C388.394409,236.497009 388.113800,231.615936 387.904572,226.795319 
	C387.857330,225.706451 386.670990,224.667023 385.997223,223.585907 
	C387.501465,222.947418 388.777771,222.405685 390.325928,221.748550 
	C385.258850,217.465637 389.047913,212.636169 389.003357,208.188950 
	C387.529724,208.037125 386.431671,207.923996 385.745636,207.853317 
	C386.088196,206.282227 386.897919,204.714050 386.629547,203.359406 
	C386.043823,200.402542 384.767151,197.589966 384.032623,194.653442 
	C382.865875,189.988922 382.688446,184.895355 380.649597,180.681473 
	C378.595978,176.437057 374.680786,173.120453 371.774353,169.252228 
	C369.790497,166.611923 368.176483,165.699265 365.633362,168.729935 
	C361.343811,173.841965 355.002777,177.535278 354.794952,185.356918 
	C354.773956,186.148193 353.649933,186.910172 353.000305,188.491150 
M189.994370,316.334412 
	C189.994370,319.202454 189.994370,322.070496 189.994370,323.980103 
	C193.099396,323.980103 195.811981,323.194946 197.695969,324.112000 
	C207.359482,328.815887 217.043976,328.554901 227.216873,325.717102 
	C226.823715,322.333923 225.519989,319.128815 226.354080,316.640289 
	C228.141495,311.307495 225.672348,306.286560 226.305817,301.284210 
	C226.736771,297.881073 224.282440,295.286652 225.606979,291.384369 
	C227.102829,286.977386 228.943634,281.360046 224.528519,276.575867 
	C223.737534,275.718811 225.150223,272.851593 225.506683,270.905396 
	C225.865005,268.949188 226.580475,266.949554 226.416916,265.030548 
	C226.126709,261.625763 225.290161,258.267487 224.466003,253.688644 
	C218.137161,250.234818 211.500000,254.416779 205.101578,257.794281 
	C198.881058,261.077881 193.169266,265.325256 186.576813,269.572937 
	C187.153992,271.419983 187.889465,273.773651 188.624939,276.127350 
	C188.726166,279.169342 187.596741,282.634003 187.113922,286.186554 
	C186.874512,287.948181 187.846069,289.866791 188.228394,291.722931 
	C188.519180,293.134644 188.802551,294.552246 188.989166,295.980316 
	C189.765182,301.919403 190.957169,307.854370 189.075287,313.826294 
	C188.941788,314.249969 189.638336,314.935272 189.994370,316.334412 
M290.143738,284.326965 
	C294.361725,284.530121 293.238281,280.665497 293.876831,278.730621 
	C295.746155,273.066498 296.221497,267.157410 293.769928,261.417023 
	C293.037262,259.701569 292.126740,258.062042 291.544006,256.885101 
	C277.742920,250.281631 263.120056,249.351456 248.031631,248.867355 
	C249.056168,272.139801 250.063828,295.028809 251.108582,318.760315 
	C255.928040,317.000366 260.502136,316.134064 264.093628,313.773010 
	C267.160980,311.756561 268.597382,307.298584 271.636566,305.192200 
	C279.353729,299.843506 285.463165,293.319611 290.143738,284.326965 
M269.531036,169.076889 
	C268.230957,168.055908 267.063721,166.459381 265.605682,166.122849 
	C261.386505,165.149078 257.063843,164.404831 252.751480,164.195557 
	C251.555557,164.137543 249.339783,166.129532 249.161209,167.401306 
	C248.440674,172.533112 248.257034,177.747665 248.027649,182.938416 
	C247.880585,186.266098 248.000076,189.605560 248.000076,192.978836 
	C250.636703,191.412399 252.655365,190.383881 254.478836,189.082001 
	C256.324066,187.764557 258.087341,186.286652 259.681549,184.676132 
	C261.281250,183.060013 262.322083,180.722000 264.150055,179.536057 
	C267.821747,177.153915 270.308563,174.395676 269.531036,169.076889 
M136.500778,238.061813 
	C135.472351,241.153824 134.443909,244.245834 133.337448,247.572418 
	C140.311157,247.938736 144.318359,244.371216 142.971024,239.969940 
	C142.238083,237.575729 141.626495,235.144363 140.783463,232.089386 
	C140.351608,231.953461 138.902298,231.497299 136.857773,230.853821 
	C137.024033,233.516586 137.162994,235.741989 136.500778,238.061813 
z"/>
<path fill="#FFFFFF" opacity="1.000000" stroke="none" 
	d="
M503.203094,318.327881 
	C499.815765,318.697998 496.592926,319.374725 493.641052,318.756775 
	C487.932831,317.561768 482.462341,315.172333 476.738281,314.126129 
	C468.599854,312.638550 466.283875,306.032623 462.984833,300.104126 
	C462.122070,298.553680 461.025116,297.135345 460.114044,295.609528 
	C458.726959,293.286499 457.745392,290.628265 455.999695,288.629303 
	C449.790344,281.519012 447.865417,272.318665 443.783936,264.185883 
	C440.168091,256.980957 438.055908,249.203094 436.841736,241.130890 
	C436.309479,237.592270 433.623566,234.425140 432.696564,230.884857 
	C431.784424,227.401382 431.955780,223.646164 431.465607,220.035431 
	C431.202789,218.099152 430.586700,216.205429 430.062408,214.311218 
	C429.180054,211.123474 427.900024,208.003952 427.397034,204.761169 
	C426.078888,196.262817 425.103699,187.711594 423.964539,179.185074 
	C423.262329,173.929306 421.811920,168.656845 421.986725,163.435059 
	C422.145355,158.698090 420.565735,153.521591 423.930145,149.092682 
	C424.662872,148.128159 424.904480,146.716797 425.150330,145.467545 
	C427.707855,132.470245 445.757935,129.207840 453.893890,133.265289 
	C458.637360,135.630859 463.424774,139.703690 465.893280,144.255280 
	C467.794128,147.760086 466.521912,153.270493 465.848236,157.767380 
	C465.509003,160.031799 460.279236,160.343658 457.861328,159.744614 
	C456.051300,159.296204 453.837128,160.859863 451.784637,160.921783 
	C448.580139,161.018463 448.507935,162.387924 448.829987,165.126175 
	C449.593811,171.620224 449.108551,178.333817 450.479675,184.666000 
	C452.326782,193.196121 455.472961,201.442444 458.008057,209.826736 
	C460.822754,219.135742 463.619110,228.450760 466.334015,237.789169 
	C467.227356,240.862015 467.382202,244.225052 468.684357,247.087036 
	C471.049500,252.285507 474.098938,257.167969 476.720428,262.255707 
	C480.110443,268.835052 482.567810,275.969604 488.077881,281.262146 
	C489.451599,282.581635 491.052307,283.664764 491.895935,284.336670 
	C494.913666,279.433746 497.847595,275.725037 499.585602,271.521820 
	C501.084442,267.897003 501.314484,263.723816 501.939117,259.766815 
	C502.862915,253.914948 503.599274,248.033630 504.501801,242.178162 
	C504.793243,240.287460 505.559387,238.459778 505.756195,236.566650 
	C506.274170,231.583649 506.588043,226.579651 507.004761,221.585815 
	C507.214294,219.074219 507.470612,216.566528 507.828979,212.743073 
	C506.416351,211.155670 504.018921,208.274292 505.966614,204.083588 
	C506.031189,203.944687 506.034729,203.736038 505.982391,203.590103 
	C503.014984,195.312271 507.299133,185.769424 500.708984,177.864838 
	C497.295441,173.770432 496.037903,167.935684 493.464142,163.068130 
	C490.811340,158.051132 489.827423,157.730698 485.984009,161.749329 
	C483.192444,164.668121 480.016785,165.995850 476.389496,166.876358 
	C472.418060,167.840424 471.367279,166.804016 471.982269,162.695297 
	C473.007751,155.843842 473.249878,148.755722 475.263672,142.210892 
	C476.769775,137.315994 480.789978,133.889618 486.616699,132.601562 
	C494.865021,130.778198 503.241333,129.004578 510.806091,133.187988 
	C516.994751,136.610413 522.994751,140.943970 525.182678,148.777084 
	C526.135925,152.189774 529.300537,154.664612 530.411072,158.507599 
	C532.407654,165.416946 536.379822,171.743805 536.085266,179.330170 
	C536.049316,180.254379 537.026917,181.294434 537.698120,182.153122 
	C538.955261,183.761551 539.782288,184.690994 538.568542,187.361496 
	C537.318665,190.111435 538.540405,194.015945 538.787415,197.407501 
	C539.141663,202.272110 539.154602,207.215988 540.092041,211.972534 
	C542.145020,222.389969 539.921997,232.388885 538.078735,242.494247 
	C537.669800,244.736603 538.582642,247.234909 538.105408,249.446732 
	C537.275391,253.293228 535.796875,256.996582 534.676453,260.785400 
	C534.312500,262.016083 533.873169,263.378204 534.055847,264.591827 
	C535.270264,272.664307 531.330383,279.681671 528.611572,286.586731 
	C526.858582,291.038818 524.747620,295.278168 523.924377,300.066223 
	C523.742065,301.126434 523.199890,302.477142 522.378174,303.019440 
	C515.630371,307.473022 512.446655,316.407867 503.203094,318.327881 
z"/>
<path fill="#FFFFFF" opacity="1.000000" stroke="none" 
	d="
M589.125305,213.685852 
	C589.803833,212.828598 590.894165,212.380051 590.905884,211.905014 
	C591.032104,206.766296 591.354919,201.591553 590.910889,196.488693 
	C590.134583,187.567703 588.533875,178.757980 590.836426,169.756226 
	C591.634766,166.635010 590.664429,163.086746 590.681396,159.734451 
	C590.708069,154.441376 590.773010,149.142670 591.071411,143.860458 
	C591.156982,142.345352 592.102356,140.878784 592.897644,138.730438 
	C591.420532,136.470490 588.774292,136.432495 584.972717,136.741196 
	C577.980286,137.308960 570.805237,136.761948 563.817383,135.838821 
	C559.413696,135.257080 556.279175,131.050598 555.453247,127.377701 
	C554.245117,122.005302 554.661377,116.109947 555.359314,110.559952 
	C555.576660,108.831505 558.844910,107.339745 560.896240,106.018845 
	C565.467712,103.075157 570.815674,103.664452 575.889282,102.983879 
	C583.915649,101.907211 591.925781,100.709709 599.949585,99.612854 
	C600.773376,99.500244 601.653015,99.841942 602.489868,99.771507 
	C605.858337,99.487930 609.223999,99.158417 612.582764,98.776253 
	C614.019653,98.612755 615.435242,98.069145 616.863770,98.056404 
	C625.813477,97.976517 634.764221,97.965981 643.714355,97.995422 
	C650.967163,98.019272 658.243164,97.800903 665.464722,98.312523 
	C670.913696,98.698570 676.360474,99.792313 681.681885,101.089485 
	C685.852966,102.106262 689.944580,103.670631 693.846619,105.477493 
	C695.840515,106.400803 697.193359,108.630127 694.981140,110.700165 
	C692.856201,112.688576 690.473999,114.480911 687.972290,115.968185 
	C684.792725,117.858505 681.521790,119.784935 678.039795,120.942207 
	C666.512329,124.773453 654.907227,128.384872 643.251892,131.808502 
	C640.182739,132.710052 636.830688,132.691101 633.598450,132.984375 
	C629.221558,133.381531 627.927612,136.296463 627.423157,140.079025 
	C627.128662,142.287048 626.323975,144.434189 626.106812,146.643890 
	C625.618652,151.610825 624.273193,156.832153 625.281494,161.518585 
	C626.445068,166.926239 626.149353,171.736969 625.309631,177.073990 
	C624.638672,181.338379 626.542908,185.982666 627.104980,190.483200 
	C627.255493,191.688538 626.496948,192.983414 626.486145,194.240021 
	C626.476501,195.372955 626.593872,196.754242 627.226807,197.596298 
	C628.753906,199.627914 630.731812,201.347015 627.340332,203.488037 
	C627.014282,203.693848 627.592285,205.198242 627.606873,206.102127 
	C627.650391,208.801682 627.622498,211.502380 627.622498,214.485672 
	C630.373962,215.772964 630.232361,215.681396 628.587158,218.225601 
	C627.961975,219.192505 627.915833,220.707642 628.016296,221.939423 
	C628.426392,226.967422 628.821411,232.008392 629.565186,236.993362 
	C630.081238,240.451904 631.435181,243.792953 631.857300,247.254471 
	C632.044617,248.790741 630.855591,250.494827 630.154236,252.518387 
	C630.892944,252.753525 631.877563,253.066940 632.335205,253.212601 
	C632.217285,255.634888 632.431396,257.937195 631.940674,260.077942 
	C630.373291,266.916443 633.563293,273.327087 633.460632,280.008209 
	C633.381226,285.173767 633.267700,290.338837 633.180908,295.504272 
	C633.111511,299.638123 633.276917,303.790833 632.925354,307.899841 
	C632.681213,310.752991 631.187561,313.563782 631.276978,316.360718 
	C631.349487,318.629578 629.655823,320.773865 631.474609,323.468201 
	C632.417969,324.865692 630.484192,328.118347 630.026733,330.565918 
	C628.961914,336.262817 627.789185,341.953796 627.095947,347.699738 
	C626.763123,350.458099 626.322754,352.524536 623.207214,353.006622 
	C619.765442,353.539154 617.395264,351.978546 616.056213,349.022247 
	C612.176819,340.457397 608.504944,331.798615 604.635437,323.229187 
	C602.795532,319.154663 600.648987,315.219269 598.756104,311.167267 
	C598.490601,310.598877 599.011169,309.711365 598.943481,308.992676 
	C598.787415,307.335510 598.544373,304.267578 598.247986,304.257019 
	C594.273560,304.115295 596.042053,300.722382 595.566833,299.144135 
	C594.319763,295.002594 596.780762,289.891479 592.237183,286.536163 
	C592.125183,286.453430 592.071106,286.234863 592.063599,286.076172 
	C591.713379,278.675873 591.332825,271.276215 591.131836,263.871735 
	C591.120728,263.462219 592.605896,263.012085 593.639893,262.446808 
	C592.444397,259.990540 587.143738,257.046326 593.750183,254.359222 
	C593.837036,254.323868 593.047546,252.105225 592.649231,250.911591 
	C591.722412,248.134247 587.854553,245.685150 591.791809,242.335327 
	C592.227478,241.964691 592.317871,240.462769 591.938660,239.975784 
	C589.172852,236.423767 590.797668,232.411377 591.224121,228.871201 
	C591.695496,224.958557 589.508301,222.041199 588.999939,218.573776 
	C588.764526,216.967865 591.823303,215.477066 589.125305,213.685852 
z"/>

</svg>