<svg version="1.1" id="Layer_1" xmlns="http://www.w3.org/2000/svg" xmlns:xlink="http://www.w3.org/1999/xlink" x="0px" y="0px"
	 width="100%" height="100%"  viewBox="0 0 499 499" >
<path fill="#FFFFFF" opacity="1.000000" stroke="none" 
	d="
M60.015686,275.368835 
	C60.685123,271.741821 61.243050,268.558044 62.017132,265.427704 
	C63.582668,259.096741 65.348915,252.814880 66.876869,246.475296 
	C68.464012,239.890106 69.267906,233.049286 71.504372,226.704498 
	C74.242928,218.935257 78.026230,211.524200 81.524498,204.036148 
	C84.068848,198.589966 86.529823,193.049484 89.698433,187.969208 
	C91.915543,184.414490 95.356789,181.642624 98.077545,178.376358 
	C100.141533,175.898544 102.022820,173.253479 103.815483,170.569336 
	C105.315865,168.322830 106.207878,165.576431 108.002892,163.638199 
	C112.970352,158.274384 117.836327,152.665024 123.552399,148.186539 
	C129.912659,143.203339 136.869812,138.723648 144.171860,135.323471 
	C147.242905,133.893463 149.026871,132.494263 149.951843,129.684265 
	C151.042847,126.369850 152.335938,124.178108 156.549332,123.757751 
	C159.797119,123.433746 162.727829,120.689507 165.986496,119.561470 
	C173.204941,117.062675 180.440842,114.489769 187.850937,112.696243 
	C201.345764,109.430000 214.920410,106.436760 228.556839,103.826355 
	C246.878799,100.319008 265.284271,97.243767 283.673004,94.094818 
	C285.919769,93.710091 288.285400,94.049133 290.594604,93.994797 
	C304.285431,93.672676 317.975098,93.102654 331.666687,93.054543 
	C351.792633,92.983810 371.693115,95.612244 390.949524,101.260460 
	C400.488770,104.058472 409.700165,108.007698 418.230042,114.085236 
	C425.596161,119.333633 433.377777,124.044563 439.152649,130.940018 
	C443.816711,136.509109 447.610687,142.979233 450.873260,149.508087 
	C455.403687,158.574036 457.229156,168.634872 456.792450,178.628647 
	C456.345184,188.862778 455.149872,199.170715 451.551361,208.992920 
	C450.299438,212.410110 450.265747,216.327896 448.743011,219.580414 
	C445.484192,226.541199 441.923859,233.404526 437.919952,239.961487 
	C433.152191,247.769348 428.496460,255.830307 422.525604,262.677094 
	C412.713135,273.929108 402.291962,284.736755 391.327148,294.865417 
	C384.596771,301.082550 376.359283,305.662811 368.829681,311.021820 
	C362.459717,315.555450 356.299622,320.407623 349.740326,324.644592 
	C343.874420,328.433624 337.632477,331.653320 331.478546,334.980072 
	C325.290680,338.325134 319.038483,341.555389 312.757050,344.722076 
	C304.207275,349.032379 295.691132,353.426086 286.996429,357.427307 
	C278.899078,361.153625 270.706757,364.743500 262.334106,367.781189 
	C254.538177,370.609680 246.492493,372.789276 238.478851,374.967987 
	C228.735352,377.616974 218.977783,380.295410 209.094971,382.320068 
	C203.237549,383.520050 197.126007,383.474396 191.130249,384.006226 
	C187.592880,384.319977 184.063202,384.876099 180.521835,384.955414 
	C173.702515,385.108246 166.856705,385.339691 160.059082,384.926453 
	C147.461914,384.160675 135.042374,382.245148 123.366104,377.055908 
	C115.863838,373.721710 108.351692,370.406738 100.913155,366.934967 
	C99.589935,366.317383 98.597733,364.982086 97.466728,363.962646 
	C91.144058,358.263550 84.820358,352.565582 78.521339,346.840485 
	C78.201080,346.549377 78.109734,346.008575 77.906052,345.586823 
	C72.800781,335.015259 65.818207,325.271271 63.056599,313.667694 
	C60.100975,301.248993 59.536949,288.567261 60.015686,275.368835 
M261.342407,354.962799 
	C272.418610,350.022186 283.548767,345.197968 294.552063,340.100006 
	C301.876495,336.706543 309.082977,333.042297 316.228241,329.282562 
	C325.011993,324.660675 333.791443,320.008118 342.349091,314.987579 
	C347.217896,312.131165 351.641388,308.515381 356.263489,305.238831 
	C363.106506,300.387848 370.101257,295.733643 376.741241,290.618958 
	C382.053345,286.527161 387.237549,282.173584 391.933838,277.400330 
	C399.030701,270.187256 405.764832,262.605316 412.435303,254.989334 
	C416.293396,250.584320 419.951355,245.962036 423.278656,241.146835 
	C426.160370,236.976471 428.361786,232.342819 431.018829,228.008896 
	C435.897034,220.051926 439.552155,211.662689 441.035919,202.368866 
	C442.232025,194.876617 444.102570,187.468201 444.889740,179.940582 
	C445.860779,170.654510 442.764160,161.860092 439.837433,153.226105 
	C438.938751,150.574982 436.242859,148.582596 434.687622,146.090332 
	C433.184113,143.680939 432.089783,141.016190 430.815735,138.463608 
	C429.008667,137.476105 427.389404,135.981049 425.839417,134.417343 
	C424.749390,133.317688 423.930817,131.862534 422.684326,131.019760 
	C417.883942,127.774200 412.904205,124.794548 408.093140,121.564125 
	C394.852753,112.673767 379.337830,110.139297 364.369934,106.420845 
	C357.185333,104.635986 349.367828,105.466652 341.849152,104.939156 
	C334.543701,104.426605 327.259460,103.257698 319.955688,103.162552 
	C310.398346,103.038040 300.830933,103.685188 291.267853,103.999695 
	C290.438171,104.026985 289.593506,103.957314 288.780792,104.087967 
	C280.789398,105.372704 272.817047,106.782616 264.812592,107.978233 
	C250.870300,110.060768 236.829926,111.588669 222.978760,114.149986 
	C209.873825,116.573326 196.903381,119.807648 183.983063,123.112473 
	C176.895462,124.925385 170.033600,127.620705 162.233414,130.194138 
	C168.730408,132.445480 174.017654,134.277634 179.304901,136.109772 
	C179.315491,136.677032 179.326080,137.244308 179.336670,137.811569 
	C177.263184,138.874252 175.265884,140.138031 173.100632,140.958511 
	C168.321686,142.769409 163.213043,143.873276 158.693726,146.163223 
	C153.531509,148.778946 148.676697,152.120026 144.026810,155.598419 
	C138.107925,160.026077 132.314941,164.674835 126.872215,169.669144 
	C122.705032,173.493011 119.042397,177.896912 115.380745,182.233154 
	C111.662743,186.636154 108.035965,191.141754 104.713715,195.845718 
	C101.766296,200.018921 98.966576,204.362900 96.679268,208.921341 
	C92.580353,217.090210 88.257713,225.246002 85.244202,233.833832 
	C81.880745,243.418945 79.795212,253.459854 77.291580,263.337402 
	C74.354149,274.926392 73.027832,286.758026 75.142982,298.543182 
	C76.848495,308.045898 76.525589,318.388275 83.983276,326.147034 
	C84.588829,326.777039 84.638428,327.919067 85.019394,328.791290 
	C86.479576,332.134369 87.640373,335.672150 89.566193,338.725159 
	C90.814423,340.704010 93.288788,341.871948 95.050011,343.572784 
	C98.312515,346.723511 100.975899,350.781860 104.733948,353.080353 
	C117.982933,361.183746 131.710327,367.784576 147.520538,370.353912 
	C159.452911,372.293060 171.227463,373.663849 183.198425,372.914520 
	C192.444809,372.335724 201.900925,372.007660 210.806961,369.758881 
	C227.558624,365.529083 243.980408,359.992798 261.342407,354.962799 
z"/>
<path fill="#FFFFFF" opacity="1.000000" stroke="none" 
	d="
M318.749939,132.014496 
	C322.880951,134.621017 326.629669,137.176056 330.313232,139.821762 
	C333.087128,141.814117 335.780548,143.918732 338.500366,145.985809 
	C338.761108,146.183975 339.091766,146.437576 339.159698,146.720703 
	C341.443298,156.237350 350.557312,157.096283 357.236389,161.049622 
	C358.265411,161.658707 359.348450,162.398819 360.018982,163.351166 
	C362.407928,166.743973 365.777191,167.551910 369.662292,168.184540 
	C372.136169,168.587372 374.325531,170.767242 376.630737,172.169556 
	C380.359161,174.437637 383.827057,177.443161 387.854767,178.843765 
	C395.490906,181.499191 407.704620,195.328201 407.712677,203.498550 
	C407.714478,205.329620 404.169800,208.695480 402.218872,208.724380 
	C394.908478,208.832703 390.066833,212.959381 385.180328,217.337097 
	C381.194946,220.907516 377.175110,224.450684 373.380676,228.217636 
	C371.817108,229.769928 370.803589,231.876251 369.424713,233.899582 
	C370.129517,234.404617 371.102356,235.101746 372.075226,235.798859 
	C371.236237,235.072556 370.397247,234.346237 369.558258,233.619919 
	C368.591248,236.077225 368.065857,240.327362 366.583557,240.692444 
	C358.673065,242.640793 353.880371,248.045181 348.945251,253.836868 
	C341.103699,263.039459 332.838074,271.883270 324.674652,280.808258 
	C316.448975,289.801331 308.210480,298.785736 299.808777,307.613281 
	C296.634094,310.948914 292.941071,313.786102 289.578033,316.950134 
	C288.249420,318.200073 287.248871,319.792938 285.965637,321.098633 
	C284.750275,322.335266 283.360413,323.400360 281.334015,325.160400 
	C281.816467,313.323090 323.301483,256.302124 338.733276,245.729828 
	C333.740509,245.446426 329.835632,245.114914 325.925446,245.030029 
	C320.784912,244.918427 315.624268,244.746216 310.501526,245.067200 
	C304.653381,245.433640 298.847137,246.423752 293.004669,246.938583 
	C287.457397,247.427414 281.890900,247.754669 276.325745,247.971451 
	C265.759399,248.383057 255.185867,248.612015 244.619919,249.032379 
	C241.366196,249.161865 238.134293,249.778412 234.880508,249.979965 
	C223.287903,250.697983 211.688690,251.308548 200.094879,252.007812 
	C190.604416,252.580231 181.120300,253.531158 171.628296,253.598495 
	C169.441635,253.614014 165.882828,251.047119 165.376373,249.053574 
	C164.734543,246.527084 167.745895,245.326050 170.642365,244.915924 
	C178.314056,243.829727 185.925674,242.321289 193.564316,240.998901 
	C199.418610,239.985413 205.277649,238.999344 211.134598,238.001129 
	C223.255783,235.935318 235.365326,233.797577 247.502182,231.828247 
	C256.094177,230.434097 264.744446,229.394653 273.328369,227.956421 
	C279.342804,226.948715 285.258698,225.350601 291.274719,224.355255 
	C297.337555,223.352158 303.539886,223.120132 309.555573,221.920578 
	C319.471893,219.943192 329.766724,220.157272 339.407928,216.405746 
	C341.823547,215.465775 344.937592,216.236801 347.724426,216.360840 
	C350.005341,216.462387 352.275604,216.788406 354.553223,216.983795 
	C357.455414,217.232773 360.399292,217.847137 363.252777,217.566788 
	C365.954193,217.301422 368.966949,216.662231 371.121338,215.155746 
	C374.867798,212.535965 377.977783,209.024017 381.522339,206.088654 
	C382.957520,204.900146 384.832794,204.243073 387.006104,203.076752 
	C380.483582,200.335999 374.007446,197.823532 367.714874,194.914001 
	C360.926605,191.775238 353.816864,193.565338 346.863434,193.109665 
	C344.642303,192.964096 342.372223,193.886475 340.111908,193.967514 
	C319.959381,194.690079 299.803680,195.323746 279.649658,196.004822 
	C270.566040,196.311768 261.471588,196.471268 252.404495,197.049637 
	C241.134766,197.768509 229.902237,199.163818 218.626846,199.667526 
	C211.126389,200.002594 203.579269,199.117050 196.052704,199.110001 
	C191.590576,199.105820 187.132202,199.957886 182.664398,200.050140 
	C175.513565,200.197784 168.326813,200.417236 161.211975,199.869461 
	C156.325211,199.493225 154.896271,196.187775 154.934753,189.786636 
	C154.963089,185.075943 158.552094,184.493240 161.522705,184.125992 
	C172.052643,182.824173 182.653854,182.112610 193.205582,180.969696 
	C204.198914,179.778931 215.147903,178.159546 226.151428,177.088806 
	C233.312485,176.391983 240.572372,176.678314 247.723053,175.915543 
	C256.891602,174.937546 265.973328,173.161102 275.135864,172.105103 
	C279.404053,171.613174 283.812134,172.371857 288.090942,171.928299 
	C298.770691,170.821243 309.409210,169.320984 320.074463,168.064621 
	C321.339905,167.915573 322.665588,168.366562 323.968414,168.423309 
	C325.563477,168.492783 327.163940,168.439850 329.047302,167.350906 
	C326.337463,165.228683 322.954590,163.581421 321.053894,160.888138 
	C316.717621,154.743774 307.892883,151.516922 308.899811,141.753479 
	C309.521118,135.728882 311.970337,132.663025 318.749939,132.014496 
z"/>
</svg>