<svg version="1.1" id="Layer_1" xmlns="http://www.w3.org/2000/svg" xmlns:xlink="http://www.w3.org/1999/xlink" x="0px" y="0px"
	 width="100%" height="100%" viewBox="0 0 1199 500" enable-background="new 0 0 1199 500" xml:space="preserve">
<path fill="#FFFFFF" opacity="1.000000" stroke="none" 
	d="
M401.775726,205.579514 
	C401.856995,207.736069 401.276855,210.213470 402.139191,211.991135 
	C405.151581,218.200974 404.902405,224.774551 405.064453,232.497269 
	C407.821259,231.673462 410.204468,230.506271 412.661438,230.321884 
	C417.767303,229.938644 422.929565,229.781891 428.036499,230.081085 
	C433.379150,230.394119 438.764282,230.983856 443.984192,232.124008 
	C449.907776,233.417847 455.706665,235.342163 461.472290,237.255859 
	C462.822784,237.704132 464.730164,239.191742 464.754211,240.238556 
	C464.784973,241.577438 463.473602,243.598099 462.205780,244.201813 
	C457.060028,246.652115 451.874969,249.358002 446.393402,250.681412 
	C439.183441,252.422089 431.695587,253.076965 424.296997,253.939789 
	C421.193207,254.301758 418.010529,254.062103 414.866364,253.986526 
	C409.177429,253.849808 408.255035,254.667862 408.985321,260.598053 
	C409.411316,264.057373 410.566528,267.422394 411.241364,270.859741 
	C411.361481,271.471527 410.468872,272.241394 410.497894,272.918793 
	C410.636475,276.150818 410.943970,279.375275 411.166687,282.604126 
	C411.309814,284.679352 411.410187,286.757507 411.461884,287.655945 
	C414.575745,287.655945 417.737457,287.045410 420.491791,287.842590 
	C422.837646,288.521545 423.225616,285.951599 425.747070,286.310181 
	C430.506775,286.987122 435.583008,284.979309 440.497894,285.120850 
	C450.496521,285.408905 460.497101,286.185120 470.440887,287.272278 
	C472.096161,287.453217 474.145630,290.005127 474.739899,291.867584 
	C475.154297,293.166229 473.853271,295.849792 472.530731,296.726868 
	C464.910400,301.780426 457.327057,307.020355 449.186676,311.114532 
	C443.510986,313.969116 437.073853,315.763336 430.774200,316.801849 
	C423.866425,317.940613 416.716187,317.535187 409.689484,318.047546 
	C402.983459,318.536499 396.293335,319.276947 389.609344,320.024536 
	C383.218994,320.739258 377.483551,314.964752 377.823334,308.316650 
	C377.863892,307.523682 376.234741,306.645416 375.103088,305.535583 
	C379.465088,300.620758 378.118469,291.595917 386.361877,289.950012 
	C383.960266,283.417297 381.384796,277.123138 379.429443,270.641815 
	C378.872162,268.794647 376.583618,266.072723 379.915924,264.136749 
	C380.212189,263.964630 380.155060,262.808319 379.952789,262.214508 
	C378.581573,258.189026 377.107056,254.198807 375.726776,250.176315 
	C375.566101,249.708038 375.838318,249.108383 375.807465,248.575546 
	C375.637207,245.632782 375.485352,242.687454 375.229523,239.751541 
	C374.984863,236.943848 374.620758,234.146576 374.264679,230.944839 
	C376.384430,230.002380 375.928772,227.922195 374.262756,225.807007 
	C372.352142,223.381241 371.413940,224.808472 369.657074,226.539505 
	C364.225311,231.891495 358.354858,236.799820 352.630249,241.852661 
	C345.539032,248.111710 336.497498,250.047821 327.913940,253.024887 
	C326.432312,253.538773 325.254791,254.895508 323.785370,255.486176 
	C321.194611,256.527557 318.487152,257.278656 314.668610,258.532013 
	C315.058868,261.672852 315.605164,266.069763 316.143463,270.402008 
	C316.093964,270.389496 315.414124,270.217804 313.443176,269.719971 
	C314.458282,272.351929 315.179871,274.222809 315.981079,276.300140 
	C316.190979,277.697754 316.593842,279.476746 316.670471,281.269684 
	C316.709045,282.171783 316.014862,283.082886 315.906128,284.019409 
	C315.780945,285.097168 315.936462,286.207520 316.572540,287.289246 
	C314.375031,290.785034 314.287994,291.919861 316.658112,296.357269 
	C316.803772,296.629944 317.020691,297.141327 316.924896,297.226196 
	C313.503967,300.258026 318.136169,303.908417 316.146423,307.239166 
	C315.559540,308.221619 316.918060,310.231384 317.042358,311.797546 
	C317.516815,317.777344 317.927856,323.765076 318.174591,329.757599 
	C318.224518,330.970856 317.735962,332.423431 317.010834,333.408936 
	C315.177643,335.900482 315.352234,337.253693 318.195465,337.198303 
	C317.874542,340.208435 317.581085,342.960693 317.287628,345.712921 
	C316.835510,345.652344 316.383392,345.591766 315.931274,345.531219 
	C317.247101,349.914734 320.458771,354.884705 319.336121,358.513916 
	C318.251709,362.019440 319.837524,363.590515 320.191803,366.113098 
	C320.575928,368.848297 319.052856,371.795105 318.930695,374.673767 
	C318.811432,377.486115 319.453430,380.325562 319.671326,383.160034 
	C319.753113,384.224030 319.581970,385.307465 319.526184,386.382050 
	C319.055511,386.417511 318.584839,386.452972 318.114166,386.488464 
	C319.263519,388.164429 320.412903,389.840393 321.566193,391.522064 
	C318.825684,394.545410 319.332336,396.900574 322.955231,397.758392 
	C320.507721,400.746887 320.493256,401.976868 322.742767,405.378021 
	C322.989594,405.751251 323.088989,406.389679 322.960968,406.816345 
	C322.024323,409.938110 320.334015,413.008820 320.202667,416.150879 
	C320.053040,419.730774 320.829926,423.248077 320.145660,427.002502 
	C318.933899,433.651245 318.608734,440.461853 317.920197,447.205505 
	C317.575836,450.578094 317.248291,453.952362 316.894318,457.515656 
	C313.590393,458.709564 311.223694,457.745911 307.978638,455.860535 
	C299.689453,451.044586 295.832520,443.501068 291.491394,435.588989 
	C288.671997,430.450378 286.309448,425.639984 285.874939,419.846069 
	C285.837830,419.351257 284.864716,418.926666 284.284973,418.434235 
	C285.251648,417.743286 286.122986,417.120453 286.994324,416.497620 
	C282.502869,414.116272 288.241089,407.233063 282.283447,405.575439 
	C282.735321,404.232819 283.187866,402.888153 283.640411,401.543457 
	C283.224091,401.629517 282.807800,401.715576 282.391510,401.801636 
	C281.506866,393.960449 280.252319,386.138763 279.837982,378.272858 
	C279.393097,369.827026 279.737579,361.339569 279.737579,352.091125 
	C280.020355,352.192871 278.969696,351.814911 277.919037,351.436981 
	C278.410736,351.282715 278.902466,351.128418 279.394165,350.974121 
	C279.394165,347.859619 279.394165,344.745117 279.394165,341.628143 
	C279.911377,342.040405 280.575287,342.569550 281.827301,343.567474 
	C280.296722,336.581482 279.619598,330.327820 279.958466,323.968781 
	C280.307709,317.414764 280.476440,310.851135 280.727264,304.208771 
	C280.807159,304.182251 280.106232,304.414734 279.382874,304.654633 
	C279.274353,304.406830 279.070831,304.157867 279.071045,303.909058 
	C279.073242,301.457214 278.883881,298.977448 279.183197,296.559387 
	C279.783051,291.713196 280.819641,286.917755 281.321533,282.064697 
	C281.485779,280.476440 280.552460,278.774719 279.950592,276.472778 
	C280.000793,276.352203 280.878448,275.168427 280.931183,273.948944 
	C281.111023,269.791504 280.300720,265.461090 281.208252,261.503998 
	C282.023590,257.948944 281.359924,255.440125 280.310760,252.061981 
	C278.321106,245.655594 276.990326,238.496338 283.216614,232.918915 
	C283.581604,232.591949 283.598602,231.608688 283.448059,231.014282 
	C281.188965,222.094955 281.592377,213.195053 282.840118,204.144608 
	C283.390594,200.151810 281.011200,196.001328 282.928497,191.756927 
	C283.629181,190.205734 283.324921,188.151566 283.272614,186.332794 
	C283.251038,185.582245 282.686127,184.847351 282.816589,183.631531 
	C282.949493,181.739258 282.634064,180.320801 282.318634,178.902344 
	C281.733063,179.101028 281.147522,179.299713 280.561951,179.498398 
	C281.014496,180.640823 281.467072,181.783249 281.919617,182.925659 
	C277.560120,186.118988 273.555298,185.575027 268.960571,182.813782 
	C266.722565,181.468826 263.228119,182.260773 260.314362,181.966812 
	C259.402710,181.874847 258.246460,181.658783 257.683868,181.052505 
	C252.451797,175.414474 244.711624,171.506149 242.647049,163.731812 
	C241.438370,159.180405 243.119873,153.830460 243.665237,148.857727 
	C243.925674,146.482986 244.528839,144.141113 245.064514,141.804489 
	C245.202377,141.203156 245.538773,140.500473 246.010544,140.145355 
	C250.533234,136.741089 253.575256,131.831406 260.211945,130.657059 
	C266.061951,129.621902 272.674866,129.617142 277.776001,125.064896 
	C278.854980,124.102013 281.820709,125.347321 283.922485,125.420158 
	C292.697784,125.724289 301.479736,125.873230 310.249268,126.289253 
	C313.230652,126.430702 316.618774,126.435776 319.049042,127.839592 
	C322.988678,130.115295 327.099609,130.440018 331.323120,131.112762 
	C333.114563,131.398117 334.699615,132.922775 336.403809,133.836929 
	C337.229950,134.280075 338.276825,135.129852 338.947968,134.918747 
	C346.520142,132.536789 349.384338,140.026321 354.694489,142.323410 
	C356.321320,143.027176 357.924927,143.958893 359.273834,145.099930 
	C364.361420,149.403564 369.339752,153.836395 374.626099,158.454178 
	C376.273804,158.288910 378.841492,158.031372 380.580353,157.856979 
	C381.836395,155.462433 383.065399,153.459793 383.975372,151.321381 
	C386.784332,144.720383 388.694122,137.582001 392.441620,131.582001 
	C395.688477,126.383545 400.860687,122.343620 405.388611,118.007484 
	C407.725037,115.769997 410.260010,113.357964 413.172272,112.222336 
	C415.577271,111.284500 418.668945,112.151787 421.455841,112.134216 
	C423.430267,112.121773 425.417389,112.081963 427.374542,111.849670 
	C430.263580,111.506767 432.787354,111.581482 434.038483,114.901215 
	C434.422760,115.920807 435.216949,117.241417 436.117004,117.540382 
	C444.776093,120.416573 445.624634,128.725433 448.833099,135.406937 
	C449.595428,136.994431 450.802490,138.377686 451.493286,139.988525 
	C454.066101,145.987808 456.701721,151.972153 458.946747,158.096634 
	C461.194855,164.229507 463.805328,170.402206 464.768951,176.782196 
	C465.642548,182.566116 468.705872,188.104736 466.623596,194.515610 
	C465.605011,197.651611 467.305206,201.587814 467.311127,205.162628 
	C467.317169,208.789062 465.767548,210.580368 461.606110,209.283218 
	C456.145203,207.580994 450.490875,206.507523 444.982086,204.944046 
	C443.808655,204.611008 442.973022,203.224060 441.858856,202.516174 
	C439.839752,201.233337 437.682312,200.167236 435.671600,198.872543 
	C434.365265,198.031387 432.787964,197.189072 432.071014,195.927368 
	C428.894165,190.336716 425.463898,184.797058 423.143829,178.842133 
	C421.304047,174.119965 420.142456,169.138275 421.422211,163.544830 
	C421.965942,161.168457 418.163208,157.797607 415.985504,154.319168 
	C413.474518,158.411804 411.441345,162.158356 408.997650,165.614624 
	C404.485901,171.995941 403.529449,178.807602 405.640839,186.230453 
	C406.473572,189.158005 406.442108,191.843826 402.023773,192.776825 
	C401.450928,196.373962 400.795227,200.491592 400.737549,204.939102 
	C401.482269,205.372482 401.628998,205.475998 401.775726,205.579514 
M316.908417,161.976044 
	C312.747620,160.938293 308.586823,159.900558 303.697418,158.681107 
	C310.324341,166.680756 311.852570,175.283829 312.041656,184.346344 
	C312.090210,186.671402 312.652527,188.985733 313.103027,192.188004 
	C313.012115,192.263290 311.960236,193.134232 310.908356,194.005173 
	C311.329620,194.049988 311.750854,194.094818 312.172119,194.139633 
	C312.354706,198.161133 312.331818,202.206665 312.798523,206.194916 
	C313.069794,208.513245 313.706635,215.085953 313.435669,217.219406 
	C313.308075,218.224030 313.380951,219.823013 313.980133,220.219101 
	C314.903442,220.829453 316.415985,220.934662 317.571259,220.707779 
	C318.941406,220.438660 320.199585,219.594284 321.502991,218.992065 
	C325.128723,217.316818 329.271881,216.268539 332.255493,213.812317 
	C336.708130,210.146729 340.179352,205.317734 344.363495,201.290634 
	C351.024017,194.880127 350.557587,180.807556 342.918213,175.531418 
	C336.059662,170.794525 328.821442,166.598663 321.650360,162.332794 
	C320.638031,161.730576 319.055939,162.086014 316.908417,161.976044 
z"/>
<path fill="#FFFFFF" opacity="1.000000" stroke="none" 
	d="
M576.209106,273.711670 
	C581.503235,283.354248 587.044678,292.489197 591.398193,302.158936 
	C594.710022,309.515015 596.629944,317.516907 598.867432,325.318024 
	C599.227417,326.573090 598.429138,328.925903 597.400024,329.597900 
	C596.377625,330.265533 594.189453,329.863068 592.859985,329.215912 
	C588.259033,326.976166 582.817627,325.350525 579.507568,321.801544 
	C572.487000,314.274170 561.355774,311.163666 557.186279,300.708405 
	C554.037842,292.813477 546.848816,286.941803 544.777588,278.842102 
	C543.492004,273.814819 538.957275,271.169739 538.393677,265.551239 
	C537.875732,260.388794 533.730103,255.590286 531.130310,250.529510 
	C530.541687,250.706696 529.382324,251.055664 527.939087,251.490097 
	C528.979675,251.815201 529.725037,252.048096 530.993225,252.444305 
	C529.813171,252.819794 529.072876,253.055359 527.511169,253.552322 
	C529.445129,257.244324 531.307434,260.799500 533.252869,264.513336 
	C531.749207,264.312103 530.569885,264.154266 528.328674,263.854309 
	C529.562317,266.041504 530.502380,267.499237 531.199890,269.065033 
	C531.425964,269.572693 531.002686,270.361389 530.900024,271.025146 
	C530.437805,274.013153 527.807556,277.460297 532.649536,279.338745 
	C531.226074,281.088531 529.799011,282.834778 527.943848,285.104828 
	C529.379333,286.091400 530.893005,287.131653 531.673645,287.668182 
	C530.612061,291.245117 529.897461,293.993103 528.979980,296.671661 
	C527.224609,301.796570 525.783997,307.093323 523.409546,311.923950 
	C521.055969,316.712128 514.594421,319.104309 509.957977,316.865021 
	C502.772736,313.394684 495.568939,309.887146 493.670532,300.566040 
	C492.608643,295.352203 489.692749,290.536682 487.939606,285.429321 
	C487.460663,284.034058 488.165741,282.232361 488.463165,279.261292 
	C487.736328,274.839417 486.743073,268.796906 485.725342,262.605499 
	C486.004120,262.642517 486.908356,262.762573 487.014740,262.776672 
	C487.014740,253.155319 487.014740,243.829758 487.014740,234.223816 
	C487.318451,233.979843 488.154327,233.308365 488.990204,232.636871 
	C488.194977,231.882401 487.399719,231.127930 487.079590,230.824219 
	C487.514435,228.853256 488.290924,226.891144 488.283813,224.931885 
	C488.276581,222.935867 486.960846,220.864059 487.237091,218.974396 
	C487.438324,217.597748 489.294495,216.462982 490.412872,215.220367 
	C490.044312,214.869690 489.675720,214.518997 489.307129,214.168304 
	C489.058533,215.005783 488.809967,215.843277 488.561371,216.680756 
	C488.142700,216.445480 487.724030,216.210190 487.305359,215.974915 
	C488.332642,212.682495 491.514465,209.220306 487.211548,206.470184 
	C487.983856,203.519211 488.730804,200.665237 489.584991,197.401489 
	C489.139221,197.235367 488.217285,196.891800 487.060272,196.460632 
	C488.212616,196.113815 489.105591,195.845062 490.583740,195.400177 
	C489.279144,194.337265 488.365967,193.593277 487.251099,192.684937 
	C489.811035,191.507462 492.427582,190.236603 487.797302,188.297897 
	C489.447235,186.351883 491.398315,185.254318 488.605804,182.467010 
	C487.164429,181.028290 487.041718,176.493393 488.249603,174.562775 
	C490.442108,171.058456 488.169037,168.129898 488.528534,165.002609 
	C488.918365,161.611130 489.367279,158.224152 489.652252,154.823639 
	C489.870056,152.224594 490.154846,149.568924 489.806549,147.020935 
	C489.695831,146.211060 487.577759,145.001709 486.493652,145.111755 
	C480.863403,145.683350 476.660767,142.280655 474.050415,138.680130 
	C472.072571,135.952072 472.963776,131.007355 472.924591,127.045631 
	C472.877625,122.290565 475.939209,119.944016 480.207550,119.046501 
	C484.119446,118.223946 488.073669,117.564987 492.035767,117.030128 
	C495.603729,116.548477 499.220886,115.947937 502.793243,116.070808 
	C514.398560,116.469940 526.070435,115.974548 537.498718,118.947220 
	C546.178772,121.205048 555.103455,122.593208 563.665405,125.201683 
	C567.429077,126.348320 570.573120,129.549469 573.975525,131.851761 
	C575.511475,132.891083 576.843445,134.440857 578.522949,135.021362 
	C584.577332,137.114029 586.821472,142.751343 590.384155,147.169144 
	C591.347900,148.364258 592.286743,149.582108 593.303833,150.730362 
	C593.782166,151.270370 594.983154,151.888306 594.900757,152.101868 
	C592.944824,157.168198 597.197083,161.559341 596.287903,166.619034 
	C595.394043,171.593765 595.668274,176.773468 594.860168,181.771072 
	C594.555542,183.654907 593.014893,185.795395 591.408936,186.924667 
	C586.997253,190.026703 585.720886,194.760635 584.006348,199.335266 
	C583.783386,199.930099 583.754211,200.729187 583.338074,201.100342 
	C576.604919,207.105087 569.116333,212.460464 563.370911,219.286209 
	C560.750793,222.398956 554.860474,223.584091 555.769409,229.963470 
	C556.433044,234.621307 556.174072,239.244919 559.527344,243.110565 
	C560.642944,244.396561 561.229248,246.153687 562.002747,247.722443 
	C566.087952,256.008362 570.139038,264.311127 574.273926,272.572083 
	C574.500549,273.024841 575.373535,273.154083 576.209106,273.711670 
M550.040466,182.600159 
	C551.372192,181.283707 552.765442,180.022964 554.020935,178.637421 
	C555.786438,176.688858 557.475342,174.668823 559.149719,172.640350 
	C560.960876,170.446152 563.289795,168.415649 564.212769,165.883575 
	C564.574890,164.889984 562.037476,162.211472 560.297729,161.197769 
	C555.127441,158.185226 549.758057,155.489334 544.336609,152.946426 
	C542.383118,152.030121 539.398315,152.590149 538.033447,151.279526 
	C534.248962,147.645432 529.963623,147.941895 525.268066,148.095596 
	C525.770752,148.871765 526.079773,149.348892 526.388794,149.826004 
	C523.429871,150.610794 526.259521,153.100250 525.042419,154.397980 
	C528.472412,157.423431 524.957764,161.080368 525.946472,164.386673 
	C526.780151,167.174637 529.198547,170.267593 525.204590,172.845383 
	C524.976868,172.992371 526.236206,175.443329 527.082397,177.500076 
	C525.247559,180.305405 525.944885,188.241943 528.978394,190.428452 
	C527.906616,190.894119 526.883911,191.338455 526.496399,191.506805 
	C527.534424,194.659241 528.391541,197.262253 529.340515,200.144226 
	C532.947449,195.973114 536.565063,192.701660 541.076477,190.263428 
	C544.333374,188.503220 547.023865,185.694977 550.040466,182.600159 
z"/>
<path fill="#FFFFFF" opacity="1.000000" stroke="none" 
	d="
M124.585907,286.771545 
	C129.203598,285.716370 133.430908,284.412842 137.729172,284.107300 
	C143.723831,283.681244 149.771591,283.983368 155.796478,284.009430 
	C158.724411,284.022095 163.463379,288.703156 163.504410,292.110199 
	C163.566772,297.286957 163.579926,302.528076 162.805359,307.618835 
	C162.506607,309.582428 160.338181,312.038086 158.426270,312.827240 
	C153.601028,314.818848 148.345184,314.944214 143.627548,318.323395 
	C140.125504,320.831848 134.589859,320.512360 129.953644,321.419861 
	C128.454803,321.713257 126.911652,321.803101 125.430511,322.159515 
	C121.715469,323.053497 118.004097,323.976105 114.331177,325.026764 
	C112.168427,325.645416 110.112923,326.638123 107.951164,327.261383 
	C106.241112,327.754425 104.080872,327.422882 102.746857,328.354401 
	C97.319984,332.143951 90.471176,329.430420 85.202133,332.150146 
	C78.723328,335.494232 71.779747,336.271667 65.008598,338.129272 
	C59.440239,339.656921 54.163239,340.186646 48.433769,339.118683 
	C41.701794,337.863861 39.003002,330.066620 40.293331,325.262787 
	C40.580879,324.192261 41.139019,323.005890 40.918633,322.018890 
	C39.716297,316.634155 42.284286,312.833923 47.922710,312.012604 
	C48.740566,311.893463 49.580570,311.925079 50.410465,311.890137 
	C54.411430,311.721619 55.686047,310.117065 54.070351,306.108826 
	C52.803341,302.965607 51.785473,299.569824 51.497776,296.214142 
	C50.796135,288.030273 50.366505,279.807251 50.264286,271.594574 
	C50.213539,267.517365 51.125294,263.428192 51.607117,259.297241 
	C44.758511,254.296951 44.690670,254.072327 49.389877,249.798065 
	C48.097660,249.798065 47.235958,249.798065 45.235413,249.798065 
	C47.380608,243.941376 49.771248,238.525299 51.280331,232.873825 
	C52.171200,229.537552 51.712872,225.829178 51.758633,222.286789 
	C51.771278,221.307999 51.170998,220.298843 51.270500,219.347397 
	C51.770794,214.563538 52.637352,209.809158 52.952606,205.016632 
	C53.608482,195.046082 53.928669,185.053619 54.560032,175.081131 
	C54.676407,173.242905 55.609570,171.456390 55.695461,169.412689 
	C53.375065,173.414825 48.901104,175.887894 48.434231,181.225266 
	C48.315022,182.588089 45.897625,184.687225 44.393234,184.819214 
	C39.501469,185.248337 34.491993,185.336548 29.630522,184.731232 
	C26.753836,184.373047 25.398960,181.586136 23.533525,179.100571 
	C19.559387,173.805313 21.467607,168.666473 20.998142,163.459122 
	C20.465218,157.547852 25.919928,155.251602 28.531811,151.258301 
	C30.082941,148.886780 32.554283,147.134949 34.482738,144.988449 
	C37.731403,141.372467 40.567741,137.321671 44.148220,134.085129 
	C48.231308,130.394302 53.879333,128.118256 57.124870,123.901642 
	C60.751476,119.189941 66.138008,117.908363 70.326935,114.534927 
	C71.305962,113.746483 73.477921,114.549576 75.081795,114.405869 
	C79.654930,113.996132 84.507149,114.288490 88.712074,112.793167 
	C93.960281,110.926834 98.076126,113.174583 102.756676,114.157417 
	C108.308472,115.323196 110.638649,120.336983 114.961800,122.837914 
	C115.858452,123.356621 116.387093,124.597488 117.304573,124.980919 
	C126.667458,128.893875 128.481735,139.596390 135.753296,145.360519 
	C134.396851,149.860001 139.305252,150.991470 140.403473,154.103561 
	C140.919525,155.565933 140.135559,157.475769 140.617508,158.963623 
	C141.884979,162.876541 143.285324,166.785492 145.086136,170.474716 
	C146.655121,173.689011 148.035263,176.680115 145.554871,179.942001 
	C143.181641,183.062927 140.408554,183.483978 136.507370,182.361832 
	C133.544678,181.509613 130.037521,182.738266 126.785507,182.635040 
	C124.749130,182.570419 122.463264,182.212585 120.758614,181.197922 
	C111.049278,175.418594 102.005196,168.969254 96.137108,158.773926 
	C93.774834,154.669647 90.760689,150.425903 84.670799,150.794174 
	C83.115234,150.888245 81.457726,149.296555 79.385399,148.245148 
	C78.887718,172.490631 78.103020,195.842896 79.451981,219.732605 
	C82.945305,219.185287 87.577179,219.741226 90.403046,217.743057 
	C95.845100,213.894943 102.195282,214.914307 107.896675,212.829605 
	C112.211578,211.251877 117.198730,211.398819 121.906616,211.037842 
	C128.145599,210.559464 134.401993,210.132965 140.654709,210.071671 
	C144.731308,210.031693 148.906921,210.277481 152.857925,211.182327 
	C154.988113,211.670166 156.738953,213.814346 159.875916,216.094254 
	C152.739304,220.775208 147.046509,224.652420 141.209885,228.299469 
	C134.625488,232.413712 128.153885,236.821060 121.193001,240.191864 
	C112.445221,244.427979 103.772972,249.079132 93.749344,250.108780 
	C89.981461,250.495834 86.269470,251.909241 82.689613,253.269516 
	C81.899551,253.569717 81.491600,255.607483 81.401741,256.880035 
	C81.141617,260.563904 80.943031,264.272461 81.077812,267.958252 
	C81.219498,271.832520 81.840286,275.686890 82.122803,279.559357 
	C82.272743,281.614532 82.149353,283.689636 82.149353,285.946625 
	C82.176620,285.952515 82.945496,286.118103 82.905273,286.109436 
	C82.359917,291.440857 81.842125,296.502838 81.326431,301.544312 
	C91.529846,298.183899 100.934769,295.133942 110.304848,291.980438 
	C114.978508,290.407501 119.588425,288.645142 124.585907,286.771545 
z"/>
<path fill="#FFFFFF" opacity="1.000000" stroke="none" 
	d="
M1095.074829,268.079865 
	C1101.406860,266.540497 1107.690552,264.738708 1114.089111,263.560455 
	C1117.907471,262.857300 1121.907104,263.157715 1125.822144,262.946259 
	C1126.606323,262.903900 1127.369141,262.552521 1128.153076,262.402191 
	C1134.110596,261.259949 1140.032349,259.813293 1146.040771,259.084229 
	C1152.877686,258.254608 1159.793091,258.069824 1166.522095,257.615021 
	C1167.677734,261.686279 1166.485596,263.647980 1163.343506,265.363617 
	C1153.574585,270.697723 1143.861084,276.165039 1134.400269,282.023468 
	C1123.529541,288.754852 1111.974243,293.363037 1099.331909,295.305756 
	C1098.304688,295.463623 1097.382080,296.408417 1096.446533,297.040131 
	C1091.237549,300.557129 1085.573242,302.082397 1079.300171,301.046173 
	C1078.813721,300.965820 1078.173340,300.836487 1077.822144,301.064758 
	C1070.199829,306.019043 1062.647827,300.241730 1055.066162,300.952820 
	C1052.460938,296.823486 1049.185913,292.950409 1047.475220,288.478882 
	C1046.240234,285.250946 1046.750854,281.196381 1047.084351,277.565765 
	C1047.541626,272.590729 1049.836182,268.499268 1055.026001,267.080719 
	C1058.988403,265.997620 1063.297241,264.276398 1067.051270,264.979462 
	C1069.733887,265.481873 1071.752319,269.531036 1075.171509,273.174255 
	C1078.956787,272.496277 1084.451904,271.512054 1089.652954,270.580505 
	C1083.020752,263.814545 1076.258911,257.898438 1070.776489,250.969879 
	C1067.264282,246.531021 1065.116943,240.771667 1063.300903,235.291733 
	C1061.028564,228.434540 1059.664429,221.270538 1058.020386,214.212799 
	C1056.762329,208.811829 1055.027832,203.409409 1054.698853,197.935898 
	C1054.366699,192.411499 1055.585083,186.803757 1055.942627,181.220917 
	C1056.029541,179.863815 1055.404663,178.461090 1054.949585,176.349228 
	C1056.527832,175.077576 1055.589600,173.401932 1054.524048,170.507141 
	C1052.954224,166.242401 1051.972168,161.452667 1052.625488,156.404419 
	C1052.996826,153.535629 1049.541992,150.296875 1052.944580,147.246140 
	C1048.707764,142.163498 1056.734741,137.057556 1052.468750,131.029633 
	C1050.261108,127.910034 1052.452393,121.673592 1052.676025,116.846230 
	C1052.690430,116.531288 1053.006226,116.204079 1052.962036,115.916481 
	C1052.081665,110.205170 1054.767700,105.091080 1055.916260,99.772476 
	C1057.753540,91.265259 1060.792114,83.116158 1066.820435,76.397949 
	C1067.562744,75.570694 1066.844727,73.481461 1066.927979,71.983910 
	C1066.951660,71.555321 1067.515137,71.183052 1067.657104,70.730400 
	C1068.467285,68.148125 1069.166626,65.529877 1070.022583,62.963566 
	C1070.511963,61.496384 1070.914307,59.824425 1071.895508,58.727314 
	C1076.178589,53.938374 1087.236694,51.873867 1092.877075,54.342579 
	C1095.185791,55.353012 1097.774658,55.723148 1101.114868,56.620705 
	C1103.084961,59.674854 1105.850098,63.848267 1108.456909,68.118393 
	C1108.875977,68.804901 1108.615967,69.923019 1108.617798,70.841705 
	C1108.619141,71.557564 1108.217407,72.604660 1108.552734,72.930748 
	C1109.834595,74.177116 1111.393555,75.132347 1112.752075,76.308250 
	C1114.285156,77.635345 1109.263794,79.219208 1112.855469,80.627335 
	C1113.165039,80.748741 1113.458252,81.498390 1113.395020,81.898682 
	C1112.241089,89.201744 1118.425171,93.987831 1119.769043,100.723892 
	C1121.509155,109.446037 1127.092773,117.037315 1132.515625,124.367188 
	C1135.294189,128.122772 1136.799438,132.806442 1139.015259,136.999298 
	C1139.842896,138.565353 1141.290283,139.817307 1142.041016,141.407837 
	C1143.508545,144.517456 1144.635376,147.785858 1146.000977,150.946350 
	C1146.763794,152.711761 1148.222534,154.320053 1148.484619,156.127197 
	C1148.975220,159.510406 1150.237061,164.621399 1148.602173,166.035126 
	C1146.244385,168.074051 1141.465332,168.310425 1137.941162,167.796173 
	C1130.532471,166.715073 1123.259277,164.681580 1115.954468,162.939026 
	C1114.927979,162.694168 1113.997681,161.942596 1113.088623,161.328384 
	C1110.676025,159.698303 1108.408081,157.821960 1105.881836,156.400070 
	C1102.467407,154.478302 1099.852905,152.028290 1097.994629,148.494843 
	C1097.268311,147.113724 1095.189575,146.443878 1093.726807,145.450073 
	C1093.445557,145.824844 1093.164307,146.199600 1092.883057,146.574356 
	C1095.629761,152.059402 1098.387451,157.539062 1101.098511,163.041687 
	C1101.276855,163.403687 1101.114502,163.941757 1101.085449,164.396317 
	C1100.959961,166.356445 1100.952637,168.334808 1100.666016,170.271606 
	C1100.155151,173.725067 1100.460571,177.956161 1098.534058,180.323792 
	C1097.133545,182.044983 1092.688721,181.289017 1089.336182,181.667389 
	C1089.577026,183.239349 1089.905273,185.381271 1090.341309,188.227356 
	C1092.804077,187.822998 1095.308105,187.034821 1097.801758,187.066406 
	C1109.884521,187.219345 1122.051636,186.912720 1133.673584,191.073990 
	C1134.947021,191.529938 1136.976929,193.359314 1136.807983,193.747452 
	C1136.118042,195.332962 1134.948486,197.462799 1133.528931,197.857437 
	C1123.021973,200.778183 1112.420776,203.364304 1101.829224,205.974304 
	C1099.319092,206.592850 1096.733032,206.903305 1093.932983,207.399612 
	C1094.824707,210.145691 1096.526611,212.660568 1094.185425,215.780106 
	C1093.153931,217.154678 1093.135498,220.919037 1094.227539,221.977127 
	C1099.088379,226.686035 1096.107666,232.418686 1096.588989,237.539413 
	C1096.789795,239.675568 1097.191406,242.120605 1096.912476,244.378326 
	C1096.746338,245.722992 1095.805176,246.971924 1096.435059,248.338654 
	C1095.865967,254.499283 1095.296753,260.659912 1094.253174,267.311707 
	C1093.647095,268.138214 1093.515381,268.473541 1093.383789,268.808838 
	C1093.947510,268.565857 1094.511108,268.322845 1095.074829,268.079865 
z"/>
<path fill="#FFFFFF" opacity="1.000000" stroke="none" 
	d="
M853.122253,237.964462 
	C852.496582,239.905090 851.870972,241.845718 851.295410,244.264374 
	C851.206055,244.855637 851.066772,244.968887 850.927429,245.082169 
	C850.292542,245.381516 849.074097,245.825150 849.107239,245.959290 
	C850.232056,250.507980 849.714661,255.080704 849.133850,259.586761 
	C848.372742,265.491638 847.814575,271.535614 846.035156,277.161072 
	C844.572998,281.783325 840.416199,284.643524 835.339722,284.937042 
	C826.503052,285.447968 821.186707,280.604462 818.006287,272.831116 
	C817.068115,270.537994 815.578125,268.364288 815.158020,265.991211 
	C814.573669,262.690857 814.751404,259.254517 814.619324,255.875763 
	C814.583496,254.959824 814.567444,254.039749 814.610107,253.124725 
	C814.720947,250.749283 814.869385,248.375595 814.679565,245.814346 
	C814.996643,243.791275 815.285706,241.763275 815.639771,239.746704 
	C815.919373,238.154755 815.809021,236.457825 816.063416,234.902710 
	C817.491333,226.175262 817.580017,217.231415 818.186157,208.365555 
	C818.435791,204.715012 818.834106,201.074600 819.168152,197.429886 
	C819.526550,193.519180 819.888672,189.608810 820.250000,185.698364 
	C820.261780,185.570648 820.237915,185.409851 820.305298,185.321304 
	C825.117737,178.998123 824.091003,171.554092 824.523560,164.341599 
	C824.618774,162.755661 827.124939,161.015137 826.821777,159.754196 
	C825.154602,152.818268 828.288696,146.319305 828.232971,139.565948 
	C828.224060,138.491119 829.661804,137.472580 830.129272,136.307098 
	C830.633118,135.050812 830.813538,133.658279 831.070007,132.312790 
	C831.160400,131.838348 830.906860,130.951706 831.066467,130.887207 
	C836.730774,128.598221 833.532776,122.331856 836.495117,118.724174 
	C837.423767,117.593170 836.805725,115.261200 837.073669,113.506126 
	C838.094299,106.820862 843.678162,103.731415 848.064636,99.702156 
	C848.170349,99.605064 848.257141,99.317253 848.281677,99.325676 
	C853.400085,101.081139 857.771118,97.318901 862.491577,97.340157 
	C866.842712,97.359741 866.896301,101.407684 868.646973,105.574562 
	C871.661865,112.750282 868.758667,117.820702 866.220825,123.721123 
	C864.426636,127.892563 864.242981,132.772293 862.355774,136.883881 
	C860.411621,141.119568 861.019104,144.919189 861.891296,149.071045 
	C862.289185,150.965164 861.470154,153.083374 861.639587,155.062576 
	C862.335022,163.185898 863.293518,171.286911 863.974182,179.411285 
	C864.706238,188.148132 866.358704,196.619644 869.218933,204.959854 
	C870.854736,209.729935 871.014465,214.990677 872.063782,219.983200 
	C872.718750,223.098923 873.790039,226.127411 874.680237,229.193359 
	C875.442139,231.817322 876.674561,234.402023 876.887268,237.068817 
	C877.413696,243.669662 880.156006,249.105728 884.502991,253.892410 
	C892.226562,249.936722 906.718933,192.158722 904.185730,184.205414 
	C905.139832,184.326721 905.937195,184.428085 906.258850,184.468979 
	C906.682983,179.776016 907.008179,174.978928 907.598389,170.214645 
	C907.847778,168.201263 908.637695,166.251785 909.227600,164.286957 
	C909.314209,163.998474 909.654846,163.786240 909.877930,163.538696 
	C905.876160,161.094208 909.122620,157.854996 909.083008,155.036057 
	C909.040466,152.014816 909.869568,148.990814 910.123291,145.951736 
	C910.240051,144.552338 909.809387,143.116333 909.770874,141.693039 
	C909.679749,138.327972 910.263977,134.780121 909.317932,131.691223 
	C908.983459,130.599152 906.970337,129.923431 908.285583,128.023880 
	C908.673523,127.463516 908.816956,126.733849 909.509460,124.966347 
	C909.066528,117.810394 908.116699,109.190849 908.124817,100.572197 
	C908.131958,93.002457 912.321472,89.740265 920.040222,89.998993 
	C929.894287,90.329300 934.067810,93.456070 937.409546,102.846657 
	C938.260193,105.237015 939.240479,107.602638 940.398682,109.857628 
	C942.689331,114.317444 943.353882,118.780434 942.221985,123.804329 
	C941.649597,126.344955 942.587830,129.278061 943.072937,131.992615 
	C943.803162,136.078354 944.794739,140.117599 945.511475,144.205322 
	C945.609436,144.763962 944.613159,145.439575 944.387756,146.145447 
	C943.916321,147.621490 942.902344,149.465332 943.394714,150.602005 
	C944.646851,153.492142 945.519470,155.835922 942.482178,158.218567 
	C942.010681,158.588318 942.895203,160.686554 942.949463,160.960480 
	C942.444885,164.224411 941.948547,166.700745 941.699402,169.201721 
	C941.208313,174.130371 940.533142,179.072342 940.528503,184.009369 
	C940.523132,189.636307 938.331665,194.457504 936.319031,199.477325 
	C935.332642,201.937622 935.513367,204.845016 934.974426,207.511398 
	C934.445801,210.127533 933.872803,212.766281 932.969055,215.268646 
	C930.946716,220.868546 928.508423,226.323959 926.633667,231.969101 
	C925.596069,235.093277 925.598694,238.550217 924.705078,241.737350 
	C922.287903,250.358658 917.821777,257.903351 912.602234,265.161011 
	C910.542969,268.024414 910.064453,272.009491 908.759705,275.443390 
	C908.496033,276.137451 907.844360,276.778259 907.215820,277.224304 
	C902.897278,280.289154 898.622314,283.431915 894.134949,286.231659 
	C892.914612,286.993073 890.976135,286.969177 889.432678,286.777893 
	C884.876526,286.213287 880.349548,285.405640 875.821655,284.631592 
	C875.267822,284.536957 874.632812,284.186493 874.281128,283.754517 
	C870.814941,279.496582 866.325562,275.667694 864.195984,270.809875 
	C859.797974,260.777466 856.665466,250.190277 853.251526,239.409760 
	C853.367920,238.646973 853.245056,238.305725 853.122253,237.964462 
M851.961609,232.924362 
	C851.850098,232.805389 851.751343,232.668884 851.621948,232.574341 
	C851.550720,232.522232 851.427979,232.540588 851.328430,232.527161 
	C851.328430,234.130112 851.328430,235.733078 851.328430,237.336029 
	C851.787598,237.299911 852.246765,237.263779 852.705994,237.227661 
	C852.470093,236.063324 852.234192,234.898987 851.961609,232.924362 
z"/>
<path fill="#FFFFFF" opacity="1.000000" stroke="none" 
	d="
M771.181396,103.470703 
	C773.263123,105.805374 775.801453,107.470558 775.175293,111.283127 
	C775.020996,112.222374 777.303528,113.364647 777.961731,114.668106 
	C781.067993,120.819954 783.938049,127.090721 787.011902,133.259476 
	C789.544128,138.341110 792.383484,143.274338 794.775024,148.418259 
	C795.401794,149.766357 794.869507,151.653320 794.869507,154.629883 
	C796.526245,156.385818 797.334229,168.937469 794.502747,171.774170 
	C793.633545,172.644989 791.847290,172.993210 790.508667,172.935760 
	C784.229919,172.666260 777.942078,172.717285 772.303589,168.917084 
	C768.400208,166.286285 762.357910,165.437363 760.197937,161.969421 
	C757.593689,157.788437 753.587769,154.872223 751.563843,149.859863 
	C748.262085,141.683044 742.428040,134.528732 737.467651,126.632896 
	C738.715698,126.461021 739.346008,126.374222 739.976257,126.287422 
	C739.828064,125.842598 739.679871,125.397774 739.531677,124.952957 
	C737.408752,126.111961 735.285828,127.270973 733.271301,128.370789 
	C733.536194,129.076889 734.100037,129.799225 733.935120,130.261978 
	C732.356812,134.692535 731.218079,139.417877 728.831787,143.383881 
	C726.415161,147.400558 727.571533,150.131119 730.118713,152.999939 
	C733.483582,156.789780 733.127869,161.800507 733.638000,166.147354 
	C734.178284,170.751587 730.906067,174.487228 726.007996,175.890625 
	C723.984436,176.470413 721.771973,176.590775 719.915039,177.481873 
	C718.694031,178.067795 717.165039,179.644669 717.145447,180.800964 
	C717.082397,184.532700 717.822266,188.271194 717.910278,192.015121 
	C717.953857,193.869049 717.262756,195.743698 716.873474,197.602554 
	C716.724487,198.313843 716.244995,199.040527 716.335205,199.703140 
	C716.821411,203.275070 717.439331,206.829086 718.190857,211.502884 
	C722.074646,210.830139 726.757385,209.887772 731.480652,209.240982 
	C735.498779,208.690735 739.557739,208.376053 743.609436,208.153183 
	C746.984009,207.967529 750.374268,208.066910 753.757568,208.038727 
	C754.090515,208.035950 754.474609,207.909988 754.748596,208.033249 
	C760.116516,210.448502 765.640503,212.584747 770.784668,215.411301 
	C776.649170,218.633621 773.406067,225.468170 768.662170,228.239944 
	C761.692810,232.312027 753.742004,231.700317 746.689819,234.667358 
	C745.944824,234.980820 745.004700,234.857452 744.289185,235.209381 
	C741.178955,236.739288 738.375732,237.709320 734.457092,237.387146 
	C730.158691,237.033768 725.616760,239.643311 721.784302,240.782410 
	C723.470825,252.360291 725.091370,263.484741 726.786865,275.124237 
	C728.720581,273.719208 730.690796,272.227051 732.728027,270.832947 
	C733.754578,270.130493 734.857239,269.197845 736.003601,269.069946 
	C741.582581,268.447571 746.902527,268.088135 751.901672,264.387085 
	C754.800964,262.240662 759.617981,262.579590 763.603760,262.030823 
	C769.367798,261.237213 775.151306,260.553467 780.943970,260.009186 
	C785.958679,259.538025 791.004211,259.044403 796.022522,259.158478 
	C797.696594,259.196503 800.256958,260.789642 800.706787,262.211365 
	C801.118591,263.513092 799.663574,266.126648 798.281677,267.154175 
	C790.928162,272.621887 785.177917,280.004089 776.703491,284.215637 
	C771.711792,286.696350 767.889404,291.661285 762.822510,293.829865 
	C754.069824,297.575928 744.410767,299.261108 735.785950,303.231567 
	C728.397766,306.632812 720.372131,307.010101 712.814331,309.812134 
	C705.384460,312.566742 695.046204,313.863281 688.782776,305.139709 
	C686.661804,302.185791 685.752502,297.840454 685.721985,294.119202 
	C685.705811,292.151794 687.095581,292.140381 684.797058,290.216034 
	C688.891907,285.755280 689.846069,276.721100 700.024536,281.638794 
	C700.225159,281.187622 700.425781,280.736420 700.626343,280.285248 
	C699.330566,277.833344 697.653442,275.499695 696.846436,272.896301 
	C696.042664,270.303314 696.149963,267.434662 695.791077,264.695648 
	C694.886108,257.787598 693.147339,250.869904 693.273682,243.984177 
	C693.370911,238.687531 691.842712,233.399063 693.668213,227.881775 
	C694.713257,224.723267 692.745605,220.661682 692.571533,216.986008 
	C692.236084,209.903824 690.596008,202.339859 692.476868,195.837616 
	C694.693848,188.173050 691.919434,181.081238 692.969299,173.784607 
	C693.868774,167.533173 694.099121,161.181046 695.101196,154.949951 
	C696.091187,148.794373 697.259827,142.604599 699.109802,136.666489 
	C701.328430,129.545090 704.273438,122.643013 707.056580,115.707222 
	C708.572510,111.929314 710.338379,108.245346 712.152283,104.598999 
	C712.495178,103.909691 713.595520,103.597153 714.611267,102.939140 
	C711.063721,98.255318 717.891357,97.678726 719.370850,94.662193 
	C720.842712,91.661308 724.980347,90.026588 727.793152,87.611290 
	C732.258240,83.777222 737.438660,83.508949 742.950378,83.882347 
	C744.982117,84.019997 747.120361,82.638184 749.146667,82.790771 
	C753.009888,83.081673 756.098877,84.372711 758.391785,88.367828 
	C760.348328,91.776802 764.396118,93.942619 767.325134,96.853233 
	C768.982727,98.500427 770.252197,100.538719 771.685181,102.409500 
	C771.741821,102.483482 771.719727,102.668777 771.666321,102.764107 
	C771.587280,102.905075 771.447205,103.011841 771.181396,103.470703 
z"/>
<path fill="#FFFFFF" opacity="1.000000" stroke="none" 
	d="
M1001.813232,247.997391 
	C1003.390503,247.983093 1004.650085,247.668900 1005.706787,248.000824 
	C1012.634827,250.177109 1017.316345,245.611267 1022.809082,242.878311 
	C1029.750244,239.424683 1037.030762,236.498703 1044.427246,234.182388 
	C1047.952271,233.078415 1048.587280,235.933548 1048.232422,239.689697 
	C1047.384888,248.661407 1041.385498,255.194794 1037.522705,262.439789 
	C1033.722168,269.568329 1027.525635,276.447815 1018.124451,277.995880 
	C1012.716370,278.886383 1007.368286,280.699738 1001.954041,280.872833 
	C991.951721,281.192535 981.789917,279.544342 974.425598,272.470245 
	C967.922058,266.223145 962.135986,258.881439 960.844543,249.076874 
	C960.406250,245.748825 958.436768,242.510223 956.718933,239.485062 
	C952.430542,231.932709 950.321594,223.985123 950.917969,215.253662 
	C951.097900,212.619675 950.083069,209.924637 950.045166,207.251450 
	C949.922485,198.611069 949.622864,189.945816 950.126343,181.333099 
	C950.490356,175.108322 951.929871,168.934662 953.066101,162.770691 
	C953.911316,158.185104 954.669922,153.524963 956.174011,149.140549 
	C957.133484,146.343994 959.153870,143.795502 961.112488,141.486938 
	C963.566895,138.593994 965.209229,135.648209 966.317505,131.858902 
	C967.212769,128.798019 970.914062,126.562309 973.358398,123.949181 
	C979.649109,117.224113 991.231995,114.488922 998.376221,119.439247 
	C1002.179688,122.074753 1005.180115,126.950356 1006.781921,131.442810 
	C1009.574951,139.276215 1010.964111,147.605957 1013.038940,155.702759 
	C1013.549316,157.694702 1014.774109,159.538193 1015.083130,161.540573 
	C1015.986206,167.392273 1012.124695,170.096954 1007.524292,172.134781 
	C1005.717590,172.935135 1001.753723,169.265671 1000.979919,166.778397 
	C998.021179,157.267776 994.857788,147.820618 991.728760,138.363678 
	C991.533447,137.773346 990.978333,137.302063 989.951660,135.907394 
	C987.791504,139.483139 985.936218,142.350830 984.282837,145.330521 
	C979.994019,153.059418 978.295349,161.660980 976.491577,170.150818 
	C975.210815,176.179092 974.516541,182.381943 974.187012,188.540390 
	C974.031982,191.438690 975.317200,194.423843 976.008606,197.355759 
	C977.990601,205.760101 979.381592,214.371704 982.185120,222.494476 
	C984.760071,229.954971 987.973022,237.191772 993.457520,243.484070 
	C995.988098,246.387451 998.678772,246.685181 1001.813232,247.997391 
z"/>
<path fill="#FFFFFF" opacity="1.000000" stroke="none" 
	d="
M199.998398,309.942017 
	C200.412842,307.806244 200.621460,306.014404 201.277374,304.404877 
	C203.229462,299.614594 200.883118,296.205536 197.190659,292.756683 
	C192.555145,288.427032 185.888779,285.400452 184.809662,277.799072 
	C184.608902,276.384888 182.347153,275.217133 180.955780,274.030334 
	C179.364136,272.672760 176.809341,271.743530 176.189926,270.067566 
	C173.428970,262.596893 170.584869,255.011734 174.462723,246.913849 
	C175.031433,245.726227 174.357513,243.943573 174.171494,241.110077 
	C177.326767,240.613663 180.652496,240.174698 183.936356,239.524384 
	C184.973145,239.319046 185.918152,238.582809 186.869904,238.028992 
	C189.127563,236.715210 191.117889,236.014313 191.331924,239.698013 
	C192.778580,239.224579 194.150604,238.775558 195.222290,238.424850 
	C198.384094,251.116577 209.586624,257.995117 217.626251,268.511597 
	C218.017258,266.479431 218.228256,265.210419 218.511475,263.957764 
	C218.812210,262.627686 219.098145,261.284912 219.534286,259.996338 
	C222.439713,251.411911 225.494568,242.875793 228.240341,234.241119 
	C228.964340,231.964294 229.045654,229.384933 228.946045,226.964096 
	C228.714355,221.333206 231.205933,216.468338 235.231918,215.332184 
	C240.174286,213.937424 243.958282,216.783066 243.997925,221.942291 
	C244.063049,230.415176 243.701035,238.758286 240.172150,246.758499 
	C239.055237,249.290619 239.832001,252.590546 239.166992,255.403107 
	C237.627121,261.915588 236.316040,268.581818 233.804459,274.733459 
	C231.778046,279.696747 234.879181,281.996338 237.588242,283.662811 
	C243.523315,287.313812 248.960724,291.263763 254.105606,296.078094 
	C257.652069,299.396729 260.393951,303.093506 263.172729,306.832458 
	C264.925598,309.191010 266.292938,312.126526 266.876770,314.997711 
	C267.832062,319.695618 265.544586,322.169006 260.765625,323.019531 
	C251.831726,324.609467 243.193130,324.578766 235.058044,319.681610 
	C233.660950,318.840607 231.257187,319.672363 229.859558,318.831726 
	C226.400757,316.751373 223.255508,314.149750 219.778992,311.607422 
	C215.042450,321.669037 206.802673,328.847839 194.460175,333.321106 
	C194.290924,331.233826 193.595779,329.230255 194.091187,327.585205 
	C195.839386,321.780182 197.995575,316.098022 199.998398,309.942017 
z"/>
<path fill="#FFFFFF" opacity="1.000000" stroke="none" 
	d="
M654.822876,198.467484 
	C654.784180,208.164536 655.559692,217.411423 657.027466,226.590088 
	C657.566406,229.960754 658.605347,233.256241 659.059875,236.633957 
	C659.364502,238.898117 658.831299,241.265869 659.039490,243.553909 
	C659.644287,250.201523 660.615356,256.818848 661.109009,263.472809 
	C661.889587,273.993805 662.398254,284.534943 663.023376,295.067444 
	C663.052429,295.556732 663.049377,296.053741 663.138977,296.532654 
	C664.454224,303.565979 663.806213,304.233246 656.536438,305.126343 
	C650.631714,305.851776 646.438721,303.540771 641.806091,299.885956 
	C633.671143,293.468079 634.360474,284.191315 632.003906,275.841370 
	C631.658630,274.617859 631.130737,273.390930 631.084290,272.150696 
	C631.011230,270.202087 629.027039,268.681854 630.753540,266.123718 
	C631.738770,264.663727 630.163330,261.567902 629.953918,259.189941 
	C629.531372,254.391174 629.254272,249.579605 628.958679,245.365387 
	C629.621399,243.229630 630.333435,241.521317 630.572021,239.749268 
	C630.630798,239.312912 629.147156,238.668930 629.500366,238.919067 
	C629.500366,231.287979 629.441040,224.139389 629.515930,216.992203 
	C629.603149,208.663132 629.833740,200.335648 629.951538,192.006775 
	C630.020447,187.131744 629.946167,182.254669 630.017578,177.379715 
	C630.093445,172.205002 630.331299,167.032272 630.377747,161.857605 
	C630.428894,156.160690 630.192688,150.458389 630.350708,144.765915 
	C630.602112,135.708588 636.954712,131.034561 644.598816,133.989212 
	C649.689148,135.956757 649.327271,140.814819 649.854004,144.686859 
	C651.272583,155.114471 652.013428,165.634888 652.995178,176.121094 
	C653.679932,183.434753 654.318420,190.752747 654.822876,198.467484 
z"/>
<path fill="#FFFFFF" opacity="1.000000" stroke="none" 
	d="
M632.131958,42.031403 
	C637.688416,43.699787 642.852234,45.337395 648.013367,46.983273 
	C648.768494,47.224091 650.052734,47.356586 650.171021,47.790440 
	C650.907532,50.490639 651.293945,53.285049 651.995300,55.996777 
	C652.208862,56.822697 653.670837,57.942745 653.513184,58.156773 
	C650.183044,62.680897 653.268982,67.391045 652.946655,71.965454 
	C652.906494,72.535683 652.335632,73.068512 652.011902,73.616585 
	C650.443420,72.721725 648.950867,71.870178 646.690979,70.580849 
	C648.311584,73.364494 650.675476,75.776115 650.169983,76.920982 
	C649.286560,78.922104 646.639343,80.144531 645.390198,81.158417 
	C641.662476,81.158417 638.385925,80.424347 635.620483,81.301491 
	C628.456238,83.573776 623.290588,78.557594 617.335327,76.750519 
	C615.497925,76.192978 613.676331,72.540771 613.503601,70.184120 
	C613.161377,65.515747 613.972412,60.762848 614.323303,55.811905 
	C615.564453,56.317207 616.420898,56.665871 617.154175,56.964420 
	C617.474304,56.813599 617.615479,56.747063 617.756714,56.680523 
	C617.331787,55.870884 617.031494,54.469959 616.461243,54.349777 
	C613.303040,53.684135 614.202332,51.464973 615.373901,50.412975 
	C617.088074,48.873768 619.518677,48.153458 621.573853,46.963169 
	C622.473022,46.442413 623.096924,45.390320 624.023193,44.983112 
	C626.544373,43.874779 629.160156,42.981678 632.131958,42.031403 
z"/>
<path fill="#FFFFFF" opacity="1.000000" stroke="none" 
	d="
M851.570190,244.594025 
	C852.109863,244.885223 852.424744,245.324799 852.739624,245.764343 
	C852.199951,245.723862 851.660339,245.683395 851.024048,245.362549 
	C851.066772,244.968887 851.206055,244.855637 851.570190,244.594025 
z"/>
<path fill="#FFFFFF" opacity="1.000000" stroke="none" 
	d="
M401.130402,205.094528 
	C401.488861,204.677109 402.052521,204.434128 402.616150,204.191147 
	C402.484528,204.526443 402.352875,204.861740 401.998474,205.388275 
	C401.628998,205.475998 401.482269,205.372482 401.130402,205.094528 
z"/>

</svg>