<svg version="1.1" id="Layer_1" xmlns="http://www.w3.org/2000/svg" xmlns:xlink="http://www.w3.org/1999/xlink" x="0px" y="0px"
	 width="75%" viewBox="0 0 895 500" enable-background="new 0 0 895 500" xml:space="preserve">

<path fill="#FFFFFF" opacity="1.000000" stroke="none" 
	d="
M228.224350,250.420395 
	C230.155151,246.555603 230.358551,243.366959 224.592056,242.481644 
	C227.630325,239.668671 230.553650,237.047699 226.132050,233.530853 
	C228.469315,231.059219 222.913773,228.045807 226.667328,225.547180 
	C227.024643,225.309311 226.613556,223.852753 226.491745,222.971283 
	C226.089630,220.061554 225.656586,217.156097 225.173950,213.824677 
	C218.692566,220.719925 212.190842,227.636810 204.539383,235.776825 
	C205.657242,239.592865 205.896667,246.415512 209.327850,250.654846 
	C213.972275,256.393219 215.711090,263.369934 219.925629,269.131927 
	C224.005127,274.709351 228.008682,280.486267 230.994324,286.682159 
	C234.474258,293.903809 236.992966,301.615234 239.541122,309.243591 
	C240.333603,311.616089 239.984879,314.411469 239.948593,317.010345 
	C239.874512,322.314606 234.885544,323.352081 232.111908,322.655731 
	C223.563248,320.509766 213.532608,320.883850 208.151321,311.600342 
	C207.710526,310.839905 206.512833,310.538330 205.710190,309.963043 
	C204.345901,308.985260 202.468887,308.248718 201.759537,306.907288 
	C196.697327,297.334320 191.665329,287.733093 187.055756,277.937561 
	C184.189102,271.845764 182.097015,265.390869 179.593155,259.124542 
	C179.383728,258.600433 178.685165,258.271729 177.946182,257.614014 
	C173.531570,261.921051 178.817535,264.991486 178.850296,268.871552 
	C177.914719,268.757324 177.005188,268.646271 176.095673,268.535217 
	C176.030029,268.757507 175.964401,268.979767 175.898758,269.202026 
	C176.776031,269.607208 177.653290,270.012390 178.529083,270.418457 
	C172.605011,273.375153 178.947144,275.675018 178.002747,278.025238 
	C177.305664,280.039215 176.608582,282.053162 175.839966,284.273804 
	C177.223465,284.876465 178.475098,285.421692 179.986557,286.080078 
	C179.196289,287.165985 178.570999,288.025177 177.786530,289.103119 
	C178.852036,289.858490 179.824005,290.547516 180.342163,290.914856 
	C178.809418,292.217560 176.071884,293.988159 176.280640,294.462738 
	C177.203094,296.559814 178.973282,298.283997 179.982971,299.566925 
	C179.982971,306.003082 179.982971,312.223145 179.982971,318.886261 
	C179.989914,318.884125 178.998306,319.190704 178.006699,319.497253 
	C178.025513,319.738861 178.044327,319.980438 178.063141,320.222046 
	C178.995193,320.222046 179.927246,320.222046 180.859283,320.222046 
	C180.948563,320.498596 181.037842,320.775116 181.127106,321.051666 
	C180.074783,321.621368 179.022476,322.191101 177.555954,322.985046 
	C178.509384,323.661774 179.287460,324.029572 179.793732,324.627502 
	C180.259842,325.178040 180.433792,325.975983 180.736435,326.664948 
	C174.266418,327.719299 176.096619,333.333649 174.940170,337.279480 
	C173.379730,342.603607 167.576813,346.117126 162.199371,345.021637 
	C160.958740,344.768829 159.559860,344.711121 158.346176,345.013947 
	C154.218414,346.044006 151.367111,344.295685 149.011230,341.161682 
	C147.465210,339.105011 145.811417,337.126221 144.330872,335.024536 
	C143.343704,333.623199 142.576523,332.066925 141.445526,330.842255 
	C143.288651,330.298889 144.031555,326.021515 141.489532,325.304108 
	C134.768127,323.407104 137.505707,317.769897 136.708649,313.914764 
	C135.483261,307.987915 135.071075,301.746307 135.438904,295.706787 
	C135.592072,293.191772 134.602951,291.191864 134.635208,289.002075 
	C134.686813,285.501831 135.509171,282.019073 135.842682,278.513428 
	C135.954254,277.340515 135.437271,276.119568 135.443375,274.921783 
	C135.450012,273.622345 135.934891,272.311249 135.852402,271.028320 
	C135.659088,268.022064 135.251404,265.029602 134.868225,261.449707 
	C139.293793,257.720856 140.730438,247.441208 137.029236,246.002655 
	C137.029236,242.809875 137.029236,239.877365 137.029236,236.944855 
	C137.094177,236.911179 137.159119,236.877502 137.224060,236.843826 
	C137.014374,234.244659 136.561981,231.635162 136.671829,229.049576 
	C136.759644,226.983063 137.757935,224.966690 137.951279,222.890747 
	C138.315567,218.979385 136.971130,214.053925 138.875488,211.315033 
	C143.126587,205.200958 139.030319,198.466888 142.226074,192.129654 
	C140.888855,192.677353 139.661163,192.781876 139.348190,193.371719 
	C136.958313,197.875946 134.792526,202.498444 132.450348,207.028961 
	C131.792145,208.302155 131.020233,210.014862 129.885254,210.454834 
	C125.555771,212.133163 124.328819,216.302078 121.666786,219.328568 
	C116.916618,224.729080 112.355888,230.825333 104.217300,232.208832 
	C101.771576,232.624603 99.684937,235.294769 97.506439,237.023727 
	C97.057198,237.380264 96.944641,238.639206 96.654144,238.647125 
	C90.573021,238.812881 85.914009,242.498535 80.785164,244.985168 
	C79.760345,245.482025 78.076233,246.439163 78.128975,247.062881 
	C78.815857,255.184540 80.116570,263.266357 80.527832,271.395416 
	C80.849625,277.756256 80.028595,284.167114 79.937180,290.558929 
	C79.843803,297.087769 80.444366,303.651306 79.970688,310.143463 
	C79.400146,317.963013 78.275414,325.770447 76.862648,333.486481 
	C76.277260,336.683685 74.322670,339.630066 72.991737,342.690918 
	C70.934166,347.422821 64.756950,348.794922 61.098930,344.910065 
	C58.929226,342.605804 57.234280,339.602448 56.124493,336.616608 
	C54.766457,332.962830 54.018463,329.033325 53.419266,325.159241 
	C52.714165,320.600433 52.513012,315.965912 51.970600,311.378754 
	C51.704586,309.129089 50.690540,306.883270 50.825680,304.685547 
	C51.380878,295.656830 52.393486,286.656281 52.949425,277.627594 
	C53.334408,271.375244 53.336456,265.059662 53.504238,258.842316 
	C53.697529,251.679810 53.291519,244.559494 54.769745,237.453537 
	C54.966793,236.506317 53.724476,235.314072 53.313545,234.175781 
	C52.096073,230.803360 53.522335,227.853119 54.585056,224.700623 
	C55.550312,221.837265 55.776375,218.666351 55.960094,215.608887 
	C56.505470,206.532761 56.692905,197.432571 57.369289,188.367813 
	C57.783417,182.817780 58.906807,177.322815 59.494869,171.780106 
	C59.550079,171.259705 58.127213,170.220444 57.253056,170.019043 
	C47.593369,167.793411 38.753292,164.552124 34.129681,154.620972 
	C32.316814,150.727066 34.414516,140.023300 39.285191,136.620270 
	C44.751366,132.801193 50.717159,128.942795 57.036968,127.301155 
	C64.080589,125.471497 71.986488,127.076729 79.119415,125.446739 
	C88.407631,123.324234 96.372574,129.048920 105.366333,128.271942 
	C108.451965,128.005371 111.843231,130.817474 115.032692,132.352249 
	C117.746696,133.658218 120.385368,135.124115 123.031784,136.566208 
	C125.867226,138.111313 128.672745,139.711304 131.104797,141.071213 
	C130.702164,136.758698 133.946671,133.847534 137.878448,131.713791 
	C141.871948,129.546570 146.000717,127.435455 150.318298,126.104317 
	C156.651047,124.151855 163.132904,122.301773 169.683014,121.537743 
	C176.923889,120.693130 184.312973,121.075844 191.638275,121.012718 
	C196.923828,120.967171 202.774185,119.654533 207.346222,121.479080 
	C212.418427,123.503212 218.454956,121.313393 222.862885,126.081406 
	C225.606918,129.049606 229.544922,131.111542 233.262192,132.939377 
	C240.023300,136.263870 244.536713,140.997910 245.342957,148.761261 
	C245.419174,149.495224 246.082352,150.168243 245.983475,149.990723 
	C252.471100,149.646317 258.602356,149.542755 264.682281,148.929825 
	C269.806580,148.413208 274.353516,149.539658 278.625824,152.226791 
	C278.907867,152.404190 279.219177,152.773972 279.465210,152.734238 
	C283.996429,152.002777 288.569702,151.433853 293.027710,150.380417 
	C296.160828,149.640045 296.605988,149.695160 296.417816,151.520950 
	C302.677887,153.477310 309.232574,154.400635 314.472748,157.527145 
	C318.506775,159.934021 320.843872,165.147064 324.020355,169.043152 
	C325.970428,171.434998 328.166901,173.629333 330.056549,176.064560 
	C330.519501,176.661179 330.213745,177.854309 330.798492,179.021088 
	C331.482269,179.372482 331.628998,179.475998 331.775726,179.579514 
	C332.167358,181.044586 332.240997,183.573059 333.002686,183.800858 
	C337.684387,185.201019 334.887787,189.457626 334.189209,189.787506 
	C331.140381,191.227280 333.039825,192.598282 333.628357,194.108017 
	C334.315247,195.870117 334.940582,197.656204 335.552765,199.323242 
	C336.167572,199.455109 337.064545,199.647491 337.961548,199.839874 
	C337.435547,200.288757 336.648682,200.638626 336.433563,201.205521 
	C335.840485,202.768250 334.768463,204.679276 335.231354,205.970032 
	C335.737732,207.382172 337.702698,208.322418 339.134674,209.321014 
	C339.576782,209.629333 340.355316,209.455246 341.071136,210.411896 
	C339.837799,210.725082 338.604492,211.038284 338.750244,211.001266 
	C337.904175,213.989166 337.259155,216.266983 336.614166,218.544800 
	C336.045715,218.708191 335.477295,218.871597 334.908844,219.034988 
	C336.686493,220.368454 338.464142,221.701904 339.953918,222.819412 
	C337.023285,224.355728 336.774841,226.671692 340.236115,229.143570 
	C338.287598,229.684296 336.714325,230.120865 335.141052,230.557449 
	C335.939240,231.728348 336.795563,232.864761 337.517029,234.081146 
	C338.084808,235.038406 339.094666,236.267487 338.863800,237.078552 
	C337.257019,242.723221 335.512085,248.338547 333.529419,253.862030 
	C332.521973,256.668732 329.231171,259.925507 329.965881,261.814636 
	C331.352661,265.380249 327.505310,264.889252 327.412781,266.970276 
	C327.317078,269.123169 326.735779,271.336548 325.932220,273.349976 
	C325.287323,274.965851 323.953339,276.297241 322.993378,277.798492 
	C319.556091,283.173950 316.662476,288.789185 310.671417,292.265839 
	C308.063110,293.779480 307.317261,298.267059 304.813171,300.254395 
	C301.552887,302.841858 297.385193,304.285980 294.113770,305.962860 
	C295.318268,310.914215 295.199982,317.650330 298.428162,321.753876 
	C301.959137,326.242279 301.675690,331.423523 304.230347,335.853912 
	C307.258301,341.105103 309.515717,346.809753 311.980743,352.373840 
	C314.393219,357.819336 316.449432,363.430542 319.036133,368.788422 
	C320.906311,372.662079 323.705261,376.092285 325.523926,379.984711 
	C328.310547,385.948700 333.428009,389.757080 337.757385,394.308258 
	C338.338501,394.919098 338.950409,395.749054 339.676453,395.914673 
	C340.730042,396.154999 348.631317,388.386475 349.033875,387.329498 
	C351.111603,381.873962 352.530853,375.956726 355.664612,371.173309 
	C358.826782,366.346466 357.970032,361.248962 359.116516,356.325867 
	C359.791504,353.427612 361.473602,350.732697 361.940674,347.823944 
	C362.858002,342.110992 362.791809,336.212616 364.037262,330.591400 
	C364.668823,327.740814 366.257538,325.368408 365.670990,322.010651 
	C365.187561,319.243073 366.791840,316.179413 366.893799,313.227020 
	C367.120880,306.650665 366.477356,300.012146 367.112854,293.489014 
	C368.218292,282.141907 367.293549,270.779266 368.516083,259.360870 
	C369.609009,249.152817 366.792694,238.562912 366.110260,228.114792 
	C365.676849,221.478851 366.169128,214.786804 365.896973,208.134201 
	C365.754791,204.659424 364.803101,201.223053 364.325745,197.754379 
	C364.101929,196.128296 363.531372,194.177612 364.156769,192.871445 
	C366.856232,187.233643 365.088287,181.812576 363.706421,176.432175 
	C362.503754,171.749649 361.385925,167.478546 363.540344,162.505035 
	C364.864105,159.449234 363.927460,155.414276 364.324402,151.349136 
	C364.683411,150.339615 364.723877,149.799957 364.764313,149.260284 
	C364.324738,149.575195 363.885162,149.890121 363.445587,150.205048 
	C353.154236,152.139862 342.673309,153.399170 332.630127,156.218140 
	C324.236877,158.573975 319.137054,155.576584 314.689880,149.208054 
	C312.049286,145.426666 312.484314,130.845871 315.864838,127.794319 
	C317.968933,125.894981 320.613007,124.052521 323.299561,123.445839 
	C330.129211,121.903542 336.135437,117.737076 343.882996,118.690613 
	C348.893036,119.307220 354.293549,116.010216 359.474915,116.146553 
	C367.548523,116.358986 375.466949,114.993744 383.675354,115.468521 
	C396.515228,116.211182 408.735748,118.643410 420.920746,122.073547 
	C422.750031,122.588509 425.743256,124.183846 425.683929,125.120049 
	C425.555603,127.144669 424.182739,129.465393 422.636902,130.959244 
	C416.450592,136.937378 408.078918,138.711304 400.426086,141.816559 
	C396.320709,143.482376 391.979126,144.560257 387.836578,146.145142 
	C387.016937,146.458725 386.062744,147.907593 386.112305,148.779373 
	C386.698273,159.085770 382.211517,169.514175 386.835785,179.741425 
	C387.278351,180.720261 386.985687,182.041412 386.996277,183.203995 
	C387.052124,189.325241 385.500671,196.047501 387.526062,201.423859 
	C390.397736,209.046692 387.144714,216.307114 388.726593,223.600510 
	C389.771606,228.418533 390.524261,233.329376 390.984344,238.238342 
	C391.770966,246.631317 394.169434,254.895920 391.433563,263.548004 
	C390.340790,267.003815 391.766479,271.244904 391.991455,275.131653 
	C392.200806,278.748077 392.477264,282.368652 392.476898,285.987396 
	C392.476257,292.813751 392.178284,299.641113 392.236542,306.466095 
	C392.273834,310.837646 393.032135,315.214661 392.903870,319.572601 
	C392.790039,323.439453 391.926819,327.287567 391.345947,331.136658 
	C389.708801,341.985260 389.009888,353.108185 385.991913,363.560150 
	C384.461029,368.862000 385.949493,374.857056 382.231934,379.607880 
	C381.846130,380.100952 382.798462,381.641174 382.953278,382.133667 
	C381.998718,383.303345 380.058624,384.608978 380.157196,385.736359 
	C380.732239,392.312958 376.381592,397.199310 374.865082,402.930695 
	C372.768982,410.852539 365.572449,414.289307 361.480347,420.415344 
	C358.305206,425.168640 352.610321,428.566986 345.258392,427.237000 
	C340.202393,426.322357 334.726471,428.011017 329.477844,427.747284 
	C327.213959,427.633514 325.003021,425.604523 322.854065,424.303467 
	C320.634186,422.959412 318.536285,421.415680 316.353149,420.008759 
	C313.819916,418.376343 310.515991,417.348267 308.831787,415.096558 
	C302.842651,407.089203 297.248138,398.771698 291.797302,390.381226 
	C287.231567,383.353088 283.156982,376.072174 282.265045,367.411102 
	C282.063599,365.455048 280.342224,363.674957 279.410767,361.769745 
	C278.227722,359.349854 276.863312,356.970032 276.069336,354.419708 
	C274.843811,350.483307 273.489197,346.459473 273.173096,342.396179 
	C272.636505,335.498108 272.847931,328.540619 272.780914,321.607758 
	C272.742218,317.606354 272.773895,313.604248 272.773895,309.732605 
	C264.859131,307.508453 256.345642,306.593842 250.943542,298.913818 
	C247.290024,293.719727 243.079453,288.918549 239.395554,283.744019 
	C238.407318,282.355988 238.742661,280.088226 237.933823,278.497101 
	C236.153885,274.995575 233.718597,271.807678 232.125259,268.235535 
	C229.941956,263.340820 229.854263,258.080902 230.659851,252.798172 
	C230.732468,252.322098 230.054749,251.731598 229.194977,250.962616 
	C228.517746,250.627441 228.371048,250.523926 228.224350,250.420395 
M78.034714,176.668304 
	C77.912880,177.846283 77.667015,179.026749 77.690659,180.201797 
	C77.794136,185.344971 77.902573,190.490097 78.148468,195.627853 
	C78.422218,201.347702 78.846878,207.060318 79.256203,213.577988 
	C83.296661,210.188904 86.611092,206.763428 90.516685,204.260391 
	C100.152740,198.084854 107.316254,189.957382 112.099609,179.585083 
	C114.031204,175.396576 114.429916,171.760529 112.233437,167.242065 
	C109.859215,162.357956 106.407585,159.612228 101.627708,157.943542 
	C99.000229,157.026260 96.107765,156.585159 93.761292,155.204498 
	C88.812241,152.292511 83.699127,151.461960 78.447006,152.242569 
	C78.447006,160.399643 78.447006,168.211761 78.034714,176.668304 
M176.032471,170.271545 
	C175.700104,175.044418 175.367737,179.817291 175.035843,184.583145 
	C174.781631,184.525177 175.371643,184.659714 175.961655,184.794266 
	C175.260223,186.183731 174.558777,187.573212 173.619003,189.434814 
	C174.387695,190.874542 175.528885,193.011932 176.185410,194.241592 
	C175.799393,197.585342 175.494431,200.227051 175.189453,202.868774 
	C178.857147,194.595459 187.166702,193.769501 193.812317,192.507797 
	C198.146133,191.684998 200.190033,190.044830 202.380508,187.141403 
	C204.824600,183.901794 207.776138,180.955948 209.705902,177.442352 
	C211.649033,173.904465 212.897736,169.897034 213.863144,165.951569 
	C214.277817,164.256836 213.842560,161.565750 212.698792,160.422165 
	C208.877716,156.601669 204.276901,154.079147 198.561707,153.933197 
	C195.408737,153.852661 192.273102,153.093094 189.129654,152.639648 
	C189.390854,152.986328 189.652069,153.333008 189.913269,153.679688 
	C186.480713,155.827835 182.965836,157.856964 179.639160,160.158188 
	C176.422134,162.383560 174.302200,165.238235 176.032471,170.271545 
M268.030579,236.737762 
	C268.030579,238.430740 268.030579,240.123703 268.030579,242.300659 
	C268.962524,241.306473 269.400421,240.839371 269.580414,240.647354 
	C271.984955,247.454971 273.011902,254.522873 280.023132,260.177216 
	C281.892273,254.930069 283.472076,250.576935 284.992859,246.203278 
	C286.582062,241.632935 286.250488,236.202148 290.423553,233.381042 
	C290.012146,232.246490 289.070129,230.902374 289.412933,230.336319 
	C290.155945,229.109375 291.556152,228.280411 292.913940,227.090378 
	C291.589569,226.477951 290.425323,225.939560 290.212280,225.841049 
	C290.470093,224.035660 290.638184,222.734192 290.847534,221.439423 
	C290.970490,220.679016 290.899597,219.646652 291.361786,219.222229 
	C293.697845,217.077118 293.515289,215.156937 291.528992,212.833450 
	C290.965240,212.173981 291.442780,210.624283 291.442780,209.482849 
	C292.093262,207.955734 291.255524,206.406387 291.382935,204.940964 
	C291.965210,198.245743 287.728333,194.031921 281.016113,195.656998 
	C276.435028,196.766098 271.687164,198.391830 267.893463,201.044525 
	C265.965607,202.392548 265.876038,206.496338 265.221771,209.414062 
	C265.112915,209.899445 267.031403,211.044601 266.900330,211.289597 
	C264.132812,216.462936 267.784149,221.450500 267.270874,226.554718 
	C267.072083,228.531830 267.152313,231.667984 268.310120,232.419037 
	C270.853210,234.068756 268.339783,234.925934 268.030579,236.737762 
z"/>
<path fill="#FFFFFF" opacity="1.000000" stroke="none" 
	d="
M736.640503,220.109482 
	C737.350281,217.042572 738.609009,213.817505 737.830872,211.197372 
	C736.474304,206.629669 738.507935,202.795532 739.670410,199.056503 
	C742.343445,190.458832 746.070435,182.188873 749.421936,173.653015 
	C755.015320,175.423416 758.681763,177.691071 759.957214,182.620926 
	C761.349548,188.002762 765.447083,192.484222 765.231262,198.419281 
	C765.224304,198.612427 766.152527,198.726608 766.394958,199.059509 
	C768.532898,201.996704 770.849854,204.471664 771.371521,208.701508 
	C771.783936,212.046021 775.380310,214.997925 777.840698,218.522263 
	C777.964355,219.090759 777.844849,221.303207 778.631470,221.694672 
	C782.717407,223.728043 783.994995,227.660629 786.110535,231.153900 
	C788.096069,234.432648 791.161255,236.477753 795.342651,234.943695 
	C807.888611,230.340881 815.734497,222.113831 818.577515,208.457367 
	C819.253052,205.212509 817.748352,200.447021 821.642456,197.826599 
	C821.939026,197.627045 822.117310,196.807953 821.960449,196.445908 
	C820.022339,191.973694 818.689087,187.030228 815.852661,183.207977 
	C812.087524,178.134048 806.552795,174.928406 801.156921,171.411133 
	C796.694031,168.501953 792.653015,168.400375 788.255371,167.276535 
	C783.192566,165.982742 778.345581,163.820786 773.440369,161.943253 
	C770.819519,160.940079 768.273254,159.741852 765.568726,158.578033 
	C765.483521,158.674393 766.006165,158.083344 766.661133,157.342789 
	C759.914673,154.810928 756.780090,149.060455 755.124878,142.590973 
	C753.920776,137.884598 754.369690,137.693741 751.928650,135.824142 
	C752.341614,134.484421 753.126160,133.325378 752.912842,132.395142 
	C751.897034,127.965080 755.339233,125.363884 756.596802,121.912819 
	C758.112488,117.753548 761.003784,114.798492 763.115051,111.236313 
	C765.044434,107.981163 767.856384,105.252129 770.253357,102.270264 
	C772.700134,99.226372 775.079285,96.127502 777.558167,93.110313 
	C778.959778,91.404289 780.675598,89.937714 781.951355,88.150200 
	C787.040710,81.019066 791.990479,73.788506 797.039734,66.628448 
	C799.025391,63.812664 800.780212,60.678417 803.314270,58.458923 
	C805.042847,56.945019 807.940796,56.116898 810.314514,56.119682 
	C815.842712,56.126186 820.819519,58.342346 823.823669,63.065063 
	C825.950989,66.409286 826.989746,70.445946 828.720459,74.677071 
	C827.033691,74.351028 826.220703,74.193886 825.181824,73.993080 
	C825.406555,74.568253 825.430054,74.926529 825.602051,75.024635 
	C828.915527,76.915276 827.789124,78.916389 826.161133,81.432945 
	C823.944092,84.860023 822.407593,88.723145 820.243103,92.189346 
	C817.019897,97.350876 813.262634,102.187996 810.187622,107.430107 
	C807.768555,111.554214 806.100586,116.113243 803.962402,120.411156 
	C803.306946,121.728569 802.199951,122.821358 800.911682,124.532402 
	C801.781677,124.966064 802.776184,125.611717 803.865723,125.958916 
	C804.786499,126.252319 806.427368,125.855789 806.707458,126.352379 
	C810.489563,133.057648 818.808228,130.085220 823.417603,134.161285 
	C827.635376,137.891098 835.508911,136.013977 837.055054,143.394730 
	C844.612488,144.484375 844.665100,153.333054 850.413452,156.629898 
	C851.426270,157.210785 851.230957,161.070816 853.392151,160.610870 
	C853.911316,162.549164 853.894348,164.920105 855.046509,166.347549 
	C859.088013,171.354950 860.714539,176.953323 861.117126,183.283737 
	C861.371399,187.282242 863.760315,191.055771 862.148254,195.358185 
	C861.870239,196.100204 863.490173,197.553329 864.251587,198.705475 
	C863.805481,198.855347 862.927368,199.150345 861.655090,199.577774 
	C862.769409,201.006485 863.748657,202.262024 864.730835,203.519623 
	C863.491394,205.192657 861.657410,206.708450 861.167480,208.576706 
	C860.641724,210.581833 861.739441,212.963821 861.469360,215.097870 
	C861.169373,217.467911 860.433289,219.906052 859.322693,222.017746 
	C858.045959,224.445465 855.808472,226.525131 857.855774,228.200195 
	C856.452759,232.225388 855.408691,235.828659 853.930115,239.243851 
	C852.982727,241.432129 851.611938,243.532089 850.043518,245.334564 
	C847.601196,248.141434 844.718201,250.561432 842.225342,253.328552 
	C839.025879,256.880066 836.672058,261.682190 832.793274,264.019470 
	C826.835571,267.609436 822.880188,274.288483 815.074585,275.182709 
	C812.272461,275.503723 809.785278,277.979858 806.970947,278.928223 
	C802.771790,280.343201 798.599426,280.794281 794.313110,278.293762 
	C793.140381,277.609680 790.596802,279.713043 788.626587,279.879852 
	C781.663635,280.469330 775.318420,278.238770 770.078796,273.894836 
	C765.091309,269.760010 760.028992,265.985321 754.364014,262.758606 
	C751.382141,261.060120 749.503296,257.132965 747.583679,253.937469 
	C745.299866,250.135803 744.790222,245.358398 740.560669,242.576370 
	C739.454041,241.848480 739.753235,239.241226 738.943970,237.747925 
	C737.415466,234.927551 740.794006,230.730042 736.392090,228.718536 
	C736.345520,228.697266 736.881287,227.004318 737.390076,226.258850 
	C738.138428,225.162445 739.107727,224.216751 739.982910,223.206879 
	C738.725708,222.693237 737.442932,222.229416 736.239075,221.611877 
	C736.059937,221.520004 736.252075,220.704422 736.640503,220.109482 
z"/>
<path fill="#FFFFFF" opacity="1.000000" stroke="none" 
	d="
M551.076172,254.068787 
	C549.570984,248.840073 549.157532,243.444504 546.456238,238.355331 
	C544.555908,234.775116 546.019165,229.536774 544.570374,225.551483 
	C543.284119,222.013306 543.652710,218.859650 543.783630,215.441513 
	C543.993774,209.953613 543.921204,204.454727 543.959351,198.960419 
	C543.999268,193.207443 543.451172,187.371384 544.261963,181.729996 
	C544.820801,177.841904 547.633484,174.330322 548.730225,170.450180 
	C549.595154,167.390030 548.654236,163.741211 549.783386,160.848953 
	C552.856445,152.977921 556.475403,145.307877 560.172791,137.701477 
	C561.063904,135.868225 563.071533,134.563614 564.611145,133.062485 
	C568.392273,129.375900 572.188965,125.705132 576.004822,122.054520 
	C576.891602,121.206139 577.787720,119.938522 578.835632,119.754967 
	C587.717651,118.199104 596.107300,113.453712 605.717285,116.601212 
	C614.354370,119.430092 621.218567,123.426300 626.587952,131.479370 
	C631.637329,139.052521 634.159485,147.209671 635.645081,155.534683 
	C636.737244,161.654266 634.834229,168.369720 633.814453,174.747452 
	C633.633667,175.877640 631.269165,176.709198 629.843079,177.561584 
	C629.359619,177.850540 628.381287,177.572083 628.124390,177.919312 
	C627.726135,178.457687 627.752502,179.310211 627.655579,179.763977 
	C616.933655,177.127975 612.307495,169.044922 610.583435,159.706665 
	C609.346802,153.008347 606.361389,147.869705 601.828552,143.477478 
	C599.248169,140.977188 596.516052,141.647491 593.102722,144.013275 
	C584.384033,150.056152 583.491028,160.516922 578.073792,168.348602 
	C576.650940,170.405609 576.934570,173.612274 576.316101,176.263351 
	C575.260071,180.790253 573.289001,185.283340 573.222900,189.812820 
	C573.151733,194.687195 575.076904,199.558609 575.646240,204.487320 
	C575.953003,207.143036 574.795349,209.966202 575.092407,212.625137 
	C575.635376,217.486588 576.897583,222.057510 579.574585,226.487747 
	C582.283752,230.971176 583.293579,236.456696 585.265991,241.416458 
	C587.721802,247.591721 593.078979,250.654770 598.838318,252.865982 
	C601.383423,253.843170 609.092407,247.675079 609.981018,244.505249 
	C610.199097,243.727386 610.007263,242.741562 610.416199,242.124634 
	C614.551514,235.885986 619.007507,229.846329 622.878052,223.450974 
	C625.069641,219.829819 626.167358,215.565231 628.067688,211.744583 
	C630.551270,206.751068 633.105652,201.757004 636.133057,197.089813 
	C637.137634,195.541138 639.781799,194.093292 641.522766,194.254822 
	C643.276001,194.417511 645.670044,196.314224 646.332703,198.015961 
	C648.572571,203.768250 650.312866,209.731171 651.967285,215.690430 
	C653.401917,220.857986 656.311096,226.609955 655.118286,231.208710 
	C654.106079,235.111313 657.326904,239.386673 653.254211,243.159576 
	C651.250061,245.016190 651.326965,249.469040 651.084473,252.792450 
	C650.751038,257.360748 649.024231,260.410553 644.833252,261.233063 
	C643.609314,264.681641 643.258850,268.633026 641.140198,271.005035 
	C637.070740,275.560944 632.243042,279.556885 627.281311,283.169006 
	C620.992310,287.747437 614.331360,291.881836 605.858398,290.420929 
	C604.889832,290.253906 603.547058,290.463226 602.811951,291.045837 
	C599.606628,293.586487 597.045227,292.486420 594.427490,290.099854 
	C593.889404,289.609283 592.230591,289.358215 592.006104,289.665985 
	C589.686462,292.846924 588.288635,289.421997 586.703674,288.858459 
	C583.978394,287.889465 581.541077,286.124237 578.831116,285.091553 
	C577.694031,284.658264 576.169983,285.240570 575.254639,285.322479 
	C573.114502,283.512177 570.451477,282.103455 569.036926,279.895111 
	C565.634766,274.583862 560.075562,271.087646 557.736206,264.713623 
	C556.392334,261.052063 556.816467,255.708176 551.323608,253.997711 
	C551.003052,253.998611 551.076172,254.068787 551.076172,254.068787 
z"/>
<path fill="#FFFFFF" opacity="1.000000" stroke="none" 
	d="
M550.968018,253.962021 
	C550.973450,254.423691 550.881958,254.980759 551.073914,255.411469 
	C554.492676,263.082031 553.954834,265.056976 546.854248,268.989929 
	C540.181580,272.685852 533.485535,276.357849 526.636292,279.706177 
	C524.419067,280.790070 521.613770,280.595673 519.201843,281.372131 
	C513.746155,283.128235 508.325256,285.013092 502.971405,287.058044 
	C498.524811,288.756470 494.346313,291.420319 489.776520,292.470703 
	C482.926605,294.045105 476.964294,298.746246 469.490997,298.062775 
	C468.133636,297.938660 466.423523,298.246155 465.351715,299.016205 
	C460.625275,302.412018 455.714294,299.734772 451.070221,299.317352 
	C445.449127,298.812042 442.295868,294.576569 443.310852,287.337769 
	C444.082031,281.837830 441.408905,277.790558 440.520447,273.062073 
	C438.926605,264.579437 436.203552,256.351837 436.805115,247.451370 
	C437.044006,243.916580 434.820221,240.282547 434.293518,236.611069 
	C433.694916,232.438400 433.156342,228.106339 433.631317,223.962738 
	C434.543945,216.001587 433.182617,208.188110 433.046753,200.308807 
	C432.859924,189.472458 433.276062,178.620636 432.890503,167.794800 
	C432.678650,161.846222 430.933929,155.954239 430.693726,150.003906 
	C430.560638,146.706940 431.563904,143.078491 433.031860,140.077271 
	C434.735901,136.593307 437.096069,134.885010 442.262878,135.628754 
	C451.921600,137.019089 461.641754,135.308502 471.275238,132.560501 
	C480.107849,130.040985 489.482208,129.399963 498.631805,128.023849 
	C501.846069,127.540428 505.216919,127.758324 508.317352,126.920090 
	C518.816833,124.081474 529.450867,124.452621 540.124084,124.955559 
	C540.729431,124.984085 541.348389,124.648979 541.966003,124.504112 
	C546.674988,123.399506 549.253174,124.739510 551.246521,129.907486 
	C546.324829,132.881668 541.277466,135.926758 536.235168,138.980240 
	C530.633484,142.372437 524.818787,144.951538 518.243286,146.207733 
	C514.342346,146.952988 510.979645,150.226990 507.082336,151.330887 
	C492.645172,155.420120 478.104279,159.143875 463.013245,160.049973 
	C461.013428,160.170059 459.053162,160.948349 457.459564,161.329697 
	C457.647614,164.491470 457.917145,167.357193 457.966705,170.226715 
	C458.051208,175.121063 457.697540,180.041245 458.077576,184.907639 
	C458.559143,191.074524 459.360870,197.246689 460.632263,203.288696 
	C460.821259,204.186752 464.469147,205.108612 466.292786,204.779175 
	C473.645630,203.450836 480.843170,201.132324 488.227142,200.143448 
	C495.566681,199.160507 503.059387,199.132538 510.488129,199.071091 
	C515.402405,199.030441 520.348267,199.475311 525.223145,200.127350 
	C526.603394,200.311981 527.783875,201.989807 529.894897,203.637650 
	C508.934143,218.499710 485.676575,225.845474 462.637665,233.535553 
	C463.404541,239.342575 463.781067,245.480972 465.124207,251.400024 
	C466.360168,256.846863 465.957886,262.025421 465.077728,267.385254 
	C464.587128,270.372803 465.694641,271.571472 469.103333,270.104736 
	C472.579285,268.609070 476.503540,268.192749 480.105133,266.940460 
	C483.336548,265.816925 486.335388,264.035767 489.547424,262.842316 
	C493.433716,261.398346 497.439941,260.278473 501.385406,258.991180 
	C502.136780,258.746033 502.995209,258.539276 503.553589,258.036438 
	C510.214935,252.037247 519.082825,252.787521 526.940491,250.636459 
	C531.978638,249.257263 537.584839,249.269226 542.851196,249.700089 
	C545.439270,249.911819 547.833557,252.492783 550.695862,254.035187 
	C551.076172,254.068787 551.003052,253.998611 550.968018,253.962021 
z"/>
<path fill="#FFFFFF" opacity="1.000000" stroke="none" 
	d="
M732.579712,123.773895 
	C724.875122,125.526550 717.529968,127.082245 710.942444,128.477493 
	C705.381348,157.307632 708.453735,185.397934 708.245605,214.049652 
	C705.986633,215.051056 705.957825,216.335480 709.684448,220.598221 
	C708.412292,220.853394 707.347778,221.066940 706.332520,221.270584 
	C706.991882,223.902878 708.494263,226.678040 708.074219,229.122925 
	C707.648010,231.603378 712.421997,234.837280 707.729187,236.385712 
	C708.994019,240.957520 710.710571,245.432800 711.320984,250.054199 
	C711.656189,252.591431 710.099182,255.368118 709.447021,258.049377 
	C708.878479,260.386597 707.657104,263.055664 712.252258,263.308167 
	C711.314087,265.748260 709.168518,269.392395 709.808228,269.974274 
	C714.485229,274.228119 707.791992,277.063080 708.836670,280.718628 
	C709.071472,281.540344 708.333313,282.960205 707.617126,283.682037 
	C702.613281,288.725311 691.047424,286.263184 686.645203,280.776581 
	C682.857239,276.055542 678.630615,271.800781 676.561768,265.997498 
	C675.947815,264.275513 675.818481,262.380737 675.272095,260.496613 
	C674.955750,258.448212 674.442444,256.405701 674.381042,254.349716 
	C674.324768,252.464645 674.857056,250.569748 674.946167,248.670563 
	C675.050171,246.455185 674.954834,244.230453 674.945679,242.009781 
	C674.944336,241.676559 675.051880,241.104584 674.923340,241.045273 
	C672.177002,239.777618 673.225464,237.487335 673.322937,235.420990 
	C673.576355,230.046326 673.395142,224.618210 674.103577,219.306946 
	C674.866699,213.585739 673.829651,207.845779 676.033447,202.015137 
	C677.701538,197.601913 676.471985,192.117661 676.669678,187.115479 
	C676.789185,184.092239 677.811523,180.957016 677.263916,178.094849 
	C676.667297,174.976257 679.627747,173.241547 679.108276,170.253036 
	C678.606689,167.367325 678.883911,164.319977 679.033142,161.354401 
	C679.202942,157.981857 679.605835,154.620865 679.915283,151.255569 
	C680.239929,147.725449 680.573730,144.196167 681.009766,139.529846 
	C677.067383,140.965057 673.437927,142.142105 669.923889,143.597870 
	C663.957825,146.069382 657.840149,145.900818 651.647949,144.997375 
	C649.395630,144.668762 648.308228,143.846344 649.773010,141.364609 
	C650.238831,140.575272 650.094055,138.804626 649.497986,138.110031 
	C645.575134,133.538498 646.092346,128.123215 648.353821,123.726898 
	C650.726685,119.114182 654.605652,115.412666 660.394104,113.745468 
	C668.298950,111.468727 675.804443,107.833649 683.555664,104.983727 
	C687.467834,103.545341 691.540649,102.541748 695.546997,101.362305 
	C702.416992,99.339760 709.179077,96.568512 716.196167,95.535027 
	C723.247192,94.496544 729.990662,91.058861 737.541382,92.878716 
	C742.708679,94.124130 748.184448,94.035095 753.420227,95.062622 
	C761.787292,96.704674 763.805603,102.209610 758.186462,108.156578 
	C755.919250,110.556030 752.773743,112.147255 749.959595,114.002533 
	C746.883301,116.030624 743.788147,118.044495 740.587585,119.864792 
	C738.129456,121.262817 735.495117,122.350967 732.579712,123.773895 
z"/>
<path fill="#FFFFFF" opacity="1.000000" stroke="none" 
	d="
M336.616730,191.680023 
	C335.800385,191.627808 335.306702,191.305435 334.813019,190.983063 
	C335.031921,190.658661 335.250854,190.334274 335.469757,190.009872 
	C335.959625,190.476547 336.449524,190.943207 336.616730,191.680023 
z"/>
<path fill="#FFFFFF" opacity="1.000000" stroke="none" 
	d="
M331.130402,179.094528 
	C331.488861,178.677109 332.052521,178.434128 332.616150,178.191147 
	C332.484528,178.526443 332.352905,178.861740 331.998474,179.388275 
	C331.628998,179.475998 331.482269,179.372482 331.130402,179.094528 
z"/>
<path fill="#FFFFFF" opacity="1.000000" stroke="none" 
	d="
M228.869629,250.905426 
	C228.511139,251.322876 227.947495,251.565857 227.383835,251.808838 
	C227.515488,251.473526 227.647141,251.138214 228.001572,250.611633 
	C228.371048,250.523926 228.517746,250.627441 228.869629,250.905426 
z"/>
</svg>